<mxfile host="app.diagrams.net" modified="2023-10-25T01:26:14.634Z" agent="Mozilla/5.0 (Macintosh; Intel Mac OS X 10_15_7) AppleWebKit/537.36 (KHTML, like Gecko) Chrome/114.0.0.0 Safari/537.36" etag="uixqqIFzDkU3Duw_8Mpu" version="22.0.7" type="device">
  <diagram name="第 1 页" id="_41xRzCayNSqKhUptwmX">
    <mxGraphModel dx="1052" dy="63" grid="1" gridSize="10" guides="1" tooltips="1" connect="1" arrows="1" fold="1" page="1" pageScale="1" pageWidth="530" pageHeight="540" math="0" shadow="0">
      <root>
        <mxCell id="0" />
        <mxCell id="1" parent="0" />
        <mxCell id="SAyNskZYrFO6HLzrF5o1-2" value="" style="shape=image;verticalLabelPosition=bottom;labelBackgroundColor=default;verticalAlign=top;aspect=fixed;imageAspect=0;image=data:image/png,iVBORw0KGgoAAAANSUhEUgAABFoAAANwCAYAAAAfrg5NAAABQWlDQ1BJQ0MgUHJvZmlsZQAAKJFjYGASSCwoyGFhYGDIzSspCnJ3UoiIjFJgf87AySDDIMogyMCamFxc4BgQ4ANUwgCjUcG3awyMIPqyLsisALEDnwKDNjp2PpM4+67f/TimehTAlZJanAyk/wBxUnJBUQkDA2MCkK1cXlIAYrcA2SJFQEcB2TNA7HQIew2InQRhHwCrCQlyBrKvANkCyRmJKUD2EyBbJwlJPB2JDbUXBDiCjczdjE0NCDiVdFCSWlECop3zCyqLMtMzShQcgSGUquCZl6yno2BkYGTMwAAKb4jqzzfA4cgoxoEQS93BwGDSDBS8iRDLfsfAsGcRAwPfO4SYqj6Qf5uB4VBaQWJRItwBjN9YitOMjSBs7u0MDKzT/v//HM7AwK7JwPD3+v//v7f///93GQMD8y0GhgPfAJWAYJWzhWQqAAAACXBIWXMAABYlAAAWJQFJUiTwAABAAElEQVR4AeydCbxV4/rHHzNJk1LSpEkDpVKkKFEhU+EmpMyu6Zqv697r3r+La8jMRUgZkqHokiEhiUgkpUKDokmTNBou//f37t599tntczrDPmdP3/fzWWcNe613ve/3XWfvtX7rGbb53RWjQAACEIAABCAAAQhAAAIQgAAEIAABCJSawLalroEKIAABCEAAAhCAAAQgAAEIQAACEIAABDwBhBYuBAhAAAIQgAAEIAABCEAAAhCAAAQgkCQCCC1JAkk1EIAABCAAAQhAAAIQgAAEIAABCEAAoYVrAAIQgAAEIAABCEAAAhCAAAQgAAEIJIkAQkuSQFINBCAAAQhAAAIQgAAEIAABCEAAAhBAaOEagAAEIAABCEAAAhCAAAQgAAEIQAACSSKA0JIkkFQDAQhAAAIQgAAEIAABCEAAAhCAAAQQWrgGIAABCEAAAhCAAAQgAAEIQAACEIBAkgggtCQJJNVAAAIQgAAEIAABCEAAAhCAAAQgAAGEFq4BCEAAAhCAAAQgAAEIQAACEIAABCCQJAIILUkCSTUQgAAEIAABCEAAAhCAAAQgAAEIQAChhWsAAhCAAAQgAAEIQAACEIAABCAAAQgkiQBCS5JAUg0EIAABCEAAAhCAAAQgAAEIQAACEEBo4RqAAAQgAAEIQAACEIAABCAAAQhAAAJJIoDQkiSQVAMBCEAAAhCAAAQgAAEIQAACEIAABBBauAYgAAEIQAACEIAABCAAAQhAAAIQgECSCCC0JAkk1UAAAhCAAAQgAAEIQAACEIAABCAAAYQWrgEIQAACEIAABCAAAQhAAAIQgAAEIJAkAggtSQJJNRCAAAQgAAEIQAACEIAABCAAAQhAAKGFawACEIAABCAAAQhAAAIQgAAEIAABCCSJAEJLkkBSDQQgAAEIQAACEIAABCAAAQhAAAIQQGjhGoAABCAAAQhAAAIQgAAEIAABCEAAAkkigNCSJJBUAwEIQAACEIAABCAAAQhAAAIQgAAEEFq4BiAAAQhAAAIQgAAEIAABCEAAAhCAQJIIILQkCSTVQAACEIAABCAAAQhAAAIQgAAEIAABhBauAQhAAAIQgAAEIAABCEAAAhCAAAQgkCQCCC1JAkk1EIAABCAAAQhAAAIQgAAEIAABCEAAoYVrAAIQgAAEIAABCEAAAhCAAAQgAAEIJIkAQkuSQFINBCAAAQhAAAIQgAAEIAABCEAAAhBAaOEagAAEIAABCEAAAhCAAAQgAAEIQAACSSKA0JIkkFQDAQhAAAIQgAAEIAABCEAAAhCAAAQQWrgGIAABCEAAAhCAAAQgAAEIQAACEIBAkgggtCQJJNVAAAIQgAAEIAABCEAAAhCAAAQgAAGEFq4BCEAAAhCAAAQgAAEIQAACEIAABCCQJAIILUkCSTUQgAAEIAABCEAAAhCAAAQgAAEIQAChhWsAAhCAAAQgAAEIQAACEIAABCAAAQgkiQBCS5JAUg0EIAABCEAAAhCAAAQgAAEIQAACEEBo4RqAAAQgAAEIQAACEIAABCAAAQhAAAJJIoDQkiSQVAMBCEAAAhCAAAQgAAEIQAACEIAABBBauAYgAAEIQAACEIAABCAAAQhAAAIQgECSCCC0JAkk1UAAAhCAAAQgAAEIQAACEIAABCAAAYQWrgEIQAACEIAABCAAAQhAAAIQgAAEIJAkAggtSQJJNRCAAAQgAAEIQAACEIAABCAAAQhAAKGFawACEIAABCAAAQhAAAIQgAAEIAABCCSJAEJLkkBSDQQgAAEIQAACEIAABCAAAQhAAAIQQGjhGoAABCAAAQhAAAIQgAAEIAABCEAAAkkigNCSJJBUAwEIQAACEIAABCAAAQhAAAIQgAAEEFq4BiAAAQhAAAIQgAAEIAABCEAAAhCAQJIIILQkCSTVQAACEIAABCAAAQhAAAIQgAAEIAABhBauAQhAAAIQgAAEIAABCEAAAhCAAAQgkCQCCC1JAkk1EIAABCAAAQhAAAIQgAAEIAABCEAAoYVrAAIQgAAEIAABCEAAAhCAAAQgAAEIJIkAQkuSQFINBCAAAQhAAAIQgAAEIAABCEAAAhBAaOEagAAEIAABCEAAAhCAAAQgAAEIQAACSSKA0JIkkFQDAQhAAAIQgAAEIAABCEAAAhCAAAQQWrgGIAABCEAAAhCAAAQgAAEIQAACEIBAkgggtCQJJNVAAAIQgAAEIAABCEAAAhCAAAQgAAGEFq4BCEAAAhCAAAQgAAEIQAACEIAABCCQJAIILUkCSTUQgAAEIAABCEAAAhCAAAQgAAEIQAChhWsAAhCAAAQgAAEIQAACEIAABCAAAQgkiQBCS5JAUg0EIAABCEAAAhCAAAQgAAEIQAACEEBo4RqAAAQgAAEIQAACEIAABCAAAQhAAAJJIoDQkiSQVAMBCEAAAhCAAAQgAAEIQAACEIAABBBauAYgAAEIQAACEIAABCAAAQhAAAIQgECSCCC0JAkk1UAAAhCAAAQgAAEIQAACEIAABCAAAYQWrgEIQAACEIAABCAAAQhAAAIQgAAEIJAkAggtSQJJNRCAAAQgAAEIQAACEIAABCAAAQhAAKGFawACEIAABCAAAQhAAAIQgAAEIAABCCSJAEJLkkBSDQQgAAEIQAACEIAABCAAAQhAAAIQQGjhGoAABCAAAQhAAAIQgAAEIAABCEAAAkkigNCSJJBUAwEIQAACEIAABCAAAQhAAAIQgAAEEFq4BiAAAQhAAAIQgAAEIAABCEAAAhCAQJIIbJ+keqgGAhDIMQLLli2zefPm2Zo1a2zTpk1+2rhxY77lX375xXbaaafotPPOO0eXw/YqVarY3nvvbTVq1MgxgnQXAhCAAAQgAAEIQAACEMhGAggt2Tiq9AkCSSIgAWXKlCn25Zdf2ty5c23OnDleXNH6+vXrt3qW33//3bbZZput7qcddt11V2vYsKEXXcK8UaNG1qBBA79dIg0FAhCAAAQgAAEIQAACEIBAuhPYxj0I/Z7ujaR9EIBA+RBYvHixTZo0ySZOnOjnkydPjp64sK+KihUr2i677GISQzQPy1qXlctPP/3kLV00j13esGFDtP74hXiBRoLLfvvtZ/vuu6+1bNnSWrRoYfvvv3/8YaxDAAIQgAAEIAABCEAAAhBIKQGElpTi5+QQSD2BCRMm2JNPPmljx461b7/91jcoXlTZbbfdrHnz5iYLkyZNmvipcePGflulSpVK1Ym1a9fa119/bfPnz/fWMmEuCxpNiUqsCCPxRW2T+NK6dWvr0KGD1apVK9FhbIMABCAAAQhAAAIQgAAEIFDmBBBayhwxJ4BA+hGYOnWqPfvsszZ8+HD77rvvLF5Y2Weffaxr16520EEHWceOHa1p06b5OhErdOT7IAkr8W355ptvvAAzbdo0mzlzpk2fPt2++OKLLVyXYttUv359O/jgg61z585+khhDgQAEIAABCEAAAhCAAAQgUB4EEFrKgzLngECaEBg9erTdeOON9sknn+QTV/bcc0/7wx/+YIceeqh16dLFqlWr5lscK16kQxdiRRgF4pXoMmPGDD/X8qxZs/I1M7S/cuXKXnjp1KmTn0tAIuZLPlSsQAACEIAABCAAAQhAAAJJIoDQkiSQVAOBdCbwxBNP2G233eYtQoJYUbduXevbt6+dcMIJXnxQ+4Mwkc59SdS20Cd9phgzH374oQ/iqxgzse5Hsf2TpU737t2tZ8+e3monUb1sgwAEIAABCEAAAhCAAAQgUFwCCC3FJcb+EMgQAsoYNGTIEBs0aJDJ/SaIEXIJuvrqq+2oo47yPYkVHzKka0VqZuiv0k9LeJHoEqbly5dH61D/ZcHTo0cPO/LIIz0XUk1H8bAAAQhAAAIQgAAEIAABCBSTAEJLMYGxOwQygcDbb79tZ599ti1YsCAqsJxyyil2xRVX2AEHHJCxliulZR/EFwXcfe+99+y1117zQYBXr17tqw6ik7IZHX300d7a5ZBDDintaTkeAhCAAAQgAAEIQAACEMghAggtOTTYdDX7Caxfv96uvPJKGzx4sBdYFIdkwIAB3oKlYcOGOSuwFDTyQXiRxcvrr7/uhZePP/44uruElypVqtgRRxwRtXZRPBsKBCAAAQhAAAIQgAAEIACBggggtBREhu0QyDAC48aN81YsCxcu9C2Xi9CwYcNMsViCpUaGdalcmxtElxUrVtgbb7zhhRelvA5uRoGh0kefdNJJPnhwvXr1yrWNnAwCEIAABCAAAQhAAAIQSH8CCC3pP0a0EAKFEli7dq1dfvnlPh6LxIKKFSvaLbfcYhdeeCECS6HkCv8wCC+ycJGLkSxeZPmiEkQXuWEF0aVBgwb+M/5AAAIQgAAEIAABCEAAArlNAKElt8ef3mc4gSVLlvh0zF9//bXvSbBiwdIi+QMr4UXWLiNHjrQXXnjB3nrrLX+SILq0bdvWiy6KhYPoknz+1AgBCEAAAhCAAAQgAIFMIYDQkikjRTshEEdgzpw5dvjhh1twFVImoVtvvTVqbRG3O6tJJCDRZdWqVV5wkegity2VILoomK4sXZQ+u1GjRkk8M1VBAAIQgAAEIAABCEAAAulOAKEl3UeI9kEgAYHp06dbt27dvIWFPh46dKidccYZ0Qf9BIewqYwIBNFl1KhRXnhRXBeVILq0atUqKro0adKkjFpBtRCAAAQgAAEIQAACEIBAuhBAaEmXkaAdECgigblz51r79u1NKYkrVKjgXVmOPPLIIh7NbmVJQKKLxiWILgqqqxJElzZt2nhBrH///latWrWybAp1QwACEIAABCAAAQhAAAIpIoDQkiLwnBYCJSGwbNkyO/DAA23BggVWs2ZNnx2ndevWJamKY8qYgESXNWvWREUXBdRVCaLLcccd50WXPn36lHFLqB4CEIAABCAAAQhAAAIQKE8CCC3lSZtzQaAUBNavX28dO3Y0uQ1VqlTJlA2nadOmpaiRQ8uLQLB0GT58uD3xxBN+7HRuiS6ybOnXr58XXWSpRIEABCAAAQhAAAIQgAAEMpsAQktmjx+tzyECRxxxRDTTzTvvvGPKMETJPAISXb766it7/PHH7amnnrJFixb5Tkh0adasmRdcBg4caLVq1cq8ztFiCEAAAhCAAAQgAAEIQMAQWrgIIJABBBTo9sknn/Qtfeyxx+yss87KgFbTxMIISHBRefPNN72Vi+K6bNy4Mepa1L1796hr0S677FJYVXwGAQhAAAIQgAAEIAABCKQRAYSWNBoMmgKBRAQeffRRO/fcc/1HV111ld1+++2JdmNbBhOQ6LJu3Tp77rnnvOgyYcIE3xtZuchN7NRTT7U//vGPtt9++2VwL2k6BCAAAQhAAAIQgAAEcoMAQktujDO9zFACcivZZ599TPFZ5Dqk1MEhmGqGdolmb4WARBcFOx42bJgNGTLEFi5c6I/QuLdt29bOPPNMGzBggFWsWHErNfExBCAAAQhAAAIQgAAEIJAKAggtqaDOOSFQRAIhLsuuu+5qX375pe21115FPJLdsoGARBfF43n44Ye9tYv6JMFF18Mpp5ziLZ06dOiQDV2lDxCAAAQgAAEIQAACEMgaAggtWTOUdCTbCChQav/+/X23HnroITv//POzrYv0p4gEJLisWrXK5Eb2yCOP2Ny5c/2REl1atWpl55xzjr9WKleuXMQa2Q0CEIAABCAAAQhAAAIQKCsCCC1lRZZ6IVAKAt9//71P3bxmzRrr1KmTTZw4sRS1cWg2EZDo8tZbb9ngwYPt+eef912T4KKAuSeffLK3ctE1Q4EABCAAAQhAAAIQgAAEUkMAoSU13DkrBAol0KtXL3v11Vdt5513tlmzZlmDBg0K3Z8Pc4+ABJcVK1Z4KxdZusybN89DkOjSvHlzL7goTXSVKlVyDw49hgAEIAABCEAAAhCAQAoJILSkED6nhkAiAi+88IK3TNBnd999t/3pT39KtBvbIBAlINFFaaJl5TJy5Ei/XYKLSr9+/bzo0rVrV7/OHwhAAAIQgAAEIAABCECgbAkgtJQtX2qHQLEJ7LnnnrZ06VJr3769TZ48udjHc0DuEpDgIrczWbho+uabbzwMiS5Nmza1Cy+80GTlopTRFAhAAAIQgAAEIAABCECgbAggtJQNV2qFQIkI3HXXXXbFFVf4Y6dNm+YDnZaoIg7KeQISXd544w1v5fLiiy96HhJclLHo9NNPt0suucRatGiR85wAAAEIQAACEIAABCAAgWQTQGhJNlHqg0AJCaxfv97q1avns8v07dvXRowYUcKaOAwCeQQkuMhCSpmr5FqkZRWJLl26dPGCS58+ffIOYAkCEIAABCAAAQhAAAIQKBUBhJZS4eNgCCSPwE033WR/+9vffIVK39uwYcPkVU5NOU9AgouKBLwHHnjA3n//fb8uwUUC3x//+Ecfy6VatWp+O38gAAEIQAACEIAABCAAgZIRQGgpGTeOgkBSCSiNc/369U3zs88+28fXSOoJqAwCMQQkukyfPt0HW37mmWds06ZN3sJFWa5OO+00u/zyy3EriuHFIgQgAAEIQAACEIAABIpDAKGlOLTYFwJlROC6666zf//73772hQsXWt26dcvoTFQLgTwCElxWrVrl3YrkWvTdd9/5D4NbkTJenXDCCXkHsAQBCEAAAhCAAAQgAAEIbJUAQstWEbEDBMqWgB5099prL29VcNlll5kC4lIgUN4EJLo8//zzdt9999nEiRP96SW4yIXt4osvtrPOOotsReU9KJwPAhCAAAQgAAEIQCAjCSC0ZOSw0ehsIiCrgXvvvddng1mwYIHtvvvu2dQ9+pJhBCS4TJ061e655x574oknfOsluOy2227erU2iC/GDMmxQaS4EIAABCEAAAhCAQLkSQGgpV9ycDAL5CchVI7gJ/f3vf7cbbrgh/w6sQSBFBCS4LF++3B588EE/LVu2zLdEokvv3r19HJfOnTunqHWcFgIQgAAEIAABCEAAAulLAKElfceGluUAAQUdvfvuu61y5comaxbNKRBINwISXWTdIisXWbuoSHBp166dyd1NAXQpEIAABCAAAQhAAAIQgECEAEILVwIEUkRgw4YNVqtWLVu7dq1hzZKiQeC0xSIgwWXChAk+jtDo0aP9sRJcateubRdddJFdcMEFVrVq1WLVyc4QgAAEIAABCEAAAhDINgIILdk2ovQnYwj85z//8Q+navDSpUutZs2aGdN2GprbBCS4zJs3z1u4PP7447Zu3Tpv4VKhQgUbMGCAdytq3LhxbkOi9xCAAAQgAAEIQAACOUsAoSVnh56Op5pAo0aN/MNqv379bPjw4aluDueHQLEJSHBZs2aNPfLIIz5b0bfffuvrkJXL8ccfb1dccYUdcsghxa6XAyAAAQhAAAIQgAAEIJDJBBBaMnn0aHvGEhg3bpx1797dt/+DDz6wjh07ZmxfaDgERECiy4gRI+zOO++0KVOmeCgSXA444AAvuJxyyimAggAEIAABCEAAAhCAQE4QQGjJiWGmk+lGQG/7//vf/9r+++8fDS6abm2kPRAoCQEJLu+9954XXGLjuNSrV88uvfRSO+ecc6xSpUolqZpjIAABCEAAAhCAAAQgkBEEEFoyYphoZDYRiE3prEwu/fv3z6bu0RcIeAIhjossXIYOHWoK/iwLF4ksEluUrahOnTrQggAEIAABCEAAAhCAQNYRQGjJuiGlQ+lO4Oqrr7ZBgwZZtWrVbOXKleneXNoHgVIRkOCyevVqe+ihh+z++++3JUuW+Pokuig+0VVXXWVt2rQp1Tk4GAIQgAAEIAABCEAAAulEAKElnUaDtmQ9gdiUztdff7393//9X9b3mQ5CIBCQ6DJs2DC74447bMaMGX6zBJcuXbrYlVdeacccc0zYlTkEIAABCEAAAhCAAAQylgBCS8YOHQ3PRAKDBw+2888/3zedlM6ZOIK0ORkEJLi88cYbXnBRYGgVCS7NmjXzLkXnnXdeMk5DHRCAAAQgAAEIQAACEEgJAYSWlGDnpLlKoH379j4jy6mnnmpPP/10rmKg3xDwBCS4TJ8+3W6//XZ76qmn/DYJLnvssYdddNFFdvHFF1vVqlWhBQEIQAACEIAABCAAgYwigNCSUcNFYzOZwOzZs6158+a+C+PHj/fuEpncH9oOgWQRkOCyePFiu/vuu01WXz/++KO3cKlQoYKdddZZ3q2ofv36yTod9UAAAhCAAAQgAAEIQKBMCWxbprVTOQQgECWgzCsqtWvXRmTxJPgDgQgBWbHstddedtttt5mycsnCRevr16+3++67z/bee2/r27cvqdC5YCAAAQhAAAIQgAAEMoIAQktGDBONzAYCQ4YM8d3QG3oKBCCwJQEJLrvttpvPRLRw4UJT+vPWrVubLF6ee+45a9eunR122GE2ZsyYLQ9mCwQgAAEIQAACEIAABNKEAK5DaTIQNCO7CSjgZ/fu3X0n582b59/QZ3eP6R0EkkNAIsubb77pU6JrriJBpkWLFt6l6Mwzz0zOiagFAhCAAAQgAAEIQAACSSKARUuSQFINBAojoDfzKgceeCAiS2Gg+AwCcQQkqvTo0cNnKZo2bZqdfvrp3sLliy++sLPPPtu7GN1yyy22Zs2auCNZhQAEIAABCEAAAhCAQGoIYNGSGu6cNYcIKM5E9erVbdOmTfbAAw/YhRdemEO9p6sQSC6BEDj3zjvv9IFz161b5y1cKlasaOecc45dccUVVqdOneSelNogAAEIQAACEIAABCBQDAIILcWAxa4QKAmBYcOG2cCBA/2hq1evtipVqpSkGo6BAARiCEhwkRXLgw8+aPfee68tXbrUfyoLmH79+tm1115r++23X8wRLEIAAhCAAAQgAAEIQKB8COA6VD6cOUsOEwhuQ71790ZkyeHrgK4nl4AEFYmWf/nLX3xq6EceecSaNWvm3YqGDx/ug+geccQR9vrrryf3xNQGAQhAAAIQgAAEIACBrRDAomUrgPgYAqUhsHjxYh9DQnWMGjXKJLZQIACBsiEgK5eXX37Zp4eeOHGiP4kEmZYtW/pMRgMGDCibE1MrBCAAAQhAAAIQgAAEYghg0RIDg0UIJJvA0KFDfZV6847Ikmy61AeB/AQkqhx33HE2YcIEmzx5sv+fk/gyY8YMU3aiunXr+uxFiutCgQAEIAABCEAAAhCAQFkRwKKlrMhSLwQcgYYNG9r8+fN9AFwFwqVAAALlR0Aii9KpDxo0yCR6KiC1xJjKlSvb+eefb5dddpnVqlWr/BrEmSAAAQhAAAIQgAAEcoIAQktODDOdTAWBzz77zNq0aeNP/eGHH/rUzqloB+eEQK4TkOCycuVKu++++3zmLy2rSHSRpcs111xj++yzT65jov8QgAAEIAABCEAAAkkigOtQkkBSDQTiCbz44ot+k96YH3jggfEfsw4BCJQTAQkqSrH+z3/+0xYuXOizFO29994+cO6QIUOsefPmUZejcmoSp4EABCAAAQhAAAIQyGICCC1ZPLh0LbUEgtByyimnpLYhnB0CEPAEJLhUqFDBLrnkEps7d66NGDHC2rVr5wUXBdHt2rWrF0Wff/55iEEAAhCAAAQgAAEIQKDEBHAdKjE6DoRAwQT01rx+/fp+h3fffdcOPfTQgnfmEwhAIGUE5Fb0zjvv+Dgur732mm+HBBlZvCiGy9lnn+3FmZQ1kBNDAAIQgAAEIAABCGQcASxaMm7IaHAmEHj22Wd9M6tVq4bIkgkDRhtzloBElW7dutmYMWNs1qxZphTQIYjun/70J6tXr579/e9/t+XLl+csIzoOAQhAAAIQgAAEIFA8AggtxePF3hAoEoHgNtSnT58i7c9OEIBAaglIcGnWrJk9/vjjtnjxYh8gt1KlSj6I7o033mg1a9a08847z+bMmZPahnJ2CEAAAhCAAAQgAIG0J4DrUNoPEQ3MNAJLly61Pffc0zdbb8mPPvroTOsC7YVAzhOQVcu6dets8ODBds8999i3337rmUiQOfbYY+3KK6/EWi3nrxIAQAACEIAABCAAgcQEEFoSc2ErBEpM4MEHH7QLL7zQdtllF9uwYUOJ6+FACEAgPQhIdHnqqafsjjvusGnTpvlGSXA54IADvODSt2/f9GgorYAABCAAAQhAAAIQSAsCuA6lxTDQiGwiENyGjjvuuGzqFn2BQM4SkKjSv39/mzp1qo0dO9Z69uzp47h8/PHH1q9fPx849+677/YWMDkLiY5DAAIQgAAEIAABCEQJYNESRcECBEpPYO3ataa4DipKHcub7tIzpQYIpBsBWbjMnDnTZyoaOnSob57EmMqVK/s4LgqiW7t27XRrNu2BAAQgAAEIQAACECgnAggt5QSa0+QGAbkX6M23yo8//mi77bZbbnScXkIgBwlIcFFMpvvuu88eeughW716tacg0eXUU0/1bkVt2rTJQTJ0GQIQgAAEIAABCOQ2AVyHcnv86X2SCYwaNcrXqAC4iCxJhkt1EEgzAhJUFPj6pptu8sFyFTS3YcOG3q3o6aeftnbt2tlhhx1mL7/8cpq1nOZAAAIQgAAEIAABCJQlASxaypIudecUgY0bN9ruu+9umj/yyCN2zjnn5FT/6SwEIGBeZJHgetddd9n777/vkUiQadq0qV1++eV2xhln+EDZsIIABCAAAQhAAAIQyF4CCC3ZO7b0rJwJvPTSS9a7d29/1pUrV1q1atXKuQWcDgIQSBcCciuaMmWK3X777fb888/7ZklwkRh7wQUX2EUXXWS1atVKl+bSDghAAAIQgAAEIACBJBLAdSiJMKkqtwkE94BDDjkEkSW3LwV6DwGTqNK+fXt79tlnbf78+XbZZZdZxYoVbcWKFXbjjTf6YLkDBw606dOnQwsCEIAABCAAAQhAIMsIILRk2YDSndQRCELLsccem7pGcGYIQCCtCEhwadCggd15550+jsugQYOsfv363sVo2LBh1rp1azv88MOJ45JWo0ZjIAABCEAAAhCAQOkI4DpUOn4cDQFP4IsvvrB9993XL0+bNs1atWoFGQhAAAIJCcit6IUXXvBxXCZNmuT3kSDTpEkTu+SSS0yWLrJ+oUAAAhCAAAQgAAEIZCYBLFoyc9xodZoReP31132LatSogciSZmNDcyCQbgQkqpx88sk+WO7kyZOtb9++3sLlq6++sksvvdTq1q1rV111lS1YsCDdmk57IAABCEAAAhCAAASKQAChpQiQ2AUCWyPwxhtv+F169eq1tV35HAIQgIAnEOK4PPPMM7Zw4UK75pprrEqVKvbDDz/YHXfcYXvvvbeddNJJ9t5770EMAhCAAAQgAAEIQCCDCOA6lEGDRVPTl4AemFRGjBjh306nb0tpGQQgkK4E5FK0YcMGU+yWe++917788kvfVH2/tGnTxi6++GI788wz07X5tAsCEIAABCAAAQhAYDMBhBYuBQiUksBrr71mRx99tK9Fb6IrV65cyho5HAIQyHUCEl303XL33Xfbm2++6XFIcFF66PPOO8+nh65du3auY6L/EIAABCAAAQhAIC0J4DqUlsNCozKJQHAbOvDAAxFZMmngaCsE0piARBUJuPp+mTVrll1wwQVWoUIFnx765ptvtjp16lifPn1s7NixadwLmgYBCEAAAhCAAARykwBCS26OO71OIoEQCLdnz55JrJWqIAABCJhJcGnWrJn95z//sUWLFvnYLY0aNfLBc1988UU78sgjrWnTpj59tCzqKBCAAAQgAAEIQAACqSeA61Dqx4AWZDABBbCsX7++78EHH3xgHTt2zODe0HQIQCATCMitSCKLAubqe0dFgozKgAED7Oyzz7bOnTv7df5AAAIQgAAEIAABCJQ/AYSW8mfOGbOIwODBg+3888/3LkO8Tc6igaUrEMgAAhJcpkyZYrfddpu98MIL0RZLdGnZsqWde+65XnghblQUDQsQgAAEIAABCECgXAjgOlQumDlJthIIbkM9evTI1i7SLwhAIE0JSFBp3769PffcczZ//ny74oorvOgrAWbGjBl22WWXWdWqVW3gwIE2YcKENO0FzYIABCAAAQhAAALZRwCLluwbU3pUjgQqVqxo69evt0cffdSb65fjqTkVBCAAgXwEJLCoDB8+3GRtFyuuSJRp3ry5t3KR8FKlSpV8x7ICAQhAAAIQgAAEIJA8AggtyWNJTTlGYOLEiXbIIYf4Xn/77bc+C0iOIaC7EIBAmhKQ6DJnzhx7+OGHbejQobZy5Urf0hDL5dRTT/Vpog899NA07QHNggAEIAABCEAAAplLANehzB07Wp5iAsFtSLEQlGqVAgEIQCBdCEhQadKkid1+++22fPlyb+XStWtXn61IIszTTz9tWpeVi4Lqrlq1Kl2aTjsgAAEIQAACEIBAxhNAaMn4IaQDqSIwbtw4f2qlV6VAAAIQSEcCElw09evXz95++21v5XL11VdbjRo1vOgye/Zs03r16tWtT58+PptROvaDNkEAAhCAAAQgAIFMIoDrUCaNFm1NGwKKy6L4LCqvvvqqHXXUUWnTNhoCAQhAoDACIZaLgug+8sgj9tZbb0V3lyhTrVo1+8Mf/mD9+/cnZX2UDAsQgAAEIAABCECg6AQQWorOij0hECUgt6EgrqxduzYqukR3YAECEIBABhCQ6LJgwQJ74okn7KmnnrKvv/462mqJLo0bN7bTTjvNZy6qX79+9DMWIAABCEAAAhCAAAQKJoDQUjAbPoFAgQSuvfZau/XWW61Dhw720UcfFbgfH0AAAhDIFAISXT788EN78skn7dlnn80Xt0WiS6dOnez000+3U045xaeRzpR+0U4IQAACEIAABCBQ3gSI0VLexDlfVhAYP36874eCSVIgAAEIZAMBiSkdO3a0Bx54wFasWGEjR460E044wXdNIowyrf3xj3+0qlWr2sknn2yjR4/Ohm7TBwhAAAIQgAAEIJB0Ali0JB0pFWY7AeKzZPsI0z8IQCAQkMCyevVqe+aZZ7ylS6wFn4QZiS7HHnus9e7d244//vhwGHMIQAACEIAABCCQ0wQQWnJ6+Ol8SQgQn6Uk1DgGAhDIdAISXebMmWPDhg3z8VwU2yUUiS677rqrj12l7EXHHHMMsasCHOYQgAAEIAABCOQcAYSWnBtyOlxaAsRnKS1BjocABDKZgAQXFcVzGTVqlHcxmj9/frRLEl1UevXq5S1d5H6kTEYUCEAAAhCAAAQgkCsEEFpyZaTpZ9IIHHjggTZ58mS75pprfEDcpFVMRRCAAAQyjEAQXaZOnRoVXWbPnh3tRRBdunXr5kWXE0880WrVqhX9nAUIQAACEIAABCCQjQQQWrJxVOlTmREgPkuZoaViCEAgwwkE0WXmzJneykXWLtOmTYv2Kogubdq0sZ49e/qpS5cu0c9ZgAAEIAABCEAAAtlCAKElW0aSfpQLgddee82OPvpof661a9cSg6BcqHMSCEAgEwlIePnmm2/sueee89YusgSMLRJedtttNzvKiS29DjrIurdrZ7V23tnsp5/MfvnF7OefI/P45dj1X38t+r46TtN225ntsEPRph13NNt++6Lvq3p32slcx8yqV49MLnYNBQIQgAAEIACB3CKA0JJb401vS0ngz3/+s912223Wvn177z5Uyuo4HAIQgEB2EVi2zGzlysi0alV0/rvbtnHRIvt+1izb8O23pvXKTiRR5JZd3BSsXYoNY3O8mGIfV9wDNsedKe5hfv8KFfJEF4kvNWpE1nffPTIP60GYqVmzRKfhIAhAAAIQgAAE0oeAe01DgQAEikpg/PjxfteuXbsW9RD2gwAEIJDZBJw4Yt99ZzZvntnixWYrVkQFlHyiyrp1BfbTvdUxJzdYg4L2iBNMNrr9nO2J/S5rEmdVsp2zdNnRWYZo0nrUIkXWI8HiJHa7LEti18Oy9pcVTKy1TLB0STTXfv/7X56VTUH7hO0bNmzZw/XrzTTFZGnyOxUm3lSpsqU4IwEmbJc4o1g3detG5luelS0QgAAEIAABCKSQABYtKYTPqTOLwDr3ECEzd5VXX33VpzHNrB7QWghAAAJxBFavjggAEgE0LVyYf3358vwHxAki+T+MW6tY0Vy6ITNZbmgKy5rHLrvPNjkBZdKXX9rLkybZW2+9ZdOnT4+rLLK6sxNcOnToYO2cm9FBzt1o//33tyZNmiTcN6Ubf/wxIkiJn4QpTbHLYVuYy/qnKKUgcaZxY7N69czq14/MJcBoXVPTpkWpmX0gAAEIQAACEEgiAYSWJMKkquwmQHyW7B5fegeBrCSwZElEOPnmmzwhRWJKWI+3QilMSAkP8rHCSaxgIteXIKLUrl04zgIEgxBQd+nSpfbee+/Zxx9/7NNIf/rpp7YhzlokuBtVdILOAQcc4MWX1q1bW9u2ba1FixaFnz9VnxbGV25XQXgJokyYyx0rVqzR9k2bCu5FPF+NTcOGZhoXjWOsEKP1PfcsuC4+gQAEIAABCECg2AQQWoqNjANylUCIz6K3qR999FGuYqDfEIBAOhKQe0/85CxEnDqRv7UFPegrjkiwhoidh2U9jCcq8Q/0ifYpxbYgvKgKZTCaMmWKnz755BM/j686iC+77LKLKbtRmCTASHzR9owrBY3ZmjURCyQJZ2Fy8W+iy9pWUEk0bo0a5VnBaLxjBZkGDcwUqJgCAQhAAAIQgECRCCC0FAkTO0HA7MADD/QBcK+++mofEBcmEIAABMqdwGefRQSV2bPNXBplL65oHlsSPZjLCkWiSZjCg3RYl8VDbEn0IB77eQqXY8UXCS6ydpk6daqff/75587QI7+lRxBf1OSGzqpDgoum5s2bR5d3zYbMQInGPV54iV//4YeCRzL+GqhTx2zffSOTLIbCMgJMwQz5BAIQgAAEcpYAQkvODj0dLw4B3biHN6FjxoyJpnguTh3sCwEIQKBIBFzq+KiIEmulMndu3uHxD9VyBQmiSbyIsvfeW1ojxD9E59WckUux4suMGTPyiS+fOXFqrZjGlVgBpr5jFy/AtGzZMhqXK+7QzF2Nv25k8TR/fp4VTLwQIxezRCX2+pElTBBdHLPocqLj2AYBCEAAAhDIEQIILTky0HSzdATGu2xDhx12mK/kRxfkMATFLV2tHA0BCOQ0AQVAdaJAPpcfWae4NMjREv9gLEFlv/3yHma17NxitiixD8JbfJgbG2LFl2+cYPDFF1/4aaZjrGmWE7HWKxtQXIkVYPZ0sUv22WcfPynoblhurOCz2Vjirzf18auvzIGLTBL+tOwshxKW2OsuVnTRsqZ0DFycsCNshAAEIAABCJSOAEJL6fhxdI4Q+Pe//23XXXedu09s6Z6L3IMRBQIQgEBxCOiBXrGdJk82F+E1Mi9MUKlcOSKoxIoqElQqVco7a+xDbd5WlrZCIFaAme+sOSS6SIQJcwkw8YF3VWWsAKP1Zs2aRYWXWBGmhlIvZ2uJFWIUAygIMBIINSXKFhV7nSpGjnPZilq9BDFGAiIFAhCAAAQgkEUEEFqyaDDpStkROO644+zll1+2c8891wYPHlx2J6JmCEAgOwi4uCFRUUUCix5CQ4l9WNW2Vq3yrFQkrGiKffCMfVANdTBPOoFYAWahCyT7pRMSNH3lLDo0n+3i4nwr15oEJVaEqexEMgkvsnrR1Mi51oT1PfbYI8HRWbAp9ppW/KB4ASbRC4rY61rZqlygeRcMLTJ3qbutatUsAEMXIAABCEAgVwkgtOTqyNPvYhGo5N4iy8d/yJAhduaZZxbrWHaGAASynMC8eRFrlWCpIpElBGSNfQBV5pYgpCimhZb1Rj+U2AfPsI15ygnECjCK1xVEl1gRRmJMojgwanysCCO30yDABPFFQoy2yU0p60rs9R/cjiQ6SogJ8/hOh/8DxX6R8BLEF80pEIAABCAAgQwhgNCSIQNFM1NH4Ouvv7amTZv6BuiNpnz0KRCAQI4SWL3a7MMPI9YqwQ1oxYoIjNiHSrn+6MFQb+Y1dexopm2hhIfJsM48IwnEijBLly61OXPmmH4z5rrAxZprXVNRRBhlPtrbBS5WZiSJL5prXctZ97sT+78SBMrw/ySLmNgS+7/Svn3k/yrMN/82x+7OMgQgAAEIQCAdCCC0pMMo0Ia0JjBs2DAbOHCgD4CrQLgUCEAghwh88EGeC5AeBEPmn9gHReFQuluJKRJXNMdSJYcuki27GivA6NNly5ZFRZh4MaYoIozqqOPSK0t8CUJMEGW0nhUuSeF/Shmi9L8WOy1ZIgR5JYgvci8Kootcj/S/JzckCgQgAAEIQCDFBBBaUjwAnD79CVxwwQX28MMPW69eveyVV15J/wbTQghAoGQE5MoQ3qorropcgEIJD4Far1Ilv7WKLFaCtUp4AAzHMYdAHIF4EWb58uU2z7mfyQomzBWkV8vfffdd3NGR1Vh3JG2RNUwD55om8UXzMIX1qpka7yT834lDEF5kATNlijkzofxsttkmsu4Y5HM5kvhCgQAEIAABCJQzAYSWcgbO6TKPQGuX6eNzl8rypptu8pmHMq8HtBgCEEhIQA9vr71mNm6c2VtvmSndskp4uIusRaxTYl2AZL0SSni4C+vMIVBKAvFCjFxWgwgj8SV22rhxY8KzxQsxijMWRBfN69evn29dsWMyosT+bwZhNIijn3ySvwux/5vt2uV3OXIZoygQgAAEIACBsiSA0FKWdKk74wnIpFs3qCpvv/22HXbYYRnfJzoAgZwloBTL7v/Y3nwzMik9rUrsw5usVYKoEuYhpXLsg1vkSP5CoFwJxIswS5xLTbCCiRVgtKyYMQWVeCGmmnO3KUiIaeAsZCpUqFBQVanfHvv/Gx8/ycXJyVfC//Duu5t162Z2+OGRSYF3KRCAAAQgAIEkEkBoSSJMqso+AuPcm+7u3bv7junN4c4775x9naRHEMhmAnIzGDs2IqxMmBDpaeyDmbboYeuII8z9s5u1bRvZJzyQRdb4C4G0JxAvwqjBs1ymnwULFtg333zjp9hlxY0pqMQLMTVq1DAJLrKE0VxTvXr1/FzBenfZZZeCqkrN9vA/rrhq8eJLbL+32SbSPtcv/x0QhBfXXwoEIAABCECgNAQQWkpDj2OznsC//vUvu/76692zV1v7JN4sOet7TwchkIEEFi82e/XViDuQXIISuQM5d0AvqkhcOfRQcwqquRy8GdhZmgyBohNIJMQoRXUQYTQPQozmspYpqMQLMbKIaeDEl0RCjLZVkaVYqksQX1wqbu8qKHfB8ePzviPUvvA9oNTr+n6Q8NKli4LgpLr1nB8CEIAABDKMAEJLhg0YzS1fAkcddZS9/vrrdtFFF9n9999fvifnbBCAwNYJbNiQ3x0opIYND1WqYa+98oSVnj3N5DagEh6qImv8hUBOE0gkxHzlRIkgwHz77bd+OXa9IGDxQoxccONFGFnEaJummjVrFlRV2W0P3xEKeh3iNE2caBYb9yZ8R3TqFBFe5G50yCFl1yZqhgAEIACBrCGA0JI1Q0lHyoKAbg4Vp+Xpp5+2U089tSxOQZ0QgEBxCSjjSHAHevfdyNHhoUlrFSuade2a5w7UvHlkn/DQFFnjLwQgUAwCiYSYWAsYLcdOSmNdUIkXYuSWGyu8SHzRetjWwFnLlHkJ3yH6TpHwonhOkyblP62+Q2TdIks4WbxIeJGFHAUCEIAABCAQRwChJQ4IqxAIBGa6jAYtW7b0q0q1WS43euHkzCEAgfwElB3opZfMRo82+/77yGfhwUhrClyrGCt6+AlvnPVQRIEABMqNQLwYs2jRIlu4cGHUKkbWMLKMCYLMegWoTlDihRjtspezTFPA3rp163orGIkwWq9Tp441bNgwuXFiwnfLunUR96IgvMyYkdfa8P2ieC4SXILw4tpEgQAEIAABCCC0cA1AoAACjz32mJ1zzjnOy2B3W7FiRQF7sRkCECgTAnoAU6wViStjxpgpqGV4+NEJGzfOE1b0gBPS04aHnzJpFJVCAAKlIRAvxKxevToqukiQkQCjeVguTsBe/VY3aBAJ1BvmwV1JgsyupYmzEr57li/Pi/8kixfX3mgJ3z1Nm5odd5zZscfmib7RnViAAAQgAIFcIYDQkisjTT+LTUAii8SWPn362MiRI4t9PAdAAALFJOAeurzFisQVuQZt2pRfXDnwQLMTTjA76SSzkI41PNwU81TsDgEIpB+BeCFGLfzapWgOAozmsRYxSmNdUIm3iqlevboFASbMgxCj9WIJMUF4mTs3L7DuO++YeyuT15xttonEg+rVKyK8KD5UacSevJpZggAEIACBDCCA0JIBg0QTU0OgRYsWPjXmoEGD7Morr0xNIzgrBLKdgLIEjRoVsVzRG2KV8BCjZWX9kLjSu7dZ7doEsBWTDCwbXNDin3/+2X766Senn23yy1rX9Msvv+Sbfv31VwvT//73P9P022+/Red6GN92221dLONtbLvttrPtt98+Ou2www6maccdd4xOiv+hdc01KRVxhQoVMpAiTU4kxCx23yHBAiYIMrFWMWvWrEkILqlCTPjO+ugjs5dfjkzTp+edV6KLisQWWbvoO23PPSPb+AsBCEAAAllJAKElK4eVTpWWgMyZla5S5f3337eDDz64tFVyPAQgEAjoLfALL5i9+KLZ5MmRreFBxT0EW48ekQcRPZBUrYq4ErilcC4XDn0v/uhcuBQgXMKJBBMJJxJKJIQEAUQiyE477eQniRqa0rWoHxJ11Icg6miubZqHPkm8kUhT0QVarly5sncpreFic4TfiXTtXy62K16MkdAy133nKD6MJsVckyCjudaLGidG493IWdI1cNYvigkTJrklyTImWsJ3mYtF410fJbwoxksoQXRp0ybPxaht2/ApcwhAAAIQyBICCC1ZMpB0I7kExrmbou4KrOlK/E1bcs9EbRDIEQJKoSqXIIkrX3wR6XR4IKlSxUzm9bJaOfJIc+YGiCvlcFl89913pmCl37vgwhJQJJzo+y5YhQTrj/IWSja69LqxYkdYlpgTJok5smYJU7BqCYJIOeCLnkICVLDYUVtVgkWN3FEkzFR1gqFcV/bEiiHKLVUL8b/py13clSDAaC53pCDEKL11QSXeIqaxixsVxBfNJcBoauzEmUruejUF9JboovnKlXnVSnhRCnrFdJG4rO9ACgQgAAEIZDwBhJaMH0I6UBYEbrnlFvvLX/5ibdwbp0/1gEiBAASKT2DChIi4IoHFPcC4p/i8OmrVilityIReFiwq4U1vZI2/pSAgCxQJKRJRfvjhB5N4IZFCgoSsMvTQX5oiKwDVGSxagvWHHj6D6CGrFok0EhuCeCMBQsvBlUdz7VdFYluSi8QjtVECUnBXUnuDy1JwWwpuSsGKRX0RK63roVyijtosdyOxU3tLUxRcXVZBOo/6v5sL5FyzZk2fylgZdCipJRAvxCxZssS+cd9fsoAJVjBa1yRLmUQlXoSR5ZMXYZzwonlHd221clY1tT/5xHaIjTOj70DFcdF3Ygiou9m6NtF52AYBCEAAAulLAKElfceGlqWQwIknnujCRoyy8847zx5++OEUtoRTQyDDCMyaZfb442bDh5sp/kqsuKIAtrJakbgS3PEQV4o9wOtcylk94ElECdYUEgUkcEjYkGhRHDFAIoTEGFllBDFGwkKsUCIxIFhmKLtLrhfxX+msEuSWElypgvtREJtkESSRSeJMUYuEoFWrVkWFMY2nrGFkCSOLCY0DJbUE4oUYWb/oepAlTJhrWZP+PxOVzRFb/Ed7u7/nOuGzlxP39nNjHy3hu7FTpzzRpVmz6McsQAACEIBAehNAaEnv8aF1KSIgf2sF0xs8eLCde+65KWoFp4VAhhBQpo0nn4xMn32WX1xp3TpPXGnVKtKh8ACRId1LVTP1wP2Fc7NSsE89zMtNRg/dxbH+kNVGEGNkQaE6ZJmhemRFUbduXeKMlMMAyyoiWBfJ0kYWQcGyRqeXSBasZjQ2BRUdK1FMoo4EnWCdpHFs0qRJQYexvZwIxIsw+t+LFWAkxMgqRnMJNKEE4aWy23CMm5wTkfV0k9Z92fyd+YMTZFY64WUH9zKo3umnh0+ZQwACEIBAGhJAaEnDQaFJqSUgs24FvVOZOnWq7b///qltEGeHQLoSGDHC7KmnzF59NdLCYL2iwJCnnWY2cKC51/C4BG1l/PTgLEFF8VIkqMhVRWJKYQ/coUp9X+mhPTx4S0SR5ckee+xhckOpJRctSsYRCG4pEmdkaaRrolKlSj4Ib2Gd0fUgiydZOMW6JenlwV6KA0JJKYF4IUYxYJS+es6cOX6SAKPluW5SOdxNEl00yfIlWpzw4uRte91ZOH3StKn91L69t3hSsF5ZPrVs2TK6KwsQgAAEIJAaAggtqeHOWdOYwKvuobGXAnO6En9TlMbNpmkQKB8Cirsi65XnnzcXQTXPesU9BNpJJ5npLWvXrpG2bH4LWz4NS/+zyBphxowZXlDRsiwSJKhsLXONXHsUsFNuJXLnkeuOgmw2b948/TtNC5NKQKLa7Nmz7VuX0UYCnayU5KKka0LzwoqO1XUk9zCJeLKA2XfffQs7hM/KkUD8/Uas6CIx5hdnLdjYuWYe5MawY0y7FPnqOzc9675PnnHzqZs/k7i2zz77WDPnbqR5UyfIaF6iOEDuWnNfVptrZgYBCEAAAkUhgNBSFErsk1MEbrjhBvvHP/5hBx10kE2aNCmn+k5nIZCQgDN1t6FDIwKLCwCZL+7KUUdFxBXFXtGDHuKKR6iHWgXSlguiArLKGkFWJoUViS9yNZB1imJzaH+9nZaoQoHA1gjIJUXWEBJTZAUjNzFZNxUm5EnEU+BkXXMSX2QRgRXn1kiX/+dBhAkuRt9+/LFtHDLEqroMRjXcd0woEl2UJ8nZGpqLkuWX3cyLupqrKG6QRJd4AUbr+t7ZoshSsV07c4HrzBo02OJjNkAAAhCAQGICCC2JubA1hwkc61IsvvLKK3bxxRfbfffdl8Mk6HpOE3BBPn1AW1mvfPhhfnFF7nSyXDnjDHPpaxBX3IXy0Ucf+dgLctvQg0xhaXwlpgRrBMXY0L568CnsmJy+Ful8qQgo1s/nn3/uLakk+m3t+pTllMQXxZCRQCjxpZ0etCnpRSC4asrNSC6czzh7Fmf5Eoq3dHHfz687Ae0xJ/x+pODkCUpshqR69epZixYtopOs5lq776sKsvJ1WRjt7bexbEnAkE0QgAAEEhFAaElEhW05TUDxWeTnPmzYMPcc6R4kKRDIJQKjR0csV/T2UiXczNeunRd3RS4rOWy58pkz4ZflgMQSuWsUZoqvh1wJKwp0KiFFKeNLm1o5MjD8hUDJCcjiZfr06T5FseICKZ6LgiMXlq1K6cJlAaPMRw2cZcOBBx5Y8gZwZHIJhO9pZ+niBfJnnzVbujR6Dokuv3XsaIu7dLEpLr305050+fLLL00xYjTpGogvQYAZ6j44Y3P9i5yV3ZvXXWeN2rb1cWAKs5aKr491CEAAArlGAKEl10ac/hZKQDeSyt6gMnPmTGIgFEqLD7OGwOTJEXFFwW1dytqouOIsM3w6Zlmv9OgR6W6OCSyzXEwEPZAola8yw8idJ6F5vaMj4UXCigKXKgitXDAIRps1/yU50ZFp06b5jDgSB+V6pBcPsoApqCgjlkQb7aPfTl3zxUlnXVC9bC8FgSC6jBsXEV0kmiueVij6Dnff57+fcopZnz7mlDOf2Uzfc2GS+KLl1UpT7Y6Ljc4y1R2vIL0uaov/Poy3gNG6RDsKBCAAgVwngNCS61cA/c9H4KWXXnLPlb39g5RuHikQyFoCMiNX3BWZnLvgmlFxRR0+3N1G9+9v5lKIuieonLJe0YOmRFb9/0tU0dv7REVvgBULQ0UPFXq42JtYKolQsS3DCSgQqx66db0rVohiuRSWEUsvLOR2VNtZArXnigAAQABJREFUwXXo0KHQGDEZjib9mx9El5EjI6LLiy/mtTmI5oqvJdHFuU0rzlaIB+N3dL8R25x1Vt4xm5c+dfMgtoQPgwWM1hWcuXXr1taqVavo1NZZwVAgAAEI5BIBhJZcGm36ulUCf/vb3+ymm26yLs68dvz48Vvdnx0gkHEEXPBE+89/zMaMiTQ93IgrHagsVwYMMGeGkTPiSlGEFYkuSrOrDC9y+5GooowtFAjkKoElS5b4DFpLnXuKYroUFuxZGZIUbBfhJcVXi77r5SKkjHHDh0firYQmSXRx8aLshBPM+vUzU5Bz7d+tm7mbobBXvvkGl8HolSuusKkuCLPEaaWoV6ak+BIrwOi7U+KLRJj99tvPLxfmehlfF+sQgAAEMokAQksmjRZtLXMCPXv2tLFjx9qVV15pgwYNKvPzcQIIlAsBmY0/9pjZgw+aCy6SZ73iLDb8TbUEFgW7DG84y6VRqTlJUYQVZf/R23u5CCkdKoFAUzNWnDWzCMht7kMXOFsijGK9FPQAjfCSBuMqEUUxXBRAV9OUKXmN0u+As0jx7qISZAorLubU7wqQ67JbqSiGj2L/KPiyvmvDslzRYkus+CLx+oADDvDfs/qu1XJB105sHSxDAAIQSHcCCC3pPkK0r1wJKBWmHrJGuFgVffv2LddzczIIJJ2Au+F1qbMi7kHuBjjqHnTIIWaXXGJ20kmRU2axwFIUYUVuQLJYqVChgk95qoC1FAhAoHQE1rjMZZMmTfLxPxRst6CHZ7kaySpGFi8KsEuA1dJxL/bREl2UrShkLpIYX5yi70uXatoF6Ml3VKwL0qJFi7zwIgFGkwQYWcDElyDAyG0zXnzR9UGBAAQgkEkEEFoyabRoa5kSmO/MXxu6aPwqyiiilJYUCGQkgRdeiAgs772XJ64433vvGnTppWb77pu11itFEVb0ACiLFQXwlCm7zNgpEIBA2RLQSwxZvMiiRVm4lEo4UYkVXhTjRfE+KOVAQIKLiktV761cHnjAnL9kZNvW/rq4PT71c5zYkuiwWAHmk08+8S5oQXzRekHWLwrMrOtBVi/t27e3ji6LEqJcIsJsgwAE0oUAQku6jATtSDmB5557zluxyNdcD2IUCGQUAWeRYQ89ZPbww+Zs9/MElsaNzS66yOzMM80FUsg6gWXdunX27rvvencFmaBXqRKbHyMygsoGpKxBElZaulg0ig1AgQAEUktA/7uyeJHwogxH9evXT9igILwoPbosXhBeEmJK7sZ33onEZylOrRJb7rorEuerOMe5fWPFl2XLltlnn31mU6dO9XOJ5wrGHFuC5YtcOzt16mSdO3f2c2JnxVJiGQIQSDUBhJZUjwDnTxsCV199tY/L0sOlPXzjjTfSpl00BAKFEvjgAzO9eZSfvUp4K6kMEhJYlJY5y1yDZH2mN+OKB7B3gkw/eiMqYUUZgySs7CsLHgoEIJDWBBR0Wv/XCxYs8CnSCxJewudKJY1oWgZDqt8QCfPDhhW/cv3WXHaZ2Z13Fu/Yb74xGz3a5Yz+wZyPkTkzQ++K9Puhh7rc0lVs/fr13uUoiC8SYqbExJUJwossXA51x0h8kcXLwQcfXLx2sDcEIACBJBJAaEkiTKrKbAKHHXaYzzR03XXX+cxDmd0bWp/VBBRv5emnI9mD3Fu/qLgiE/uzz44ILHXrZpXA8p5zg1KaWQWo1Zvt+BIevkJGi/jPWYcABDKLgKwcZK32jR7CXVGMDsV6iS1yAZRLkgTXbsqQQyk9AQktTrDwokdJapPY0rWr2ahRXiQptAonmNjll5sb6Mhu4UWB1lSPLBQl3Fx/fbSaYP0ShLn333/fJk6c6EU6xduKHOqOdWVn5zIrdyNZvEh0kQCjWHwUCEAAAuVBAKGlPChzjowgoECYGzdudPcGo6x3794Z0WYamWME3Jteb72iwIMuw0dUYHFZGuzCC80GDowAyQILFrn76CFLD1IKjCiXvtgitwOllpUbwSEuuK/chigQgED2EtADtqxN5Uoky4X4+Bx68FbGI7kPyqpBMT0oJSAwdGjEoqUEh+Y7RGLNyJER0SXfB5tXdB6XHtoFZUn0ad42/Z4p4O5bbxUo3ATxRW5GEl0kvmiSW1oowepFFo4SXMKUyCoyHMMcAhCAQGkIILSUhh7HZg0BvSlv2rSp74/ejBcUpC9rOkxHMouAXNnkHvTKK3niinrQv39EYHFxC7LBPUhZKGQa/uuvv1qDBg22GKPFixd7MVT/qxJXKBCAQG4S0IP1p59+6jPX6AG6riz44kqwcsPFKA5MYauyKNGLJrnxJKNIJPnnP/NZpPhqZYnpgtpGXxYU5Vxt25q5YLlFKUF4kdASLF40lxATShBedL/Xs2dPP3Xv3t27nIZ9mEMAAhAoDQGEltLQ49isIfD888/bH/7wB5/eVb7AFAiknIAzh/cpMx98MJJ6M5hUK1PH+eebnXuuOTOOjBdYZs2aZZMnT/YuAfEuQT///LN/ey13oYMOOihhPJaUjxMNgAAEUk5A1m1yL5QbkVyM9J0RW3AxiqVRyLKLf+XSL+bfoUuXvHW58hSUWUi/UbK63Ozq5Q+Sa5B+y3RMSAGt/ZTVUecqTpFo849/RKbiHOf2DcKLXIsUgDmIL/rtCfd8QXiRi5GEF8XrU/BlCgQgAIGSEkBoKSk5jssqAn/961/t5ptvdm7FXe0dRdunQCBVBFzGBReVOZI9yLnHRN/4HXFExHrlhBMyXlxRBomPXApRpXiNF1dWOZcoTXpYkvl/xYoVUzUSnBcCEMhAAnqoHjdunA+qW9VlwonPUiQXYVnH4WKUYHAljMiVpzBBJcFhW90k8UUijGK33H13JC7LVg9KsIMyG82bV6ALUYIjEm4Kwos+nDBhgndJGzt2rDOYiVjMBNFF188R7rdXwsuRRx7pf5cSVshGCEAAAgkIILQkgMKm3CNwzDHH2JgxY+xPf/qTuwdwNwEUCJQ3Ab3du/VWs8GD88QVxSUZMMDs4ovNmjTJaIFlzpw59oHLkKQ0rnvttVc+ugsXLvTryhDUTubkFAhAAAJJIKAHarmLfP755762RG7BwcWIQNpJAL61KmTN4hIPRIPfbm3/+M9l1fLii2bHHx//SanWg/AikV9xgDS9+eabPuaPKg7CS/PmzaNuRl2cpY+C7VIgAAEIFEQAoaUgMmzPKQJ16tSxRYsW2eOPP+7iiQ7Mqb7T2RQTmDnTXJqrSHpm3YSq1KwZybSgALcuRXGmxl9RGmYFJtRNqv7HYovEle23397dcx+2hVVL7H4sQwACEEgWgWXOYlDfSQq2jYtRsqgWox79xm27bTEOSLCrYr7IhagMSxBepk+fHhVe3lIw3s1Fv2lyT5OVy4knnmh6WRcfsD3syxwCEMhdAggtuTv29HwzAd1wyTxURYE4FTiPAoEyJ/DhhxGBxVlSRd2DXIpSu/LKiIuQ3txlYFEqVj3IqMSLK8oWohtYBbJt0KCB34c/EIAABFJBQN9Fb7/9tgsVMt+n/I3PUqTYHYr90rhxY5P1AiUJBJIhtMh9VlYt5Vh0rcjlbPz48VE3o9mzZ/sWBGuXo446yk466SRnbHP8FhmxyrGpnAoCEEgjAggtaTQYNCU1BPSWQj64KuEtRmpawllzgsBrr0VchJxfeFRgcS4zds01kSxCGSiwKLODUjH/9ttvW2TsUiwEZRFSgEE9sFAgAAEIpBsB/fbPmDHDPnMxSvQ9Vr9+/XxNlEuJXsq0cWmGNVFKSCAZQousWWTVkqIS7hP1UkGJFEaNGuVjjqk5QXTp1q2bt3Tp7TI41apVK0Ut5bQQgECqCSC0pHoEOH/KCdxxxx121VVXmfyzY1P/pbxhNCC7CDz3XERgUVpL3WyqKKPBtddG/M0zTGCRdYrElf/9739biCvff/+9z+TQ1qXjbN26daSv/IUABCCQIQTkYiRrl19++WWL77clS5Z48bhz585kQivueOq3T5abCoxbkqLfyTvvjLjWluT4MjhGwoteKIwcOdKLLvpdVAmiS6dOnbzoImuXeCvPMmgOVUIAAmlEAKEljQaDpqSGQP/+/e2pp56yM844w4YNG5aaRnDW7CXw6KNmt9+eP0WzLKgksLi3Xu5uLKP6/tJLL7mkFKu3eMBYuXKlrVmzxvbdd1/r0KFDRvWJxkIAAhBIREAP0SGQtwKf1lT8rJiiQLqK1SELhurVq8d8wmJCAhJaLrvM7N57E3681Y36vVTWoQYNtrprKnbQ9bJixQovuEh4UUBdlSC6HHDAAVHRpZFSXFMgAIGsJoDQktXDS+eKQkCWLAp4JsuWK664oiiHsA8ECifgfLntoYfM7rrLzFl+RC1Y+vQxc6nEne15RgksU6ZM8Sb1MoGOTbcsU3rdVDZr1sz0dpcCAQhAIFsJ6CH6448/9vcL1apVi8Z2C/2dO3euF2IkulSoUCFsZh5PQBn2GjaM31q09a5dzd55p2j7pngvXS96+TB69Ghv7SLRZdOmTVHRRS8kzj33XOvXrx/XS4rHitNDoKwIILSUFVnqzRgC4U2DYrXoBokCgRITcMKDf1N3331mzsIjKrAoRbMsWPbZJ2MEFlmoKMWlbhbj0zHrgUIm0D179iwxKg6EAAQgkKkE9L0YAukqe1GssLJhwwafFnhv5yLDPUWCEXbsSmTVUqWK2aefmnc9SlBtOm/S9aLgyq+88ooXXV5zsdq0rvtPvbyQ2HLOOedY+/bt07kbtA0CECgmAYSWYgJj9+wi8Kn70W7Xrp3vlNwhquiHnAKB4hJw/vw2aJDZww+brVsXEVicObmdfXYkyK1SG2eIi5DeuskcPj5wreISKEhkjx49LD47R3FxsT8EIACBbCGgB2aJLopNFe8OovsKTbKcldsIZTMBiS0DB5o98UTRkOj30wWdNWUcyvAi0UUZjEaMGGGPOtfiSZMm+R5JdFFMM1m5nHbaaT4TVoZ3leZDIOcJILTk/CWQ2wCGDBninoXP9m/nlTmFAoFiEZAJ9K23mg0enGe9Urmy2UUXmf3pT+YUiYwQWGShMsFlQapUqZLtvvvuUQR6gJDAst9++7m4vS5wLwUCEIAABAokIEtAWcfKqqVBXBwRpYr++eefTcFR4wWZAivM5g+KatkijhJZsjDbk0SXmTNnuluIwfbkk096UU6Ci+L+nHzyyd7KBbfcbP4noG/ZTgChJdtHmP4VSuBP7mH4XheU7ZhjjrGXX3650H35EAJRAk58sOuvN3vssTyBRUESJa5IZNltt4wQWF588UWfslQm7rFFaSslusg1aNddd439iGUIQAACECgCAb28GT9+vG277bZbuF8uXLjQdtxxRzv88MNz20JQYov7vfGutR99lD8b0fHHRyxY5HrrxIdsLhJcVJ5++mlv5RKbuah58+ZecBngOCg2EAUCEMgcAggtmTNWtLQMCHTp0sW/yf+rC1B64403lsEZqDKrCKxaZXbTTZEgt5tvjNxrS7Mrr4wILBlwMzh58mT7/PPPbc8998wnoqxyfVPgvkMPPZS3rVl10dIZCEAglQT0EP3FF1+YvnslYMdnJ5JFYZMmTfx3byrbmbJzK2i8fkMvvtjsnnvyNyMDflPzN7j0a7pelOlKVi7KhLl8+XIfy0VZr8466yynSV1LmujSY6YGCJQLAYSWcsHMSdKVgN7Wy8T3+eeft5NOOildm0m7Uk1AcVdcViq7806zH3+MtMYFQLS//93s/PPT/m2bbtQUe0U3cIkC29arV8+6d++easqcHwIQgEBWE9B38MSJE+3LL7+0PfbYwwsvocNy05TbyFFHHZU78TkcDxcoz1xaO3Nvu8yuuy7gyPm5rhUV3Z8+8sgjNm7cOL+ua+TMM8+0v/zlL1vEUvM78AcCEEgbAggtaTMUNKS8Ccg9IrhMfP311/xglfcAZMr59Lbt3/8291op0mKZ7v75z2ZXX532Astn7uZVqZnjA9suWrTI39BLXCGwbaZciLQTAhDIJgJ6kP7vf//r3Tfr168f7ZpSAOs7WoH6999//+j2rFxwgddNVqGyXJkxw6xFi6zsZmk7pWtF4pwsr+VepCLBpW/fvu59z98dNriVljHHQ6AsCCC0lAVV6swIAi+99JL17t3bp2VU0E8KBPIRUPyVG24wU5BkvVlyKRh9SsqrrjL3ujHfrum2onhDcgWKvXkPgW2V/aJDhw7p1mTaAwEIQCAnCegheoYTGeRaJJfO2FTRygBX2f3enJCEbDvDhw/3cbdiA56nHLhchS67zNyPVSRWS8oblN4N0LUy3wXhv/nmm12IOHeP4ooEl2OPPdYLLmS2Su/xo3W5RwChJffGnB5vJvDPf/7T/u///s8OPvhge//99+ECgQgBZ6brA926t0deYNHWSy81+9vfzDnXp60Vyw8//GCvvPKKyY87NgbA4sWLbbvttvM3YrE38Aw3BCAAAQikF4EfnWvqa6+9Zr/++ms+N09tV0ajksbQUsyP7777zhQPRpkW06LoBcZhh5m9+67ZNddEMvilRcPSvxESXDSet9xyiyl7pqygJLgouLJiDnbt2jX9O0ELIZADBBBacmCQ6WJiAieeeKLLGDjKLrzwQnvggQcS78TW3CEwdqy5OxSzTz7JE1gGDjT717/M3fGmrcAya9YsLxQq9opSQoYyb948b9GiGy8KBCAAAQhkDgE9SE+aNMmn/o13/dR3e926dYsVV2vo0KHWQC46rkh8P/XUU/1ySv844Sj68uKDD8wOOiilzcnEk+s6WbZsmd1+++328MMPmyxXJbh069bNr5NGPBNHlTZnEwGElmwaTfpSLALNmjXzPq8PPvigXXDBBcU6lp2ziICLYWJXXGEuQmGewNKnj7lXReaCm6StwPLGG2/4G+a9Y1IzK7CzAirqbRY3WFl0jdIVCEAgZwl8//33Nta9CFA6aAXQDUVBzn/66SfvDrS1WFtjxozJl2VO1jF62ZTS8vjj5tLomO2+u9mKFSltSqafXIKL3IXvcEH79eJQFlASXP7s4skphgvWrJk+wrQ/UwkgtGTqyNHuUhPQj5DKhAkT7JBDDil1fVSQn8CTTz5p06dP9ybQ4RNZXLRv3z4p/uahzhLP5Rrk0iTa6NF5Aosy70hgadMmLQWWtWvXevegbbfd1mrWrBntut5o/e9///PuQbvttlt0OwsQgAAEIJAdBPQwrcwzCxcu3EJIl0tQ8+bNvSt0fG9feOGFfO6k+lyWD7Vq1fIBd+P3L4t13Q98/vnn/nfK1+/6cq5zdW3uXJrcmy4z98KLUnoCukYkoikFtGK46D5X1q6DBg3ygXNLfwZqgAAEikMAoaU4tNg3awhMmzYtGs1fP0rVlEmGkhQC7zp/a2VSqFSpUoH1rVmzxo4//njr0qVLgfuU2QfuJtWnZXY3ftEYLAccEEnd3LlzWgosCn739ttv+xtjpSQPRdsVPPHII48Mm5hDAAIQgEAWE9DDtOJzSHSpWrWqValSJdpbZSuS5cvRRx8dtWBRlho9bMeX8hBbhg0bZl988UW0LaENO/zyi113001+dbCzID3Yxcvbd999w8fMS0lA14iCK8s1/tNPP/WCi+L7/Oc//yFDUSnZcjgEikMAoaU4tNg3awgo+v5pp53mH1Llr0xJDoH777/fv00pSm0yeVb2m2RkUyjK+bxpsrIIuTZGBZaWLSMxWJTRYbOFU5HqKqedxo8f74MXxroBbdy40af+7NSpk3+DWU5N4TQQgAAEIJBmBPRArSDoemHUYHMMFjUxZJnTS6TCXiSVpdhS2P1ACxdb7ORnn7Wfd9rJ/v2Xv9jPP/9sPXr0SM3LlzQb02Q2R9fH4MGDfYBcXSOycLnUBfe/wd0LFfYyLJltoC4I5DKBbXO58/Q9dwkolaJKSz1oU5JCQJYs+iEvatnJ3WDpjYuOK9PifJV9xiDFMrnvvojIomUXHND5NpnL8Z12Iov86Z966imPJYgsK5wPu95WduzY0c455xxEljK9aKgcAhCAQPoT0IOzUvsOGDDAuwfJhUhivCwfFUS3MJFFvdN+s2fPNmUlSmaRJUth9wPNnNCi8lXTpn4uKxzFoZEbLCV5BHR9nH/++X6Mzz33XPeO6Xe79957rUmTJu4WaGjyTkRNEIBAQgIILQmxsDHbCciUVQWhJXkjrbdqxS0SW1566aXiHlb0/eX33aiRmUyU160z53sTEVvczai7M007gUW+9CNGjPA3v3Xq1PH9/Oabb1zT19lJJ53krbBizcSLDoI9IQABCEAgWwnogVquN0rdrJhzCpS7dOnSInVXbkVfuphlnyjjXhKKxBLVV1jZZ/Pns11cmVAktiiWCCX5BKpXr+6zEE1xwf8VJ08Bls9ygYhlRSRXbgoEIFA2BBBayoYrtaY5ASxakjtAMhGuWLFiiSqVcJB0q5b33zfbbz+ziy6KZDOQD7vEFgksF1+cdgLLM888YyNHjvRvJBWgUEVvJhXYduDAgXbMMceUiC0HQQACEIBAbhHQb7GEebkFFbXIskXCTDLEFllK6CVKQaWRS0+9o3MdVgkWLWFftT3cn4VtzJNDQGJcu3bt7MMPP7R//vOf3rrlzTff9PEKlbiAAgEIJJ8AQkvymVJjBhCY537oVQi+lpzBktVFacrrr79emsPzjnUBAu0PfzD3Ss/c3VrETcgFg3N20WbXXWcux2Hevile0lskZWKQRY8C2u6uFJeuyIRbqTr1ZlI3RRQIQAACEIBAcQgo1W8Q7Yt6XDLEFrmmbM2SJrgNfe3chn7Zfvstmvfqq69usY0NySMgweX666+3d955x99r6P6tdevWNmTIkOSdhJogAAFPAKGFCyHnCMS+sWnVqlXO9b8sOqzUwqUpmzZtKs3hZhs2mLtzMJO/9/PPRwQWZTSaOTMS/HaziFG6kyTnaJl0P/744/bee+9Z3bp1fcYIBQKUwFK/fn0ffwWXtuSwphYIQAACuUhAD9ESTopbgtiiQOwlLbvsskuhhwahZXazZgn3028kpWwJSGzp2rWrffbZZz4luAQyxX47/fTTy/bE1A6BHCOwpZScYwDobu4RCGapioFRkhuR3CO29R4nO26IfLzlSiP3Gd0A6MZNAf62d2+/Dj744PyZilwGKbv2WrNvv400VJkXbr/d7MQT08pFSOk433jjDatdu7btrWC8rqhPS5YssZ49e3pfab+RPxCAAAQgAIEUEQj3RfoNPlG/o0UoShscfq8rV65c4BF1XED3ioqX5sqsmPgssQeU9sVNbF0sF05A9yMTJ050Br/X2S233GLKyKl75P/+979Wr169wg/mUwhAYKsEEFq2iogdso0AgXCTP6I//PCDt8xIRs3KVqBAevLxjk0/qEB5KtOmTbMJEybYaS7wX7tHHjH76KOIBYve3v35z5EMQ+5tTbqUr7/+2segUQaIkEHoR5cJafXq1T72SnAZSpf20g4IQAACEMhcArJGUfDT0hb9NsmdREFTCyr6vdY9lcSZ2N/rgvYP1iwL3UP8xgIsX7bbbruCDmd7GRCQdcvNN9/sgyj379/f32PJlUjB+Q8//PAyOCNVQiB3COA6lDtjTU83EwhCC/FZ0ueS2HnnnX1j/vrXv5r8hQsLpFfBuQn1dymh2zkzVxfVLSKynHqqi6r3ldnf/542ViwKLvfoo4/6lMwSWVQkrsiy5bDDDvPpOBFZPBb+QAACEIBAkgjoNzRZpWHDhlZQqmYFwde5ggVMUc657+agq7HZhuKPS4ZIFF8n64UTkNhy9NFHe1eiDh06mF6ede/e3UaPHl34gXwKAQgUSgCLlkLx8GE2EgiuQ8TBSN7oylJj5cqVJa7wyCOPNN20BauVgio6eNIkO9S9rdtpc8aCJXvsYRvvussa9uuXNgLL5MmTTSKLmASBRT7nv/32m/Xt27egrrEdAhCAAAQgUGoCO+ywQ7465CYdfovCB3LJjc/2t2LFClu32a1H7juyLFFgdsUOU8wXubyGAO0FiS+h/kTzGq7+yptTCc9s0SLRLn5br169CvyMD8qWgOLGTXL3Wd26dfPXR+/evW3MmDF21FFHle2JqR0CWUoAoSVLB5ZuJSagdIcLFy70HyK0JGZUkq0Xu5TJV199dYlSPOvNSTMXFE/xSwqyZGk4f771euUVq7ZZzFnvzJTfdiatn7Zta2s//dQGyaIlxeWtt97y15ZuRoOL0OLFi03WOieffHKKW8fpIQABCEAgFwicdtppW+1mCIa61R3dDnqJopcHs2fPNsVf0e+bXlgpFXNxSgsFp3dlWc2atqaAOC7Kxoe1cXGoJn/fbbfd1osrsrz9+OOPTcKX3NEOPfTQ5J+MGiGQ5QS2car271neR7oHgSiBj1w8j4MOOsiv681NcUxeo5WwkJCA0hQrfkpxyk/OMkWBYD90LkCJMg/t7lJUHvnaa9bYxTkJZVLHjvauuwH4aXPMFm1XwL5U3Zx98MEHPmNQbOA4iXlyC+LNXBg15hCAAAQgkOkE9MjwwAMPlMiC9ZJ777Vq7jd9vKwlEjy0637gVPfSJFW/5Zk+Nsluv1KES1wJMXjGjRsXvX9O9rmoDwLZSoAYLdk6svQrIYHgNtTAZaZBZEmIqMQbTzjhBC8uFLUC3VTts88+1sWlYVaWodiyk0t33MNZuFzsbsyCyDLf+Yrff+mlNtYJM7Eii46TaWt5F6VFVKBApWYOIst8Z3kjk+szzjgDkaW8B4TzQQACEIBAmRNQdqHilprff+9FFh033QWyjy/hpQsiSzyZ1K1Xq1bNJK4oTo+swXv06GGffPJJ6hrEmSGQgQRwHcrAQaPJJScwc7PpKm5DJWdY2JFyIZJly/vvv1+oWbHchSTMSGRRiU0H2da5AnVzbji7uh92lZXOMmSsi+HyVZMmfj3RH9VXXkVZhJT1SObTugFRkQWLfODPPPPM8moG54EABCAAAQiUOwG5HRW3tHSuRipL9tzTVrkH+NgSfz8Q+xnLqSVQq1Yte/PNN61Tp062dOlSb4Gs2D7cQ6d2XDh75hBAaMmcsaKlSSAQLFr4kUgCzAKqkIBy/PHH2xNPPOH9umXhoRszmRwruN5+++3nLT7ib9bqLFpkx7z8stV0P+YqP+20k01wQswHBx9cwJnyNidyO8r7tARLytrgrGlcCH5zzsm+gl9atrQv3U3iry4yf6P99/fbFrk2y0VIFiwUCEAAAhCAQLYTiH0xUpS+1tlrL2u7WWj5wv3+ywp0g8seqPhlCoQv95T4+4Gi1Ms+5UNAL5TGjh3rx0nxehRz7lP3QixkiyyfVnAWCGQmAYSWzBw3Wl1CAggtJQRXzMN00zRgwAAvrsQfusUNlUt5fLyzgtlfosbmMrVNGxvnUgtuqFAhbCp0XtwbvwIrk2XMDTeY3X13JG10zI47uBvFfXWz6ExpF7Vvb585N6aiBB2MqYJFCEAAAhCAQEYTUMDaov7mKsD9/r/+aru6eB8qM5zb0MaNG+3OO+/061vcD/it/Ek3AnpB9opLSNC5c2cfFPmaa65x76LcyygKBCBQKAFitBSKhw+ziYCC3yoLjAoWLeUzsrqJip/ynfnpp82aN4+KLItcGsqH//hH+6+ziCmqyKL6qlevnq/aEq1IZHFB+syli3YKUcFVuM/2cimcew0aZFaOLksFN4hPIAABCEAAAuVDoDg5NOR6ssdmq9BvXergNZUqWSU3hfuC8mkxZ0kGgYOddfFf//pX/wLt/vvv91YuyaiXOiCQzQQQWrJ5dOlbPgKzZs2Krrdr1y66zEIKCCxYYM5m2Kx/f5frcZlt2mUXe9mJK4+ec44tdakfi1u6du1a3EO23P+ss8ymTt1ye0FbZIEjYYYCAQhAAAIQyAECEkgUn6yopZb7Pa/p3E5U5DakorTBlMwjoLH/17/+Za1atfJiS393/7baWSRTIACBggkgtBTMhk+yjMCXX37pe1TXvVWhpJCALEFcvBNzWYW85UjfvrbWWYhMatGiRI1au3Zt6dNB6o3biy8W//wSZuRmRIEABCAAAQjkAIGLLrrIZCG8tSL3opouQ9GOmx/Gv3C/+3I7CkHwt3Y8n6cfAYktzzzzjI/P8r3LJHWWXlBRIACBAgkgtBSIhg+yjUAQWpRSmJICArIAadvWzPn2ulyBZs5NyF5/3dyvttVwftslGRfd7F111VWl7syKSy4peR333FPyYzkSAhCAAAQgkEEE9LDdq1evrba45h57WI233/b7fbP33rZy++15MN8qtfTfoblz9x6kF2aujB492saMGZP+jaaFEEgRAYSWFIHntOVPYPbs2f6kJXmgL//WZtEZXeA7p4ZERBZZgCj+yeWXm8mVq2dPc87avrMKnqsMPkUtElmOOeYYkw94SYvSFj43eLBV35wRoUT1KENRTCDfEtXBQRCAAAQgAIEMISCrlK39Xu/hhJYQn+WzZs18auB93UsVSmYTkNB24YUXuvdmbb0LUTJedmU2EVoPgYIJILQUzIZPsoxAsGhp5n7wKeVEQL7Zcgm6446IwCIfbZcW0K9XrLhFIy6++GJr0KDBVs2S5S505ZVXltgEWdmnhg4dajvssIM1dWkmS10ktlAgAAEIQAACOUBAD9tyIZLg8kOCoPA1XWyW6tOnR9yG3L77/O1vJf69zgGcGddFjX/IOqR768ceeyzj+kCDIVAeBBBayoMy50gLAtPdj74KFi3lMBwrVpjLfRwJeCsRQmmab73VbNo0M5e6OVixJGqJLFtuu+02a+AEFwkquokLk7IdKPDt7bffXiJLluXLl9ujjz5qK1z7VL/KkiVL/LxUf7BoKRU+DoYABCAAgcwioIdt/R4rVbN+Tzdt2hT9ra7i4rPUeOutSIdc4PvmLmMNJbsIKAvR8S6Jge7L/uaENI0/BQIQyE9gG/cPUkge0/w7swaBTCXwjXvY39v5CKsscBlv6tWrl6ldSf92DxkSicOycmWkrcowoG2bhY3idCDR15Nu7kpSnnappKtUqWK77rqrP3zp0qUm0+Zu2zq9ubRZEN55x9wdZ0maxTEQgAAEIACBjCcQfq+/++47mztnjnV2D+HbK2iusx61M87I+P7RgS0JyJpFVuK6L1NGIqV/pkAAAnkE3BMGBQLZTyC4DamniCxlNN7z5pmzDTZzKZpNIkuNGmZPPGGmt1olEFleeOEF/+OtH/DYqbitf90F3B0xYoTttddeXmT58ccfvRXLKaec4rIzd0uOQFKC/hW3H+wPAQhAAAIQSFcC4Xf6HffiYfePP7btnUWqL717p2uTaVcpCTRt2tTHa5HIdsstt9iqVatKWSOHQyC7CCC0ZNd40psCCAShpXXr1gXsweZSEbjxRnM5ls0mTIjEYnHuP6bgw/37F+omVNg5f/rpp8I+3upnIQ7LzjvvHHUzmutSTXbu3Nn69euX/3j35q3ERdcUQkuJ8XEgBCAAAQhkD4EKzlU46jZ0wglmu+2WPZ2jJ/kISFy74YYb/Eus9S6bpNzIKBCAQB4BhJY8FixlMYEgtBAIN8mDPGWKWcuWZtdfb6bsQg0bRixYHn/crFq1Ep9M1iyyQClJURwWBWaLjcMigUXB+c4++2zXrATt+sc/SnKqyDGlObbkZ+VICEAAAhCAQFoReO+996y6yx5YY+LEyEsWZzlKyW4CuqdSFiJZtTz00EPZ3Vl6B4FiEkBoKSYwds9MAqR2TvK4ySTYZQiyDh3MZs6MWLFce62Z88t2/jgltmIpbSuHDx9uH330kTVq1MhXpTgsv/32mxdYmjdvXnD1CtBbEsFEljuYRRfMlU8gAAEIQCBnCOilVvX337ftlM1vl13Mjj02Z/qeqx2VVYsyRqrIdeipp57KVRT0GwJbEEBo2QIJG7KRQLBoIeNQEkZ3zBhz0c/MHnggIrAccEAkm9DNNydFYFHQ2urVqxeroWNdGmnFYaldu7ZVdGmjla1I2YSicViKUpuEFgknRS1yN7rrrqLuzX4QgAAEIACBrCawl/sN3uPttyN9PO64iNiS1T2mcyJQt27daAaiu7gv4qKAQJQAQksUBQvZSmCdi3q/aNEi3z2EllKMskuzbKeeGnlDtXhxxO/6nnvMJk82a9UqKSLLShdEV5mBQtF6YWXWrFkuocFQ23HHHaNxWOY4q5pOnTptGYelsIr0mXsrY3J5GjXKrH79gvd2aSu99cuLL5pVrVrwfnwCAQhAAAIQyBECI0eOtIrud1QWLf739PTTc6TndFNWLZdeeqkHMXXqVHdb6O4LKRCAgJHemYsg6wl8+umn1q5dO99PWTrI4oFSTALjx5tTLsycK44vvXqZPfigXmMUs6LCd3/00UetcePG+Xbq2rVrvnWtyDx1lBNEYvdVCu8DnHXNvgrKW9qirPcvvWT27rtmn30WqW3//c0U+FbB/SQGSZihQAACEIAABCDgX3p0dK7E+9x+u9kee5gtWwaVHCKgGC26/5rproH/Z+86wKyqru4WkF5EmvQiiIigYEUNoCZ2QcUSC3ajRhNbNDFF0RhNNNFoqn+CoLGLBQv2gooVFBUERJGqgkiJNBXNv9c9s9+8GebNvHLvfbes/X3z7p1bztlnnTfz7ltn77VHayGE21B1kkYEUo4AiZaUvwHSMPy77rpLAzGO88RVFy9enIYh+zdGCNxedJGowplLEwLBgCiWEqoJ5XLuBZA5NVh1ogXzCbKsRUUlA+iwtNbIkv3337+Gu4s8hOgdjBWES7aRXMlGg/tEgAgQASJABASC84sWLpRB550nrd57zz03/PGPRCZlCNx8881y1lln6TrUZl5BghqLD6QMEw433QgwdSjd85+K0VOfpchpnjbNVRRC5AoIB0SWzJghcuKJvkdzIEUIVYJqM4jcgmTp2LGjR7IgJewTTWGCDouvJAucGDPGuQJiJfvHHeUrESACRIAIEAEiUIHAiy++KI1VF80jWfCZefrpxCaFCJyg6WItW7b0Rk5R3BS+ATjkTRAg0bIJJDyQNARYcaiIGb30UpFddhH5+GORpk1dFAsE7oosuVyXBw9pmk5NArjQ1lml0SVIKVqv0TUgWWBYPdttt928SKW62i74/BVXFHwLbyACRIAIEAEikFYE2mhJ545PPOGGP3iwE8xPKxgpHndTfV485phjvFLP0OyhEYG0I0CiJe3vgBSMnxEtBUzyzJkiAwaI/P73LooF2jbQKIHIGVapAjCkDFk55urNf/XVVyqTMjmjxbJQQ5PxQHfaaadJu3btql9e+u8YK6JZsgR5S2+ULRABIkAEiAARSCYCjz76qLTUVN6tJk1yzwmFVO9LJiSpHRVShkaNGuWN/6WXXvKqP6YWDA6cCCgCJFr4Nkg8AtMrxExZcaiOqQa5ApIF6UEwRHa8+aZInz7u9wBe60oZ6tWrl7TSKj9r165VXb2lmrV0orqoPgZh0GU59VTXMomWIBBmm0SACBABIpAwBD7//HNprc9ZjaxKIDTcaKlFYL/99sukD02cODG1OHDgRAAIkGjh+yDRCCxatCgzvm233Tazz50sBLRajwwZIvLLX7oolr59RbQ8n1x2WWBRLNZ7rpQhOw8Ve5RrRtUohKMGahde6MaNTlBhiEYEiAARIAJEgAjkROBjTS/u2aOHdHj8cXeNVeXLeQdPpAGBw/R9gOc3pg+lYbY5xtoQINFSGzo8F3sE5s6dmxlDD30YoFVDANWEECHy2muOZAHZMGtWKETDHXfckTNlyLxcvXq1auqdLltttZUdCmY7frzIuHHBtM1WiQARIAJEgAgkEIHnVLut/oYN0g5VA5FefPLJCRwlh1QIAkgfOuKII7xbnn32WUHkMo0IpBUBEi1pnfmUjBuiqTCmDVWbcE3DEQ3vlB//WESr90jXriKaTysox4iHpYBtmlY06pyHsO4WYaTwILUMBBONCBABIkAEiAARyBsBaKW1V5Kl/jffOG2zESPyvpcXJheBEfo+aNKkiTfAhx9+OLkD5ciIQB0IkGipAyCejjcCSDuB5RJbjffoivQeH3r9+ok8/bSLYoEuyfvvi+y1VygkC1Y3EG6cr4GUCcygy4KVl5UrA+uCDRMBIkAEiAARSBoCSP31RHCt2hBFcJM2xSWN59BDD/XShyZMmFBSO7yZCMQZARItcZ49+l4nAhbRQqJFoQKpcOyxIsihBrGAqj1PPSVaO1mkefM6sfTrgif0oaymUs652v/ss89ynSr9OEiWAkif0jtkC0SACBABIkAE4o/AKn2maPzpp9Lq3XfdIg2JlvhPqk8jyK4+9Ljp9/jUNpshAnFCgERLnGaLvhaMAImWCsieecZFsdx9t4tiQXgvtFh+8INQolhs4v6tpE4+KUN2PbaoaBCIIZLn+ecDaZqNEgEiQASIABFIKgKzZ8+WHt27y1ZPPumGiGIDFJFP6nQXNa4DDjggc9+UKVMy+9whAmlCgERLmmY7hWO10s6pjWhZv17k7LOdHgsiQ7RUskD4VUN+pU2bUN8R41Rstnfv3qH2mbOzP/+Z4rc5weEJIkAEiAARIAK5EXj55Ze9kx0eecQt1pxxRu6LeSaVCLRo0UIGDhzojd3eL6kEgoNONQIkWlI9/cke/LJlyzIDTCXR8vrrIv37i6CykJbZk+HDRWbOFEF4bwiCtwY+SmyPHTtWevbs6eXr2vF8txDb89VANFH81ldI2RgRIAJEgAikB4FOnTpJ63fekSamb3bCCekZPEeaNwJ77rmn99z34osv5n0PLyQCSUKAREuSZpNjqYKApQ3hYD+Iv6bJfvELkSFDnP4IlN9vuEFEyzBq3k6oKNxzzz0yY8aMjBjx/PnzpXXr1rJ27VrB/CxZsqROf5o1aya+CeKCZEHKEIgnGhEgAkSACBABIlAQAhA3barPFR1Me0NFTz3Nt4Ja4cVJRwA6Ld/73ve8YTKiJemzzfHlQqBBrhM8TgTijoARLV26dIn7UPL3X4kMOfxwEZQshu20k8hdd4n06eN+D+kVVYUmT54sPXr08HpcsWKFNGzYUE455RTv9x122CHjycSJEzWjqZV8++23AuHbmjRckA++E8ZSilkZZ5IspaDIe4kAESACRCDFCKxbt07q6wJIO2ic6ZdpL0o2xXhw6LkRGDp0qHfyyy+/1MfS6Srjs2Pui3mGCCQQAUa0JHBSOSSHgBEtqUkbgu4K8mGNZPn5z0XefDN0kgVRLJ5QXgXJghLbP1DR3UMOOaTGt+bKitDjxYsXy/HHH68ZTsO96xD9gh/Yhg0bvG3RL8Bmn31YxrloAHkjESACRIAIpB2BdzRdqFu3btJBI2Trf/ONyBZbiKB6H40I1IAAUsy6q2gy7KWXXqrhCh4iAslGgBEtyZ7fVI8uVUTLj37kyjQjWqNtWxElO2TvvUPVYqkexfLFF1+o3m4bOf3002t9H3733Xfe+Y0bN2auM7LFDkBUrWhjulDR0PFGIkAEiAARIAKGwJu6eNN7662lAyoYwljS2eHA15wIQKdlwYIFHtHyk5/8JOd1PEEEkogAI1qSOKsck4cAIilgiY5oUZ0TGTBA5F//croje+0l8t57LnoDIb0hWU1RLPvtt18mOqU2N7baaivvdFsQRDms6LShYkkWiwrK4Q8PEwEiQASIABFIEwJr1qwRpGK3+OADaaURqF7a0DnnpAkCjrVABLJ1WkDS0YhA2hAg0ZK2GU/ReBMf0QISAfmuKjbr2ZgxIlB2ryAu3MFgXxHFMl796NChgzRRcTxEscAQxZJPFMrcuXOladOm3j3bbbedt/XtBWTJBRcUJ3y7apVvbrAhIkAEiAARIAJxR+ARLeXcuFEj6fDgg24ow4aJ9O4d92HR/4AR2Hnnnb0eENWCQgg0IpAmBEi0pGm2UzZWK++cuIgWFaKTH/7QVc/RFSbp2FHklVdELr881FShUqJY7K34/vvve7sQ1+vjt2AvSCgV4ZUHHhAZOdK65JYIEAEiQASIABEoEIEGDRpIA/2s7vLkk+5Z46yzCmyBl6cRgeyIZAji0ohAmhAg0ZKm2U7RWCHYZtY7SSsuM2eKoGIPNFigx6LpOV5EC0o5h2TVo1ggZouKQflGsWS7uXz5cu/XTz/9NPuwf/tIn0IVJqzAgXS55RYRrMLVZS+8UNcVPE8EiAARIAJEIBUIPPHEE1rBuZ10ePppN17VX5NjjknF2DnI0hGwhbQZFoFdepNsgQjEAgESLbGYJjpZKAKmz9KyZUsVxd+i0Nujef3NN4vsuqtIhfaMXHutiD78yJZbhubvvffeu0lFoX20ms++++5blA9YIYPZtqhG8rkJhEvr1qL1pUVQknLwYHeXPjjSiAARIAJEgAgQgdwIeIshurjT4a673EWnnZb7Yp4hAtUQ6N+/v64N/k8lBFVDkEYEUoQAiZYUTXaahmr6LH379o3/sJEehPKJZ58tgrShrl1d2eaLLw4tVciiWNq3b+9psWRHsbRq1apojK3sX0ekP4VlS5eKvPWW6w1pRdg/7zzRGoSVHkyeXLnPPSJABIgAESACKUVgpkbS9uzZU1ppqm/LZcvcc8ePf5xSNDjsYhAYgKINau+++24xt/MeIhBbBEi0xHbq6HhtCBjREnt9FqRADRzoUl+QKnTYYfikEqkQF6sNA7/O+R3FYn5NmzbNdjVQRyN1wrIJE1xPiARClaZBg0RuuEFEhX3luedcuUqQRxTEDWtG2A8RIAJEgAhEFIFXX33VS1VujZRlGFKWu3Vz+3wlAnUggMpD22+/vXfV22+/XcfVPE0EkoUAiZZkzSdHU4FAIoiWm25yJAAIANhf/uKEXUNKhQoqisUNBhlQrvz2559/Hm561/33OxcgKGyG1CL87L23yLhxIqo7QyMCRIAIEAEikGYEoKMGnTuI4PZ46SX3OXnmmWmGhGMvAgEjWlB1aNGiRUW0wFuIQDwRcAIJ8fSdXhOBnAjEmmhZvVrkhBNEHnvMCd5uvbXIQw+JLgnkHK/fJxDFgvLMPXr08JoGKXLUUUdJKWlC1X388ssvvbLQqzHesAyCuCZ0O2pUzb2CcIGFRGi5zvhKBIgAESACRCBaCEyaNEmDV7rJllbSeautnMB8tNykNxFHoF+/fhkPkT7UFSnwNCKQAgQY0ZKCSU7jEOfPn+8NO3apQ0inQarQo486kuXoo0WQPhQSybJU9Utu0co8fmux1PQebNq0qXe4SZMmNZ0O5phFsyBtSEV8aUSACBABIkAEiEDNCHiLK5q23BXPJLAzznBbvhKBAhHYARUz1ebOnVvgnbycCMQXARIt8Z07ep4DAUtJwelYES3XXSeyyy4iCxeKNGsmMnasyN13u/0cY/Xz8Asa6YFc7F69ennNAsdSKgrV5hvCRzt16uRdYlEztV3v2zkjWlDymUYEiAARIAJEgAjUiMADKhYPoqW1Lva0gIg8oj0hyk8jAkUggBLPqDy0YMGCIu7mLUQgnggwdSie80ava0Eg+594586da7kyIqegB3LssSJPPeWiWLQMnkCwddttQ3MQUSwgWFAKGyk9m2++uZx++umB9Z8thLvjjjsG1k+VhnVc8uST7lCutKEqN/AXIkAEiAARIALpRGD9+vXeM0mLO+5wABxyiAhSh2hEoAgEkIIGy35GL6IZ3kIEYoUAI1piNV10Nh8E7J842PPI22uvubQgEACoKvSjH4m8915oJMucOXPkDn2IsigWpFwNHjxYDjjggEChW4ioHbXFixdr8I5G74Rh0LmBqfaMHHig2+crESACRIAIEAEiUAWBl1T4FgtVm//3v9Jr6lQXzXLWWVWu4S9EIF8EUHmIREu+aPG6JCHAiJYkzSbH4iFg+izdu3ePNiJ//rPIhRc6gqV5c5HbbnPlm02MNWDv77vvPmmu/VrUD0iPk08+OeBeXfNfffWVt7Nhw4ZQ+vM6sbShkSPD65M9EQEiQASIABGIGQIffPCBl3rd+PbbneeIRjjooJiNgu5GCQF7JrfF0Cj5Rl+IQFAIkGgJClm2WzYE7J+4/VMvmyO1dYxUoXvucSQLBMKg6N+zZ213+HZuhVbeeVD7M/2aZcuWeeUbT0Clo5AMKUowP6sY1eo6QqAnTnSXMG2oVqh4kggQASJABNKLAJ6hvOcDjbLdbvJkF82CaFsaESgBAYtowTPoOi0XbgURSmiStxKByCPA1KHITxEdLBQBI1pCFVnN10mNGpFBg5zILVKFRo8Wefvt0EiWV155RZ5//vkMyQLB24N0lQrpQmHZfzUUuU2bNl53oZFhjzzihocKR/vvH9ZQ2Q8RIAJEgAgQgVgh8Oyzz3r+bq7PCk0+/9z5fuaZsRoDnY0eAtnPexZ5Hj0v6RER8BcBEi3+4snWIoCA/QPP/qceAbdENOfZI1mmT3fu/O1vIrfe6laLQnBw3Lhx8vXXX3skB6r+4AeCt0gfCtNmz56d6W7bsAR/LW0IYn5hlpPOjJQ7RIAIEAEiQASijQCeCzp27OhF2/awBQpEgVYsjkTbe3oXZQS23HLLTBSLLYhG2V/6RgT8QIBEix8oso1IIWD/wCNFtNx0k8iwYSLLl4u0ayeikSXy4x+HQrJ8/PHHKv9ym2YmudQk4LPddtvJwQcfXJZ5+/TTT71+EdnSsmXLcHzIfmAMp0f2QgSIABEgAkQgVgg8pKLxTXQxop4+J3TGohA0437yk1iNgc5GFwF7LreCCNH1lJ4RAX8QoEaLPziylYggkP3POzKpQ9l6LDvtJPLwwyKdOoWC2ETVJWnQoEEVtfeTTjoplL5zdbJ69WpPm2UlylqHYdBmgUYLbMQIt+UrESACRIAIEAEiUAUB081oB3F+2MCBIkOHun2+EoESEQDRMmvWLJZ4LhFH3h4fBBjREp+5oqd5IGBpQ7jUhLfyuC2YSxC5ka3HcswxIm++GQrJsmbNGvn3v//tERoon7xcI2kaNmwo5SZZADTSl2DffPONtw38xdKGQLIwbShwuNkBESACRIAIxA8BVCJs3bq11Nf0oW1ffdVFs1x0UfwGQo8ji0DXrl093yyyObKO0jEi4BMCjGjxCUg2Ew0ELG2o7NEsr70mgjLCWtHHsxtuEDnvvFBShd566y2ByG3v3r29rrF/9NFHh5emU8dbAYQPzLZ1XF76aQ2F9ozVhkrHki0QASJABIhAIhH47rvvvHE1Hj9eNtuwQaRDByfYn8jRclDlQGCrrbbyukXlIRoRSAMCJFrSMMspGqMRLZYHWpahQ+QWOc2oKgQBuQceKDr0dunSpfL666/LnDlzBB9QKIc8opb0l9tvv126dOki7du3lw36oGSCt2XBIUenWDGDhVLa+YknRL780nly+OFuy1ciQASIABEgAkQgg8AjqmPWAcSKPrcMgnA/tFnOPTdznjtEoFQENtP3FARxYV988UWpzfF+IhALBEi0xGKa6GS+CJSdaIH+yX/+40iWHXYQgQhrRahkvmPAdZMnT1Ypl4erRKHMmzfPawLES6NGjeRMLbfoPRjp0SVLlsjTTz8tFsmzaNEiGTJkSCaqxbsxAi8QwG3RooXnCQihwG3SJNcFSjpX9Bt4n+yACBABIkAEiECMEPhSFyTw2fzd3XdLA13g8YiWc86J0QjoahwQINESh1mij34iQKLFTzTZVtkRMI0WIxxCcwh6LIg0mTrVdQk9lrvuKipV6LrrrpN169ZVIVmyx4GUm//pqtONN94o+yuBgAoBn332WYZkASFz6qmnZt8Smf3s0s59+vQJ3q/nnnN9HHRQ8H2xByJABIgAESACMUPg2WefVX1+FejX54ohzz/vvD/9dFHBlpiNhO5GHQEjWpg6FPWZon9+IUAxXL+QZDuRQKAsES3QY9lxx0qS5dpriyZZrrjiCo9kyQdMRLU8+eSTMm3aNI+UWbVqlS5CbRZZkgVj+uSTT9bu5wQAAEAASURBVLyhwdfASztrHzJzpoNy773dlq9EgAgQASJABIhABgFEwMLWKOHSZO5ct0BEEdwMPtzxDwEjWj7//HP/GmVLRCDCCDCiJcKTQ9cKR2AuHhLUQoto+cc/RBBeCz2WLbYQmTBBZN99C3dc73jIRFsLuBtkC9TbUVnoII3aaNu2bQF3h38pSjtvoThhG7g99ZTrAvMyYEDg3bEDIkAEiAARIAJxQmCqRuHa89Jur7ziXP/BD0T69o3TMOhrTBAwogXu4jkwFK2+mGBDN5OJACNakjmvqRxVdrm4UMRwocdiJEv//iJvv100yYIJgy5LMVa/fn2B9knUSRaMzUo627aY8eZ9j6UNff/7ed/CC4kAESACRIAIpAWB6dOne0Nd8d570g5pQ5upCO4FF6Rl+BxnyAhkEy0UxA0ZfHZXFgRItJQFdnYaBAKWNoS2t9566yC6cG1Cj2WXXURuu81FshxxhMgbbyCMpug+Z8yY4UV6FNuACeUWe39Y91lJZ0TiBG6Wa860ocChZgdEgAgQASIQLwRmzZqVEczf0RZ6evYUFX8TufVWEaTf0oiAjwi0a9cu0xp1WjJQcCfBCJBoSfDkpm1oRrR07tw5uKFX12P53e9culDTpiX1+dhjj5V0f1zCL1F2Gob0oUBt2TKRDz5wXZBoCRRqNk4EiAARIALxQ2DKlCme08sXLpReSLVFNMsll7iBnHKKSK9eIhMnxm9g9DjSCJg+HyNaIj1NdM4nBKjR4hOQbKb8CBjRUlDaEFZs3nlH5IUX3AAgaouyzD16bDqgm28WOftsF8XSsqXIAw+UlCqU3cH69es9IdvsY4XuI/Vo2LBhhd4W2vXLly+Xxo0be/0FXto5W5+lX7/QxsiOiAARIAJEgAhEHYHFixdnoll6v/SSiJZ3li23FDnxROc6dOdWrhQ5/HCR4cNFbrml5uciPweKqBqkMkHDDc9gQ4cG36ef/rOtvBBA+hDKiTOiJS+4eFHMESDREvMJpPuVCBRU2nn+fJErrxQZP941gIcKGFZ0YHiwuOwyt8Xv0GP5z38cyQKRuEcfFX1KwZnIWJs2bSLjS02OfPTRR5nDgwYNyuwHsmNpQwiBphEBIkAEiAARIAIZBFCxECnWK1eskOFabcizM88UadLEPefYlXg2wucpoltOPtk9F9W0EGXXF7rFYteNN7ofS1VCn/Yshr5uuEFk5MhCW+b1EUUAEc1YGEX1SRoRSDoC9ZI+QI4vPQjkHdGC6JXBg0XGjXMPFEayACrs24PFPvuIaLllj3AxPZYRI0TefNN3kqUJHm5KtO23377EFoK93Uo7h7KK8cwzbjBMGwp2Utk6ESACRIAIRBKBDz/8UCZNmrSJb0jZsKjSNkiH/vhjR2ycf767FgtR1Q3PRXhmwrMTFqn8+JKMAgJob8wYFz1jz1/o2/bhG6JqTj21ukf8PaYIWGTzhg0bYjoCuk0E8keAREv+WPHKiCOwUPOMYV27ds3tKcJSQaAgJLYuwwc9HgAQiYFUIZAuKMHcokVddxZ8/uCDDy74nuwb4rAygMpIMNtm++/rPh4SK94LQqLFV2jZGBEgAkSACMQDgTlz5khT1Y+7//77qzj8yCOPCATp165dK3ti4Qh23HEiFRpqUhPR4q5yz054LkKEy4UXSq3X2j01bUGg7LuvI3lqOp99DM9iiD4m2ZKNSmz3SbTEduroeBEIkGgpAjTeEk0ElixZ4jlmKzWbeIkVGJAs+NAuxO680xEsSCWycNZC7s/jWkSjlEKWBFplKQ//87nESjpv3Lgxn8uLv8bShvDQuM02xbfDO4kAESACRIAIxBSBzz//3PMcacVjx44VRLJAGyNT+eWtt6Q+InzxXGMiuPmMFc9QWKxCSg8IFxAgFWWi87ndewbDPfkseFmDRragGhIt1giAaPmfzudXX30V63HQeSKQDwIN8rmI1xCBqCOwbt06/cx2USo5iZY//7mwD/bsQSNUNuDoiMMOO0w1eV/I7jWv/dUqHHf55ZfndW05L2rQwP272XzzzYN147nnXPs/+EGw/bB1IkAEiAARSB0CS5cuFTxzrFmzxtsiBQKfb/hsa9iwoRctgn18oUTkCH6s0kreYC1aJILFIxWt9baffiqCY9q3qHi+fPONyNdfV91mH9P9k3Gd2nfq0176883PfiYb1a+9mzWTb+rXlxZGdEAEFxG7qJ6ovgr6ytdAgCClaPx4p2kHHRcT1M3VBsiSIp51PIIGfkIzjxZbBBjREtupo+NFIECipQjQeEv0EICCvlnO8s6lrITgoQDhtD16WDe+b1Ex6L333vNWnfJtHCsCp8YknBYPoDDb5jvGgq+zikMBE2MF+8UbiAARIAJEoOwIYHECaTWfKqGAVNavlbDACjtsM43uwE99JSLwY+QJPreaKUGRyxCxiR8QMLUZIldxTRMVA2322WfS+pNPpLkSHi3Up2Z6rqnuN1KB2k2swr9NjudxoJ4+J+An88BfEemSuVUjXbwqipkDRezAP0ST4lkJWi9GuKCSY7bhOqRgF2t4DkPJaYrjFotg2e8j0VL2KaADISKQ+b8bYp/sigj4jkA20dLe8oyze0HaED6gSzE8QODhIUA799xz5a9//atAOBarYLUZHhZBskRdBNfGgFxxmG3tuK/buXNFli1zTZJo8RVaNkYEiAARiAsCeCb4WHVAlunnAciUb7/91iP5W7durTJrTmetVatWgp+grKESGE01KqWpkiqNddtM/cHvTfTz3bM8yJONGhWzRqu0rNOok6/atpXvOnWS5rrdskMH2RyfqVjA0CgV78f2dfuh9rlO03T/p2SRR7QombSZki31dVtPf7Z4+GFph2eirbYSOfZY0TwOFymDKBikAc2eXRwsGBMiZZBWhChiLE5ptK4X5WKkC4iSYg3twz8SLcUiWPb7SLSUfQroQIgIkGgJEWx2FRwCRrT07Nmz5k4KyR+uuYXSiZpc7VY7DrJlxowZGok73iNbqkeAgGDpoA9Zl6lmDFbe4mIo6Qezh9xA/La0IZBtyB2nEQEiQASIQCIRmK1kwCJNp1m+fHkmkgQV/KBJYgsV2MdPTbZeSQXoliAS5bvvvstEtdSrV0/wg3Qg/OAzGD9YJEC76APRLfhBSpCXFqR6J+tfesmrSlhv5kxp+MEHsllF6o6X8lKDAxu1rS+VNFmrPxvUx41KemymYv4b9Pev9eerdu1kY8UCReb2rM98jBvPA3gOwBi7desmgwYN8nTopqsAblttI9sQtYNrG+p9fW66yTs17fTTZSekRmfbmDGuslD2sSL212n/TQcOdMUE7Blshx2KaKnaLaUumlVrjr+GiwCJlnDxZm/lRYBES3nxZ+8+IWBES860IZ/6CauZadOmuQcirFBVM6zA4QFrpj7MxSWaJbukM1YUAzMTwj3wwMC6YMNEgAgQASIQLgIgFN544w2PWEFKT/fu3T0HkNrTsWPHnM4gVQf3gkzBtSD6t1JCA4sytd2Xs0GceP99kddf90gV0c9qL8JCdVqa4Fz1KBVEdGABCMQ/fvA7tnqsgS4I4NOw+icinmcWKoH0ueqxfKlEEFKbMGb4nk2eYD/7d4zzBY28xf2miabNe2YkC7bdIfCvtl5JnS+18s+tt90me+65p/Tu3dv5/8473vlCX5YqrrO33VY+0+18HecGjcb5WiNlGitp9RuLBq6OT6Gd4PoAo5CKcYf3FIYAiZbC8OLV8UaAREu854/eVyBQZ8Wh4cNLx8rCXktvqdYWLlH1f6yUNW/ePOd1OHenPiz17dtXdeFOynldVE5Y9QP4k/1g6Lt/Tz7pmmTakO/QskEiQASIQFgIQHAWxApSfxBFApF7ECW9aohUxOcLhGmRHoQvcVtqmg1IlG206lxtuip5jeWjjxyhohEr6pDI1Kmi4TPu1mzSAOlIu+0mssceIrvvLtKnj8jWW1ftQqNJ8rEuSoDgJ5fN1RRZRPIgxRhCvMAHUa4W/QqsTHPG2rDo14ZKxnR+8EHv8PwK0VqQVtCseeWVV+Tggw6SNki1zsM2aJ/vaSTNPI1aMWKl+m0N1bfvFKeLLrpICxtdIh0QbQqiRP0o2iqiY4u+nzeWFQGLNsN7l0YEko4AiZakz3BKxmcRLTkrDgEHhKwWuVLjwegHWVPHfBjJUsdl3ml8WM3XENqHVFgOFYuibNkRLV1reYAsaQwa4aM1sl0TjGgpCUreTASIABEIEwGQB0iZRSoPyBEQJYjgqJ5qivLERr4gKgWRGL4aSJRnnhF59FGRxx93FX/QQTapgt9BpIBUGTLE/QwYgKPO8iRU7PJCt320b/xUN+CHZwIQT9lp1NnRLF3vu8+7bYNGnSz9/vczTQBz/DyvETHD9P52mTPVdhBJpM8bKw49VP707LMCIiUfQ3rVtddeK5dcfLF0gL6KRtEUZcA24s87RY0rRTdZtNVG1RCiEYGkI0CiJekznJLxGdFSa+oQlPBPOaU4RBA1EvAqyq1aFamY1Tes+g3Rhz2saEXVIEYIYijQFQxLG8KKZ02CyFEFh34RASJABFKGACrsva8pOCBOEIGCH6SVVk8tRWWgtWvXesf79+8vw4NY8EDZZBWHlccec1VzsNKeTaxAJ2WXXSqjVUCwmO5LwKRKIW8LpBLjB6nHwNXMolkaqGaMRbMsPO44O11l21bH1aJ61SNEoCD1B89BGtn7P73jqgsvlFYFPhOBbPnnzTfL5WirWKIFC2YhRRdXAYa/+IaAvR9t61vDbIgIRBABEi0RnBS6VDgCRrTUGtGCD3eo4Bca1YKHjMsvL9ypAu/AalRt6UK5mgOB8Y9//EPGjBmT65KyH0dYN/zENjB79VXXNNOGAoOYDRMBIkAEikXgVf0fDXIFZAqIFSwOZC8QgIj/TEseQ5gWiya7KLkRCLGCAbz8sotamTRJNJTGDSmbXFHCQhAZiZ9scidCxEqueUC1JUvRzY5m6fLAA1JfyZZvlCD5RCNSclljnQPYKiU1Zuy8s2w84QQZPmyYqHCcd3yiRtEWSrJ4N1a8zFBtme1HjHDkVvaJuvbRP6oZ0WKNQPW0tlgPhs4TgToQINFSB0A8HQ8EEEoMq5VowQXITYYqfyH5wePGOTE73B+QTZ48uSiSxdxBxEiUDdUdYIFGtBiBhvx4GhEgAkSACJQdAURXvKP/m5EC1E6r6GydpVuyUssAI60UuioQYg2MVDEUQMZDCBbpM3hmyCZWNNpCVBg2Q64o0eNZDIgVG55tIYprRItFDdRXUdqu99zjXbIQ5ZxzmY73s/33l8VHHilrMFcV479DcUO1pcMPP1x1gF/35ixXE3Udn6QpWdtrVUXBooh9btd1E/y45ZaqpFdd9/B8pBGw92aknaRzRKBEBEi0lAggby8/AvM1J9ms1tQhXAT1/7ffFn1aqPsDHpEsIGZCiJB47bXXbAhFbVGJKMqGqgkw2wbiKzRaYH6Uj3Qt8ZUIEAEiQAQKRGDWrFmCzzSUQ0bESraALSJWQLwPVAHVwIkV+K1llr00lbvuEtFIjyrkCnRVELFywAGVX+BjSKxUnx6r6mLRLDjfSdOiGmhE6UYlvJZAI6XCUMHQhIRR2Qhk2Oxf/MIjxobvtJNdltmiTSyYWB+ZEwXs4D2gYU0izz0ncsQRIrrQVKsZyYKoZBoRIAJEIEYIkGiJ0WTR1ZoRsLQhnM1LaNXIFqyo3HjjpoQLxN7wgX7eee5hAA0HbHjwLJXdR1TMMIT3RtAQCg6zre8uosSmGXLpaUSACBABIhAaAh9++KFXtQZCl506daoixmrkyo6qrREKuaLVeOT220VAriBiIjtyRXVeBBEdxx8vWiPa4ZMAciV7om3BKfNMoePvBizU3t1nH1mm+i1tNZW32LnYokBtlmzfquxr+phAW+2KK0SmTHEixNkXYAEJwrdI3cZzGy0RCDB1KBHTyEHkiQCJljyB4mXRRcCIFjzc5W14sIIwLggVVKqZPt3d2qOHCH5gMXv4amPifM77SL5mHvz89s7mb9tt/W6Z7REBIkAEiEANCKDEMAh+fHHCIke3bt0yV0HE9itNVxmkqbrFfqHPNJbPjqYhyb33OnLlxRfdHUawgFD54Q/dDyIeY/bZns/w7ZoXtGpQtiH6pKdGjjTUak4aYiSDNRV6MKJJSjBEwBSjJ1djl5qGJFdeKSrag5UYJ0aMC2P8LFbjOHlwEwQCex7cpCceIALlQ4BES/mwZ88+IWBEi63iFNQsHrjw0GHpQSBdyvAQhnxqlLUsxVBtIKpm5fw233zzYFy0PG+mDQWDL1slAkSACFQg8JimoUAXradGGWTrooFcQXrorrvuGg65An9Asl9/vYtgwe9GrmgKjBx1lCNX9toLZ8ry2e46Dvd1yZIlnpgwel2lBFRfEFCwc87xJUq31LK8SFHyDHP1z3+6OUPVRDx72bOYu4KvCUSAES0JnFQOKScCJFpyQsMTcUHAiJbsB76ifUdVojFjir692BuP0gfCf+KBo0hbBYIowtawYUPPO1QeCsQsooVESyDwslEiQATSjQA+Z5/TyAhEMqBiEEgWGL7Uf/vtt8FWCKoJeqQG/e1vosqsleSK+ualmqB0MXRXYGVYOHEdl+cV6cNjx471OsfizQ8x/gULHA6XXFKyU4hC2GqrrUoSts8sCkHE/9ZbnW+nnlqyb2yACBABIhA1BEi0RG1G6E/BCPhKtECzpQxECwQDv9S8aVRmKMaiqs1iY4EoIsy2dty3rWm0kGjxDVI2RASIABFAKspHH33kVQuy1CBoioFg2VlL/4aSFmTTABHVv/9d5F//Elm6tJJgQTTnueeKjB4tWhondeSKwYPt7NmzvQpO2P8fUnGgfwI76yzRUkRuv8TXgw46SOVv7pJiFk7Wrl0rJ510kvMAZJkZhW4NidRsmTqUmqlO9UBJtKR6+pMxeDzwwUqOaJk/3+m1QCS3DB/6J2ufd2oJxUIfXhDNchgE4yJsJp5XLJFU69BQSWLdOncJiZZaoeJJIkAEiEBdCOAzZdKkSVKvXj0vesFKMn+iIrP4coQv2qFWunv5ZZG//MWVZbbUIAxCSxB76TAQgU9Z5EquOXxVS1ijytNSJaKOAdGixIuHzaWX5rql4OOISLEo1UJv7g8xYhjm8R//cPtHHy0SA4055yxfS0Xgm2++8ZqwlPJS2+P9RCDKCJBoifLs0Le8ELCIlqI0WrJ7ANECQyhrGYgWPLz07dtX5psfzptaX1evXi0///nPa72m3CeztWdalyjCV+NYLG0IlRA6d67xEh4kAkSACBCB2hGYppGBb7/9trdokS0uj4pC22yzjRyHlJww7YknnFCqlorOaK9Ay+OMM0R+/GNRFogES9Z8TNHKPVZKu1XLli7KB+eBlYoV+2Ug2y7XSkAXX3xxQVG4EEfORLO88YbIzJlu/n70I79cYzsxQAACzbBCFxVjMDS6SAQ2QaDeJkd4gAjEDAEjWkqOaLEv7FDtL4Ds8BMuPITsoFEZeCCpy7DqeInmXCNfOsq2fPnyjHuBVEYyIdzBgzP9cIcIEAEiQATyQ+DZZ5+V8RrJifTV3r17S+PGjQX/txcuXOiR/6effroMHTo0v8b8uEqjaWT33UVDZ0Q0QsMjWYYMEbnjDhEV3PWq1HTsSJKlGtYfI7pTbYFqshygYsUyb57D6Ne/rnZl6b+CbLnuuuvy1mrBZ//vfvc71zGiWZD+BUOlKi05TUsPAka04P8MjQgkHQFGtCR9hhM+PksbwjBLJlqyyZUxY0SfPNFs6IY0oCH6UPkPDav9r4rFVQ/RBsECTZaRI0d6YdyhO1hgh+ssrUfvCyR1yAgypg0VODO8nAgQgTQj8IRGjKB6ELRXevTo4UExT7+cd1QS40ik5YRtjz4q8tvfirz5ZmUEy/e/74gVEC/65Z5WMwKPPPJI5hmo/3bbiYwa5S684AIX+VPzbSUdBdly9dVXeyW+H374YWnWrJmgsiCqyuActHy+0/Sl0aqdkxHARY94JoBgL+bz7LNL8oE3xw8BI1oY0RK/uaPHhSNAoqVwzHhHhBBAzriZ5ZHb7wVv7Qs7bkT6ECoQIR2lDAZxXITmwvDAMnnyZE1hbuM9rNhDTBncKqpLPGiZZco62gE/thbRQqLFDzTZBhEgAglHAOWZV2rZXyxOmMAt0oP20jLIoYrbGs76Jd0jWCBqbhos++0nctVVooq7JFgMp1q2iILFQsZHOo+nAcNFi5ww8C9/WctdpZ+aqek/eD/ZgpCV7sXWIhYgnPvTn/5U8FzjWbYIrkZL0dKFAImWdM132kdLoiXt74CYj/8zVCFQ80X7Q8mMKlamUs/mAwgWM+jPIKQbln3czkd5i9KfZhBX9NU0uieT5kWixVdo2RgRIALJQmDixIkaTLDOi1hB9AEMBMu+++5bHoJF/fEIlrfeqiRY9t/fHSPBkvebD0QGopBgXgVCnU/Pzj8/UJFZLAA9+eSTXslv12HNrxDOvfbaa2XEiBEyDCloEDaGHXFEoP65TvgaNQSMaDEiLmr+0R8i4CcCJFr8RJNthY6AES32kFG0A9nRLNYISj3jQaVMUS3mBgQKMU4jWux4XLa2wgV/fS/v/O67lTDsuGPlPveIABEgAkTAQ+D+++8XVPqAnpdFHoBg+b6m5ZQlgkXTXOQXvxCZNauSYNEv4RrGKTJoECNYCnjfQlenefPm3h3ztAz3cAjMIpoFxwIUyjeSJd/0j5Yqzov0ogFffy1bUgS3gBlO3qUkWpI3pxxRbgRItOTGhmdigMCnEMZTK1kQFgK41Q3REmWOaoFL7733XnXPYvV7duqQ744bQTZggO9Ns0EiQASIQJwRuOeee7wSze3atfOGgS840DU74IADykOwoNTwueeKPPdcJcECwVvospBgKeqtNmHCBOnZs6enhzIC6Va77urauegiUVatqDbrugmLJw899JCuQW1R16VVzoNsmfOzn4nKGjsRXPhLSx0C+D+EyOx8SbrUAcQBJwoBEi2Jms70DSbQiBbAGYGoFojL2QpAHGc4UKKF+ixxfEvQZyJABAJEAKkkSNcwTQwjWA4++GCPZAmw65qb/uILF63y979XEixIb9F0EhIsNUOWz1EsNNki0+effy5tlXTR8FcXhaull4MypKAVSrLAl801qmpnRDEhLRolummpRMCeZ0m0pHL6UzdoEi2pm/JkDdiIFnvYKHp01fVZrKEyR7UgbQj6LNklks21uGwDJVosooX6LHF5O9BPIkAEAkIAX4A3btyY0etYu3atV1UI2hiIYimLXX+9E7VV8V3P+vQR+eMfRQ49lClCJU4IRGiRUrx69Wo5HPOLakMgMS65RLQEUImt13w7ollefvnloioIDtDoXJAtno+nnVZzBzyaeASMaKFGS+KnmgNUBEi08G0QawSMaClJowVlnbNLO1dHpIxRLdOVSEA1pbZt28oXuiqIykNxs2yNFt99h4gijESLw4GvRIAIpA6BdzSyD58V3bt398b+3//+V1bpIsHIkSMzmiyhgwKhW3zhnzvXRbEgzeQ3vxFBueEsoffQ/UpIh7M0MsR02/DFtcW4caIPCaIPC6IlfgIdZbbAfSEd7YSqUmrv6TPNANULoqUTASNaGNGSzvlP26h9LgGSNvg43nIj4ItGi+Ya12qIasHDYRnMhAvRdVy1WgKLaJkxo3JGSLRUYsE9IkAEUoEA0kXGjh3rlWo2kuUjFURF5ZkTTzyxPCQLhE6HDxc5/HCRDz5wJMuPf4zyRiIXXkiSxad35pQpU7yWli5dKsdoSphcc43D9tJLA4tmMdeLSRtqr+/VTqoPBHt9++2tKW5TiMCaNWu8UZuIcwoh4JBThACJlhRNdhKHOr8iEqWk1KGahHCrgzV+vOiSYfWjgf6OsGBEspjZWO33uGyNaPnqq6/8dXnOHNceVkrbt/e3bbZGBIgAEYgwAnfeeae8/vrrXsQj3MTnAzRZTtOUjGyCPrQh6BdpOfNMEQiTIxVXU0y0brTI+++L/PWvLOPr40RMnTo1E83ifVm94QbR/CFUBRABqRWw2RflQrrZ9bXXvMvXaDWk93v0KORWXpswBJDqBivL/6mEYcnhRB8Bpg5Ff47oYQ4E7J81TpeUOoQQ53wMq3GolhCSIS0KaUNxN0sdMsLFt/GghCVs4EC35SsRIAJEIOEIoKwuIjk7derkjXTZsmVeed+TTz65fCOHqO3VV7sv+/Bi222dDgsqCjFNyPd5QdpQ165dZfHixXLCIYeIHHOMw/mXvxRp3Nj3/qo3CB2gQqyRlnS2tKE3dttNGoXgYyH+8dpwEVi/fr3+W9isKEHlcD1lb0SgdARItJSOIVsoEwKWNoTui45oqSttKHtszz/vyj2ff3720UD2P9Qw6+okS4+YrgKBYKlfv74ucOoKp5+2cKFrTR84aUSACBCBJCOAlCCQLL169fI+76BzgNSh0aNHl2/YGlmhDogguhD/37fcUuSyy5xGCAmWQObl/vvv90gWNN5HhXA9YWEVPdbVJlc6O5BeKxvFF2Q8b5nORuWZ3HtGsuCKqTvvrDycEnG0VCKQXdiBES2pfAukbtBMHUrdlCdnwCaEixFtiQe8YqwQogXtX3GFqMpgMT0VdA8eqGsypBPFzSySxXeixSJaSLTE7S1Bf4kAEcgTAaRpjFOhUxAtIFlgIOK3V52LspEsIFV+/nORXXcVmT3bkSw/+YnTZDnvPEax5Dm3hV6G9wLKdsM+0vfAbng/IG0IpBaeTUKyk046SQpJBd7t1Vc9z97ZcUdZrgsvuJ+WTgSyI9GL0fpJJ2ocdZwRYERLnGcv5b4b0dKtW7fikcg3bch6AMly6qkiDzxgR3zforpQrggdG7PvnQbYoBEsxVYqyOkaI1pyQsMTRIAIxB+BF1Q/DJ8HPXv29AazRMVEQbacfvrp5RucRbGAYIH17y9y991uyygWh0lAr/fee683/4gmOQQpQ7/+tci6dRraoiWzzzgjoF43bRZaQEhdw3uzLuurgsgttQoW7LXdd5c99tijrlt4PsEIZBMtjGhJ8ERzaBkEGNGSgYI7cUPASIei9VkQzVJMdMqDD7oUooAAe+SRR6RZs2Y1th7HDyaLaKlxQKUcJNFSCnq8lwgQgYgi8OWXX3rVhOBemzZtBOWaocVy/PHHy5AhQ8rjNaJYoAFiUSzw4vLLUQ5PNLyGUSwBz8pcLZNtEU1IGeug7xH5178c7tddF3DvVZtH+tA555wjeJ/WZSaCu1gjT79RUu6www6r6xaeTzAC2URLkyZNEjxSDo0IOARItPCdEFsETKMlV/RHnQNDJaFCDWWEtXRmUQRNHn1hhahdu3Y5r0QVomnTpuU8H8UTFtHiO+GiYsGeMXUoitNOn4gAESgCAUSxPPXUUxmNLqQJ7bnnnnL00UcX0ZpPt6Di3nbbuRLCIFwQxfL2245oYRSLTyDX3sxLL73kXYBnhNEnnCBiWnEaJSIjR9Z+cwBnQbZcpwRPYxW2zZVG1HrlSuk1b57X+zyNwDn33HMD8IRNxgmBVRWLm7U958ZpPPSVCNSFAImWuhDi+cgiUFJEC8pCV08b6t7dkSj6UJsxVBnCj+YVez94uIQoLlbyArDaolmsu+khl5m2fovdGsFihEux7VS5r+LhzTtGoqUKNPyFCBCB+CFQUxTL11qtBWlCiGopi4FUQXrK4MFOiwVO/OY3LopF9TZYUSicWXlOn0EsmsWLdoWG26RJDv+//S0cJ2roBWTLmVrSu6emttWrV08rTLuyvXbpTkoawr5r316GltFPzwm+RAIBe49QnyUS00EnQkCAGi0hgMwugkHAiJaiIlrAqkNnZYstRHr0cD/m5iefiHTp4n7Dl3go+4dgdUWzmAtxTB+C70a42DhK2lraEBop15eQkgbAm4kAESACDgHTYrFKc4hiGalRCmVd9X3nHRFETsyY4ZxEFMvtt4sgqpNRLKG+de3ZYL4uEJ0MIVmkasFQ1nnQILdfpteHNAW7j2rEIA3k10rKgXzxKlAhrQhlv9XqaZoR3zNlmqCIdWtES1yfYyMGJ92JAQKMaInBJNHFmhEoiWjBatzhh4vsvbfocox7CMADAn46d67sUPOiw7J8olngS9zSh4xg8TWixSoObbNNWNPDfogAESACviJQUxTLOhU3RRRL2UgWRLEgYhNf4I1k+dWvGMXi68zn39jtSm7ZewEpZPKf/4i8/757VrnmmvwbCuhKi7ZC9JVHsqAfPEdppSxPqBf7GvVCIwJAwIgWRrTw/ZAWBBjRkpaZTuA4TaOlaDHc2jABEYMUHVXMlwMPrO1KX87ZilW+jSF9aKeddsr38rJe16CB+zdTv359//ywiJZSKk755w1bIgJEgAgUhED1KBaUbx4xYkTmS3VBjfl18eLFTu/jrbdci4xi8QvZotpZunRpJm1snqbLDoc+3PDhrq0LL6waiVtUD6XddP/992f822effSobA1l3003u9+OOE9EqRTQigMW2FStWeEAYQUdUiEDSEWBES9JnOMHjg/I+rKjUobpwsUiJkCJaHtRKRrkqDdXkaiBjrqkjH47ZuJo2bepDaxVNGNFCfRb/MGVLRIAIBI5AriiW0047rbwkyzPPiGCBwUiWSy9lFEvg74baO0CUK1Jy8J4ZdcQRTowYqc2tWolcdlntN4dwFmWmYSAJe/To4e17L48/LgIdNUSz/PSnlce5l3oEUD0NhshsGhFIAwIkWtIwywkc4yd42KiwQCJaNOfYM0S0BGyoItS7QB0YkBcTJkwI2DN/mm/evLnXUKNGjfxpEK1Y6hCJFv8wZUtEgAgEikBNFYVQrvmggw4KtN9aG0f0AQRu99tPRCvaSMeOIi+/LPK737kvyrXezJNBIfC2Cu/bcwEIjVYQ5Lc5QWpXy5ZBdZ1Xu6iC1LkizRoaLRnD++kvf3G/grhDOXAaEahAAAukSDFrrwLJNCKQBgRItKRhlhM4RtNnwdC6BvFl2yJaQiBaZs+eXdQMrVmzpqj7wr4pW/Qse95K8oMRLSXBx5uJABEIF4Fx0KxQQ8g8IhTKrsUCZ7C6DJ2yq65yAqZ77OFSZqEFgmgEWtkQmFGhj7NkyRI56sgjHRmm+j2C6ogXXFA2v6zjDyqejfCZPnToUDvsIlmeeMK9f5DeRCMCWQhYRAuJlixQuJtoBEi0JHp6kzs402cJLM/TiJYFCwIFcfz48ZlVoUI7QqguomGibi2zVt5Wrlzpj7tW3jkIks0fD9kKESACREDwRRT/53tCdF0NlWMGqdBsWaNY4Mjrr7tUIZQKhl1yiYtk4Uqzw6OMrw9oRURbQPKiWrQKlfz97468+P3vy+iZ6xrvYauQtfnmm1f6k63NsuWWrmpV5VnuEQHldl3qEIkWvhnSggCJlrTMdMLGafosgf2zzg6FnTkzMPROPvlk1bYbLgMGDKjSB1axPv74Y+/YKi1FjQcb+1m7dm3mWoQXR906ZAnh/fe//y3d3dWrRdavd+2QaCkdT7ZABIhAIAhMmTJFXnvtNQEpDsP/dPzP79Kli/d72V6uv15EU5bk009dCsqkSSL4As8olrJNiXWMSFUjL6B9shtSb372M3calaBQ0rnM9txzz3keeNoxo0ZVeoOSzv/6l/sdJZ1pRKAaAhB4hgX27F6tP/5KBMqNgCsHUm4v2D8RKBABI1qs7GGBt9d9uYZ3eznQIAYgiIvqCwEaInNAuGTbbbfd5v2KKJBTTjkl+1RmvzpBkzkRsZ31SoxA1M+XdCdLG8IYK1aJIzZcukMEiEDKEUBZXhAqKGOKL6QQA8/1fzw0qPB5Nnq0iIqsCqIPBg4UUSF26dUrNBfYUe0I3HPPPV60CHRZ9t9/f1GmTuThhx0J9re/1X5zCGfxGW66eMuXL6/aI6JusAgCwu7cc6ue42+pRyD7/RLYs3vqUSYAUUOgXtQcoj9EIB8EAida4MR22zlXQtBpqWnMGzdu9A6jJF4uCyx1KleHRR636gTQJSjZjGhB5QUlb2hEgAgQgaggsFoj7m655ZZM1MpC/X81UAmNfffdt7wuvvuuaM6S+9KOzxSU3Z0+nSRLeWelSu9IBbaUHHwp7QKxWYsMOewwkd13r3J9OX559NFHvUUT9L0fBJTN8J5CpBRMK2hpCS23z1ciUIGApQ3hV0a08G2RFgRItKRlphM2zlCIFksfKhPR8h2qDKjZNs5TaESLbUsaCysOlQQfbyYCRCAYBKYrcfHUU09pgIiLEEHqx4knnqj6pd2D6TDfVu+80+mxQNsK5DTSOzTihqlC+QIYznVz5szxOkJVxROOP17krrtEkB6MCJFrrw3HiTp6qV+/vncF3ttWdcg7oOSiaEUZz9eLL66jFZ5OIwLZRAsi/WhEIA0IMHUoDbOcwDGGQrSYIC5Sh2glIfDNN99493/11VcltePdbBEt1GcpHUu2QASIgC8IPKgpOK1bt9aF/HaaPbFeM3P+pwv7urJfTkOUASq/3HijSxUCAYRUIaQM0SKFwB133JEhLvr27etScC66yPmIqJbevcvu79NPP+29v+HIjijdbIb3mRFBI0aI2LOTneeWCCgCRrR06tSJeBCB1CDAiJbUTHWyBhoq0VKmiJYkzZilQRnhUtLYsGoGY2iyw4GvRIAIlBWBsWPHeiQLnEA0AirFlL2qEL784kvvn//sSJYDD3TRESRZyvpeqanzBVrdsG3btt6peRp1tNPgwa7ktlas0jeWyJVX1nRb6McWVUSTwt+ddtqpsn9o/uA5CZE3jGapxIV7VRAwooVpQ1Vg4S8JR4ARLQmf4KQOLxSixVKH8LADEcGsMsVh4LpZRQWIevXiz4da+tO3335bOnRWdalZs9LbYgtEgAgQgSIRQBWhV199NaOrgXSKskexYCwrVogcfLATUsXvKN3MqkJAIpKGKj49VdgdFQaPPPJIEaR4XXONIy6uvtqRLWX2fK5G9lpK3JYo3WwGQu+669xvO+8ssueedoZbIpBBABF+9txOoiUDC3dSgED8v8GlYJI4xE0RsH/YgSqXQzjQ7MMPbS+0rREsRriE1nHUO9KqB541bx51T+kfESACCUUABMvMmTMFYfBIiUR1uEiQLEr2CEoCo1oNyPpbbyXJEuH3IMRlQbLAGjduLC1btBA54wzn8YABImed5fbL/Dp58mTPgxVK4h166KGV3kydKvLyy+699stfVh7nHhGohsCnKCevZlWrqp3mr0QgkQiQaEnktCZ/UFYm2MJtAxux5ZKWIX3IiJYGDeIfeGZj8YU0sogWEi2Bve3ZMBEgArkRmDhxokeuNNf/QUuXLvW0NQ4//PDcN4R1Bl96QbKAbEHE3+OPi6rxui/BYfnAfvJG4L8aKWtptUgZOgDlnPW9Jc8/7+ZMU9KiYKikhVLlsCqVAxHNgsgbWI8eIqiMRCMCORCw1LMqIso5ruVhIpAUBEi0JGUmUzQOlMs0CzSiBZ1Y+lAZBHFN3T8JRMvmm2/uTZmNyeavqC0jWoqCjTcRASJQOgK3aoRIK5SWV5s/f74cqNon22+/fekNl9qCRkbI0KEubQj6VVOmiOCLOy2yCNx3332C6iuoxre/zdVPf+r8PeUUEaTiRMAefvhhL9oGflaJZtH3vyeujMipSy+NgKd0IcoILF68WIPsNpOuLGQQ5Wmibz4jQKLFZ0DZXPAIWNoQegpcvdzU88sQ0WIEi22DRza4HoxosW1JPVlECzVaSoKRNxMBIlAYAhC9tVLN0GM5+eSTVbqrZWGNBHE1yjVD+FarHQkq1rz5psgOOwTRE9v0CYFp06ZltH2QdtYZ0bOXXy4CwVm8p6CpExEzYnHJkiUZklHLalX6CGLP0p0i4jPdiB4CiNqCWXRU9DykR0TAfwRItPiPKVsMGAEjWuzDP9DujGgpQ0RLw4YNvaHZNtBxBtx4o0aNvB6Qg16yMaKlZAjZABEgAvkjAF0KRLJsvfXW3k0IgY+EHgu+7J5/vsiZZ7rKQrvv7rRZunfPf3C8siwIzJkzx+sXq/zHHnusE8D97W9dytDvfheZqnr33HNPhkwcNmxYJVao/vd//+f8Pe+8yuPcIwI1IPDll196Ze9xikRLDQDxUGIRINGS2KlN7sCMaAk8bQgQWurQrFmhA2rRH7YN3QEfO2zatKnXmi9Ei0W0UKPFxxliU0SACNSEACoLPf3005lIFuiDjR49uqZLwz2G6BVEsdx4oyNZjjhC5JVXRHNRwvWDvRWMwO23356Jxh0AwVsQZhYRgoikc88tuM2gbrB0X0RwoWy5Z/D3ppvcfpMmImefHVT3bDchCJg+C4bD1KGETCqHkRcCJFrygokXRQmBUIkWi2hBeWddeQrTLArEtmH27XdfzSrSfGxbUvuMaCkJPt5MBIhAfgi88cYbMmPGDOnQoYOAYMH/4kMOOSS/m4O8CuWboccCXRbYRReJTJhA0VuHRqRfFyxYILZIhFSKHZDi9dhjkRPABYgQfbaCAztn68WA5DOiBQRR69aRxpzOlR8BRG6ZVSkPbge5JQIJRYBES0InNsnDCpVo6devEkp96A7TLGXIlyiQMB2voS98UTHL/sC1YwVtVZDPM2q0FAQbLyYCRCB/BJ544glZtWqVtNByu/jM6auRBkOGDMm/gaCuRMrGnnuKoMIQREiRvnHddSRZgsLb53afe+45j7BDOtoxxxzjoll+/GPXywkniOyxh889Ft+cVRjKEELWFDSBNBXEe/9dcokd5ZYI5ETAIlq2scXLnFfyBBFIFgIkWpI1n6kYTahECxDFQy0sRKIF+axmSSBa+lgKlg4KlTqKNkQWmTF1yJDglggQAR8RQGoH/u+C7EaVu7333luzSPv42EORTX32mYtkmT1bBCkbKN+MiAIQLrTII/DAAw9Iz549PT+hMdcMKbVXXVUpgPunP0VmDM8++6x07NjR86fKex9pQ3/4g/MT2jIQ8aURgVoQ+J++Z2yBjfostQDFU4lEgERLIqc12YMKnWjZbTcH6OuvhwYswtTNTN/Efo/r1uZt2bJlxQ/B9FnQAomW4nHknUSACNSIACoL2ZcB6FKceOKJmfSJGm8I6yBIlr32EgHJgi/oqhvD8s1hgV96P/iiaYsmeF/tu+++jmBBpSEQZVdcERkBXIwWBCMMfn/ve9/z9r0XRFB9+qnz+Ve/qjzOPSJQCwIkWmoBh6cSjQCJlkRPbzIHZ1/YLc858FHuuqvrIkSiZW0WodAEK5cJMBvTf7OjUgodVxYBJUwdKhQ9Xk8EiEAtCNxyyy2ZykJIl4hEZSH4C30DkCz6BV1zmUSeeqoy0rKW8fBUdBB45plnlB9rKqtXr5ZRo0a5lCFU60GECARwUT0qIgZtIou8qaKnAV+vvtp5edhhItttFxGP6UbUEbDUISOxo+4v/SMCfiFAosUvJNlOaAiETrRYRAsE4GbODGWc69FXhfkiIGuNlXG7ceNGr3fbFuVKFgHFiJaiEORNRIAI1IDA+PHjpVevXt4ZRN2deuqpNVxVhkMgWRBRYCSLfmHPpLOWwR12WTgCE1SouEePHt6NWDjZApWhXnhB5KGHXGSIRlFFyd577z3PnaVLl8pBBx1U6ZoSkRrq4nz+zW8qj3OPCNSBACJaNtPILRItdQDF04lDgERL4qY0+QOy1JPQIlrwgNS+vQM2pKiW7777LjOR9eol48/UqieVVK46O6IlIZE+mYnmDhEgAqEjgEi7W2+9NfNFGAKgRx99dOh+1NihkSzQtUIkC0gWi7Cs8QYejBoC+IJpiyVIGdpvv/1E9D0mp5ziXP3hDyMlgDtr1qxMVFeDBg0q4UQ0y5VXut9ReWvQoMpz3CMCdSDw/vvve1d07969jit5mggkC4FkfINL1pxwNHUgYKknoREt8McebkMSxLWKQ+h6g1XZwS8xNm8VT/1v2bJl8aOwiJZS2ii+d95JBIhAghCA6Pj9998v9vD/9ddfV13BL+dYQa4gkoUkSzlnoeS+kTKEKJaVK1dWpgyNGSOiZZ41tEXk+utL7sPPBqZMmeI1l/HXGr/ttspoFujJ0IhAngggMsrMogbtd26JQNIRINGS9BlO2PiWLFmSGVGoRIulD4VEtJhoHgaLh/8kmJV4bt26tZheS8HjsogW6rMUDB1vIAJEoBIBlG5+SFM3unXrJl999ZUgitCLNqi8pHx7JFnKh72PPd97772ZSClUGfIWG6ZPryzH/cc/imy1lY89ltbUZyq43Lt3b68RK+3s/YJoFlRHgu2/P6NZHBJ8zRMBRHKZ9YUeEY0IpAgBEi0pmuwkDNX0WTAWPCCHZka0vP22SJZ+SlD9Z6fX4EtAEix7JePDDz8sbkgW0cKKQ8Xhx7uIABEQrLA+9thj0rVrV/13vl6zclrIPvvsEw1kjGRB2hDThaIxJ0V48fHHH3vvK9yKL5re+wuExQknuNaGDhVVWy6i5eBuwd8EDFUPD4PYrdmdd4rgM1s1NgRVkmhEoAAEjGjB/1saEUgbAiRa0jbjMR+vES2W8xzacCx1CB2+9Vbg3WZHtHzzzTeB9xdGB23bts1EsnzyySfFdWkRLSRaisOPdxGBlCPwqZamfUGFSDt37qxSGeukTZs2sscee0QDFaz8Il2IJEs05qMEL1588cVMylBG8+faa0WgVQHCYty4Elr3/1ZUQ+rUqZPXMJ6zMs9YIIeQ6gRDSerdd3f7fCUCeSIA0hGWvdiW5628jAjEHgESLbGfwnQN4IsvvvAGjIfjUE3Dfr0SjOg0hPShbKIlKalDgG7FihXYZLbeL4W8kGgpBC1eSwSIQBYCKDH68ssvC9IYkb7YsWNHld/aNeuKMu6CZEEJZ5As+Lyh8G0ZJ6O0ru+6666M7g9ShhAx5WntXHqpI1muuUa0fnJpnfh898SJEz1iCBG0hx56aGXr991XGc3CSkOVuHAvLwT+p0SdRbT0jNh7Pq8B8CIiUCICJFpKBJC3h4sABNpgW265ZbgdozdLHwqBaGmeFbGRJKLF0qCyy1cXNJFWjSkhlZgKGjsvJgJEoGgEsKr6hv7vhrYXBNWRejooKpVToD02bJiIamR4JMvzz1cKsBc9Yt5YDgTwPrOFoCopQ6NHiyA6pH9/kZ//vByu5ewTfw/mM6okIfrUM/hrwreIZEG6E40IFIjAvHnzvNLOjGgpEDhenggESLQkYhrTMwgjWiCoGroZ0RJSiWcbX1JShzAeK1VtWxtj3ttGjdylCdGtyXvcvJAIEIGiEZg7d65MVxFSfJlEikSfPn1kwIABRbfn6436JVe+/30RkC2IZAHJEhUCyNeBpqMxpAyhauDy5csry4TfcotoKJWLZtFS4lEziEJbqtAhKN1s9uCDlalOJoZr57glAnkiYBEtJFryBIyXJQoBEi2Jms7kD6asRIuFmCPfdNmywMG26I8kES32MNe0adPi8NMHWM8SUompOBB4FxEgAvki8N5776ksxvsCch6fH9ttt53069cv39uDvQ4RAwcfLDJ7tvsS/uSTJFmCRTzQ1u9U0VgrFb6VVhPyUoZQ2vaii1y/F14oMnhwoD4U2nh2NAsiD6w6oBd9Y6lCiGaJilh0oQPk9WVHANWsYCRayj4VdKAMCJBoKQPo7LJ4BEzjoyypQzvvXOn41KmV+wHtbdy40Ws5SUSLhSTjIbQoY0RLUbDxJiKQRgRmzZql0hjzNVCklUDfa8cdd/SiWSKBBUgWVHaxSAeNKsikp0bCQTpRCAJ4r9nnGwiLvaC3gzk+5xzRMCqnyXLllYU0Gcq12dEsVcqbP/JIZTQLKw2FMhdJ7GTGjBmZYZFoyUDBnRQhQKIlRZOdhKGWNaIFAA4Z4mAMIX3IiBbbJmH+sktyL1iwoPAhWUQLU4cKx453EIEUIQCtjNkaKYKoAlRRgehtZMQY8QX8jDNEHn7YRbL8618iI0akaHaSN9S33347kzL0wx/+0A1w0iSR++93czx+vEixkZwBwVU9mqVLly6uJ7w/rdIQ0tj23z8gD9hs0hGwtCGMs3379kkfLsdHBDZBgETLJpDwQJQRKDvRYulDIQjiGsHy7bffRnlKCvIN2ghmCxcutN38txbRwtSh/DHjlUQgZQhA0HOqRh0iXQiRLLtr6kPXrl2jg8If/iAydqzz59e/FjnttOj4Rk8KRmCszqWVRsb7zEuN/fLLynk98cRICsnmjGYBAajEkVeGOoJROAVPEG8oGwJW2jkymlhlQ4IdpxUBEi1pnfmYjtuIlrKkDgEzE8R99dXAETSCxQiXwDsMqQOsLsOWIne9UDOihREthSLH64lAKhDA/5cpU6Z41YUgfDtw4MBokSy33y7yy1+6uTjhhMqqLqmYneQN8rnnnpOtt97aGxgWD3bDMwIiQi6+GB9yovlEIn/+c+QGnh3NgqiDKtEsVhUJ6dLQEKIRgSIQQGlnCJHDevfuXUQLvIUIxB8BEi3xn8NUjcCIlrJUHQLSRrQg51ofToI0I1iMcAmyrzDbXrNmjdcdHvQKNqYOFQwZbyACaUEA/1OeeuopT9Bz7dq10qNHj+hosmAS9Eu5ILoBX8QPOEDktttc1EBaJihh48RiAd5nMJAsJ2JuYdDduflmN7d/+YvIFlu44xF6zY5m2T87Neg//xGZM8f5fv31EfKYrsQRgTl4L6ltu+22cXSfPhOBkhEg0VIyhGwgTASMaClbREuvXq4EJwYdsE7Ld99950GbNKLFxlVUiWeLaGHqUJh/duyLCEQeARC4+PLYuXNn2bBhgydMusMOO0TH77feEhk50pEsqDzzwAMkWaIzO0V58vjjj3saQCBbhg4d6tpYv17klFPcPsp2m15LUT0Ec1Ot0Sy/+lWl7xD0pRGBEhAA0bLZZpuRaCkBQ94abwRItMR7/lLn/ZfIe1YrW0QLOt9zT7yKBKzTYoRE0ogWI8k6duzocCzk1YiWdesKuYvXEgEikHAEJkyYICa23bhxY5fCEZUxf/ihExRFNB9C6FHGuUmTqHhHP4pA4HZNAUPEFKxBgwZuH5FKKOWMaFcVYZZbbvHOR+0lZzTL3/4movpGnjbLn/4UNbfpT8wQAPm9ZMkSz2tGtMRs8uiubwiQaPENSjYUNAKm7YF+ykq0WPrQ5MmBDtmIFuS5JsnsA7eRkibZpf/yGqOlDuV1MS8iAkQgDQjcol9o7UsvolmGDx8enWEvXy6CyAZsUdb+mWecbkd0PKQnBSIwbdq0jKYJ9E0yqTd4JvjHPyqJCqviU2D7QV6eM5oFJKCVcR41SmTAgCDdYNspQMDShjDUfv36pWDEHCIR2BQBEi2bYsIjEUXA0obgnkVFlMXVYcNct9OniyxbFpgLRrTYNrCOQm4YH7iW1579QZyXGxbRgosRok0jAkQg1QiAZOmFlE61VatWqfSJap9ExfDlFfoXKGXfvLmogIxI9+5R8Y5+FIEAVumtkgo0Wo499ljXCnTbjj/e7f/gB658dxHtB31LzmiWG28UWbHCkURXXRW0G2w/BQjY8x2il5vj/x+NCKQQARItKZz0uA45m2jZopziciBamjVzMD7xROBwJi11CIAtqyCosuc0LyCzI1pYeSgvyHgREUgqAiirayQLvvQedthh0RkqIhGPPloE2iybbSYycSKjBKIzO0V7cvfdd3v6P2gA0ZleKWfM9dlni3zyCVaBRCAoG0HLjmaZN29eJipHGUqRa65xHp96qkjfvhH0ni7FCQFEYn/wwQeeyxbFHCf/6SsR8AsBEi1+Icl2AkfAvpSXNW3IRokVK1iAREvSUoYcYO7VxtYwmzjJviDXfnZEC4mWXCjxOBFIPAKIZMkuq3vMMcdEa8yIClCxVI9kGTdOZJ99ouUfvSkYgcceeyxTpvbN0sJEAABAAElEQVQTJVUyYssPPyxy111ursePF2nfvuC2w7hhopJ9zSoWifbbbz/XJUiiq68WDTN1/o8ZE4Yr7CMFCFhES18SdymYbQ4xFwIkWnIhw+ORQ8CIlrKmDRkqBx7o9vAgHZAZGZG01CHA1aFDBw81E6/MG8JsooWVh/KGjRcSgbghgAiVyTl0sMbrl1mLZMHKfKasblQGic8F07v40Y9ETjopKp7RjyIRmD9/vlilPOwfd9xxriVEZyIKBDZ6tMihh7r9iL0ira5NmzaeV1WiWfTvTFCCGnbBBaJhLm6fr0SgRARAtLDiUIkg8vbYI9Ag9iPgAFKDgBEtkYhoOegghztCbt98U2SXXXyfB3uos63vHZSxwf79+wseVmEQFtxpp528/TpfsiNgGNFSJ1y8gAjECQHoR7zyyiuy+eabi0W7vfDCC56mUwut4vIjJS2mTp2aEb6FEOlpp50WrSGi4gyiaxApAOF0iKPSYo/Aiy++6FW1QuXDA22hBXN84olO26RTJ5GbborsOB/QcuIgJ7/WBYoq/oMQVAFpT0PISjtHdhR0LE4ITFcdQxItcZox+hoEAoxoCQJVthkIAisg1KYWiYgWrPqYinpA6UNNKsp/2heOQEAtU6OoELIa4oFq+LKUtzVqVHkpiZZKLLhHBGKMAKJXLrnkEnnnnXe81Ibq//OQ7oDIvpv0i+zs2bO9kUaSZNEv4XLIISLY4os3Ukqgz0KLNQKIoLLoS7wXLSJT/vUvV6obc3zHHSKtWkVynJ9++mlGj2Wxlm+GOKlnH38s8n//5/Yvvtjpy0RyBHQqbggsWrQo4zI1WjJQcCeFCJBoSeGkx3XIkYpoAYhW3SIgosUT2dNubBvXecvl93KUO1WDQF/elh3RwtShvGHjhUQgqgggRfIPf/hDRjuiNj9BwKDqy1sqMBu5SBZENyCSBUQQvng/8khktTpqw5jnqiLw7LPPSg9dGIAh5WYf09pBJamLLvKOy/nni9YUd/sRfIW2DP521q1bJ0cccYTzEO9Xi2BBSpGNJYL+06X4IWD6LPDcSMr4jYIeE4HSESDRUjqGbCEkBCJLtGiou6fa7zMOliIViQgen8eG5pAeAGvcuLG3zesl+1pGtOQFGS8iAlFFACTLr/TLXqsCIwGQvgFhz0jZlVdWFb8dPDhS7tGZwhFAGecNSKtRQyTIqabFApICGi0o362Vh+RPfyq88ZDu+PDDDzMCvl988YVkKja+956IVlDySMHf/KaykmJIfrGbZCNgFYd23HHHZA+UoyMCdSBAoqUOgHg6OghEjmgx1X5A9MwzvgPVrl27TJsIrU+aWfhyl2LF90i0JO0twfGkDIGZM2dKo+x0wALGn0sot4Am/LsU4rdWreWccyh+6x+yZW3p1Vdf9SKtQOwNGzas0pfrrhMVE3IkxT33RDo9zP5OkKo7atQoNwYQRT/5idvH5+9551WOjXtEoEQEQKBbiuc222xTYmu8nQjEGwESLfGev1R5b0RLpCI8TBQvgPQhIyIwyctQ2SBhli2AiwfavM0IqAqNl7zv44VEgAhEBgE8jN8BXYsiDVEw9iWyyCb8uQ2pQlZaGuK3ERZE9WfA6Whl7NixKrOjOjtqeK917drVDXzWLJFf/MKRK7/9rcjAge54BF+heWQl0BGZk0lDfvRRERX39aJZrrkmgp7TpbgjYEK4AyP89xF3jOl/PBAg0RKPeaKXioARLZZSEwlQjGhBPr7Plgnx1XY///xzn1svf3MgzGxcVoEoL69MyO+TT/K6nBcRASIQTQQ2btxYkmOoSFRWo/htWeEPqvMHH3wwQ1BA1HPo0KGuK0SC/PCHrqIUUsNM4yQoR0psFxX9YNBDO8bIQIzhwgtdy0jrOP54t89XIuAjAtDRgu2www4+tsqmiED8ECDREr85S63HVqUmm4AoOxgmiIuIEw2D99tMMNbG7nf75W7PxrV27dr8XTGiRSsp0IgAEYgvAs2bNy/J+a/KmT6IL6z48oqqaRS/LWkeo3TzjBkzxBZzsAAwevRo5x7mG8TKu++KoCIgUoYibFOmTPHKOcNF00Pz3L3xRhHVbfHesyw9HuEZjK9r0DaC8DKMREt855Ge+4MAiRZ/cGQrISBg1WlatGgRQm95dtGnj2jdRHdxAOlD9mFVEBGRp+tRuMyEcFEyM28j0ZI3VLyQCEQVgc1ATpRoJlRaYjOF344v3VdcUSl+e9ddIhS/LRzHiN2BZ4z333/f8wrCsSNGjKj0UIkLQZoN3rfXXy8a8lJ5LoJ7+LILQ2nnkSNHOg9XrBC57DK3f9RRIkh1oxEBnxFAyhoMi6JFa/D57BObIwLlQoBES7mQZ78FI2CpQ5EiWjAKexh78smCx1TXDd988413SVlXbutysoTzlvcOPZq8ySQSLSUgzluJQHIQaNmyZXkGA1IdRAsMQqKWluGO8DWmCEyYMEHat2/veQ9tk4wenKbeCIgJ2P77i5x1ltuP6OujqsFiX3BtPAJy8PLLRZDuBrLo2msj6j3dijsC76GildqgQYPiPhT6TwRKRoBES8kQsoEwEMheuYwc0WLpQ08/7TsUEIyE2db3Dsrc4M4775zxYOrUqZn9WndItNQKD08SgTgggP9pq1atKsnVnj17lnR/UTerZoen04Gbv/c9F91QVEO8KUoI3H777ZlUG2iHZcrS4jP46KNFPvvMRa/eeWeU3K7RF3teWrBggey7777uGqQL/fWvbv/nPxfp3r3Ge3mQCJSCAP6vW0QLhXBLQZL3JgUBEi1JmcmEj8PShjDMsq1i5sJ4n30qz0yaVLnvw16DBg28VurVS+afKlKGFi9e7I0RD4V5GYmWvGDiRUQgygggdcgqohTj59dffy0nnXRSMbcWfw++dB95pIimmAiqn91/v4sOKL5F3hkBBF7RUs0WAfKRau4cZdEr8A2lnJ9/3s0z5rt16wh4nNuF++67T9q2betd0L9/f3ch3rcoOw5DxM5vfuP2+UoEAkAARAv+v1OfJQBw2WTsEEjmt7fYTQMdrguBLxHuWmGRi2iBvoiRLT6nDzWB6J5ao0aNKkafvI2lR+UdtVNRclNYdSh5bwaOKFUInKNf/tasWVPUmBs2bFjUfUXfhC+r0Ld44w33pRu6LFZqvuhGeWO5EYCGiVW/+0Q/U0477bRKlzDXVsr56qtFdt218lwE96DpZn8X8+bNk0zEKJ5LEHGLlKGrrhKt8xxB7+lSEhDAexBkJYxESxJmlGMoFQESLaUiyPtDQSCbaLGKAKF0nG8nlj7ksyCuVeWwbb7uxOm6PhAUVuuuocwrINZXl1lEC65DODeNCBCBWCKAVc+DDz5YCtWgQrWyy0zUM6yRv/yy+5KK/n72M9GcjLB6Zj8BIvC0EhCtWrXyNMKGDBlS2dPKlSKjRrlSzsOHO8Kl8mwk9x544AFvLHAuMxYQhD/5ifN3u+1Ezjgjkr7TqWQgMH369MxAqNGSgYI7KUaAREuKJz9OQ7fUIatSEznfDzzQufTBByILF/rmnpFKeBBMqu21114ZIVyUpKzTsnUZWOK5Trh4ARGIMgLD9UvsfvvtlzfZAl2Xn6vGhB9Vi/LGBV+6TfAWAo9/+EPet/LC6CJwyy23SLdu3TwH8WzR0z5bQE4cd5xoXqvIVluJ3HtvdAdR4dlyFext06aN9xsiCvr16+fO/P3vleWcsU8jAgEi8C7Kn6tl0tYC7ItNE4E4IECiJQ6zRB9VKN+lDkUubcjmZvvtK8PIfdRpaZcVmm5aJtZlkrYI34YtXbo0v2Fp2UDPSLTkhxevIgIRRgBky7HHHpv5P1+Tq0gxwhfJ67W0bocOHWq6JJhj+NJ9wgmokyuCNFHqsgSDc8itIvqjV69eXq9VRGNxBKKxiE5Fqo1qnqjoScjeFd7dQw89JEg1hhDu/qiMBIOWkOmxHHKIyNCh7jhfiUAACFAINwBQ2WTsESDREvspTMcAjGiJnBBuNvxW5tnH9CFLq0E3eZMQ2T7FZN8idjKlKOvy29KHSLTUhRTPE4FYIDBgwADVHb1OzjzzTI9QwUO7/YCIuVbL0Z577rnhRrIAuZtvFgF5ji/d//ynaNhDLPCkk7kReFnTwKx0M7RMqogqI/UBJbthv/61iEZcRt1QTrd3796em8uWLXPCviAIx4wRQTQW3rtKUNKIQNAIUAg3aITZftwQaBA3h+lvOhGw1KHIRrRgWqDTMnasyFNPiS7NirRo4ctkQVysqYrX5aVf4kuP4TfyPS2TOnv2bK+iFHJ8M6U1c7kComXWLLfKnOsaHicCRCBWCCAdaCtN1QChki2OHWqaUDZiSAW98EJ3BKlDiGyhxRqBjz/+2CsrDt2zJUuWaEaYzqsZIkCOOMLpsoBgueIKOxPp7bRp06RHjx7KqayUE0880fk6Z47IDTe4/Z/+VJSJifQY6FwyELDUIQrhJmM+OYrSEWBES+kYsoUQELCIlkgTLQjXRZWg9etFNIzXL8PDE+yLL77wq8nItYMvV6j4AJsxY0bd/lnlIUa01I0VryACMUQA5Ir9lMV9/B+HGCq2iGL597/L4gY79Q8BLNi89tprApIF+8OGDdNsME0HgyECBCSFEjFeCWekDOl7MOr2+OOPeyQL/KxXr+KRHmOx6kktW4pcfnnUh0H/EoDA3LlzBQuDMBItCZhQDsEXBEi0+AIjGwkagVgQLYhgOewwB8Udd/gGCXKuYcWWQfXNkYAbWo8vNGpW7rnW7pg6VCs8PEkEiEAJCOCL6iWXgPV1X7ahy2JfyEtolreWF4H7dR47Vnx2QOenS5culQ4hGnXiRDffd97pRHArz0Z2z56NFqoI/8iRI52f8P+VV9xYfv97RxxFdgR0LCkIWDTLFqqhh8UzGhEgAkqAEwQiEAcEYpE6BCAttPzJJyGq4gu0DRq4DL/69ev70l5UG9l6660913rq6rE9POb01YiWiiiYnNfxBBEgAkSgUAQ0SsATREVEg2rDCCoN0WKNwLhx4zJVhZCGu9tuu1WOZ+ZMEaTXwJAqhjTgGNjtt98upmuWqfKC9Kfzz3feq+6RnH12DEZCF+OOAFI9jWjZeeed4z4c+k8EfEOARItvULKhIBGwL96RFsMFAAcdVLl6dNddvkBion1YJUiyQfDSologVlirGdHC1KFaYeJJIkAECkQA/1OMMN9nH5Gf/azABnh51BB45JFHMiQLxG+PgA6LGfTUEImKiModdxRVZLYzkd5WL+e80047ufQnVBnSUs9e2hOidGhEICQEIIQLY9pQSICzm1ggQKIlFtNEJ41oibRGi03T8ce7PZ/Sh7p16+a117p1ay+v3LpJ4tZ0WiBSWKsZ0aLh0jQiQASIgC8IIGXo6KNdpZZ27UR8Ist98Y2NFIUAhGLtuWH+/Ply6qmnVraD+day4vLhh6JK7CJa8jkOuiwYQHY554MPPtiNSasPyU03uX1EsjCywGHB11AQYMWhUGBmJzFDgERLzCYsre7GJnUIE2SroVOnuge4Eicte3VgJkKcE2wmTGhRPDmHakQLLkiwSHDO8fMEESACxSOAEr6TJ1f+WEt//7sIoumQMnTbbSIgW2ixRWDx4sUC7RLYUk3lrRLJgoO//a3IY4+5+b77bvFEj3E84la9nLOnhwHSyARw8b696qqIj4LuJQkBiOAuWLDAG1L2M2uSxsixEIFiECDRUgxqvCd0BGIV0YLcbyuliId1HwwPibA6Iz186KucTey+++5e9yBaZqF8cy7LJlo0FJxGBIgAEagVgVWrXLneXr1EBg8W2Xvvyh/9f6OhDiJaNcOzCy6IjU5HrWNO+cnJSqYhEhRfAgfrnFdJPQbBYtV4LrtM5MADY4MWonRgqESYKeesGjSCxR2QhH/6U2UKc2xGRUfjjMBUvPcqbAC0gWhEgAh4CJBo4RshFggY0VLlQSnKnltUy/jxvnhpFYdWr17tS3tRbaRHjx7y2Wefee5Nx6pzLkOFJ3w5giU8yscNkq9EgAgUjcDbb4uAYBkzxpXvxep/9s/KlSL4ogpi/NJLRf74x6K74o3RQGCs6pN07tzZc6Zp06bSp0+fSseQKoSUIRgIFiNc3JFIv06aNEnwOQlr2LChtxW8fy+6yO3vsYfI6NFun69EICQETAiX0SwhAc5uYoMAiZbYTFW6HTWixXKtI4+G6bQsWiTy6qslu7sZVqnUbFtygxFuYO3atZ53WIWs1XbYwZ0m0VIrTDxJBFKNAEiWffd1uit1AYEvrCiH61MkYl3d8XwwCIzXBQ6rYvepihtDaD1jEL8dMUK0tJ3oRSL33OOiQDIXRHvHBOOREnXooYc6whDkICK28JxAAdxoT2ACvUPFIRPCHThwYAJHyCERgeIRINFSPHa8M0QEYqXRAlyQOlSRBiNagrFUa9WqlddE8+bNS20q8veb+K89KOd0ePvt3SkSLTkh4gkikGoEELUyalR+JIsBhXtOOUVEhVNp8UPgvvvuy0R8fPTRRxq4UhG5gqFgbvE70lIRFfnoo24bk2GinHObNm08bzPlnJGycfPNbgSokNW3b0xGQzeThACFcJM0mxyLnwiQaPETTbYVGAIoZQiLTUQLnLWoFh8qV3Tp0gUtSvv27b1tkl9+8IMfZIb37LPPZvY32SHRsgkkPEAEiEAFAvhSfcUVLlWoUFBwL3RaaLFC4Omnn1b9YhWCVUOFodNMHNZG8Yc/VIrfIpJl223tTOS3EPZt27at5ycIpEw5ZxsjdMuQGkcjAmVAwDRadmalqzKgzy6jjACJlijPDn3bBIFYEi0IR8fKWQnWr1+/zN1vvfVWZj+pO/MqBG4//vjj3EM0ogVVJdasyX0dzxABIpBOBCZOLH7cuBfpGLRYIACBWKQwwEBKjEIkU7Y984zIL3/pjvzqV7ESv4XTTzzxhDRu3Fg2bNgghxxyiBsHIllQ0hkpQ3/9q4hq0dCIQNgIvP7665kud91118w+d4gAERAh0cJ3QeQRWAmiosJilTqj1Q7k4IOd53fcYUMoagsR4BUrVnj3LoLuS8LNwqO9spW5xmoaLTjP9KFcKPE4EUgnAiBJahPUzgeVUu/Ppw9eUzICc+bM8SryQRwWlXgQFVllUQZlZ486yqUOQa/nyitL7jPMBl544QXNRtZ0ZDU8D3Xo0EHk88+dcDMODh8uWrsaezQiEDoCRrQMGjTIIwNDd4AdEoEII0CiJcKTQ9ccAib+ht+aNGkSL1is+hBWRyG+V4JZxSEjXEpoKvK3fv/73xfMO4g1VFmo0Zo1E+na1Z0i0VIjRDxIBFKLQKkkCaIjtDwwLdoILF26VGbMmOGVboaW2/Ya6egREeY2xNUhfgviDeK3EybESvwWw/gcpIoahH09zRlLbTMB3H//2zvPFyIQNgKIInvttde8bnfbbbewu2d/RCDyCJBoifwU0cFYEy0jRzqxPSUN5MEHS5rMb7/91rv/u+++K6mdONzcTEmUJUuWeK7i4TKnWfoQiZacEPEEESACRCCJCKAaIXRZEAH59ddfe+Wc+2aLwYKQOPFEkXffdWk1SOHdYotYQYEKSqY7kxGIx+IDomSRMvS737nS5bEaFZ1NEgKvamVNVMQcMmRIkobFsRABXxAg0eILjGwkSARiTbQgAsdCekusPmSh0LGL6inyzdGzZ0/vTjxcWjTPJk2RaNkEEh4gAkRAEdhxx9JgwJfYYcNKa4N3B4rABI1OMaF4fNHzBGKze7z+epEHHnCEBIiJGInfYhhz586VHj16eCOCbpmnf4HIWBPA3W67yvQh7yq+EIFwEUCq3gKk5qntbpU2w3WBvRGBSCNAoiXS00PngEA20dI0jmJvlj6kK2+iYc7FmumVdOrUqdgmYnXfvppLv6pCjPKpp56q2fcBA9xxRrTUjA+PEoG0IoDIhWwdp2JwKJWsKaZP3pMXAmPHjhUj45Fak12tzmsAaV8XX+za+sUvRA47LK92o3TRlClTPHeQEnXkkUc6jRmUcMZzBIjA//wnSu7SlxQi8NJLL3mjxkJgnz59UogAh0wEakeAREvt+PBsBBDIJloi4E7hLqjeiCaNu/vuvLPw+yvuyA6JnpkSYsH0aNYiz74ms4gWrTLBykM1AcRjRCDFCCB1s1iDrkfM0kyKHWrc7kM6jaXRoIzzURC6zbYPPnCRpEgdgvgt0mtiZhNV182iWZA2DEF8efllkf/7PzeSSy8VUfFRGhEoFwLZ+ix77bVXudxgv0Qg0giQaIn09NA5IGBEyxZxfug9/ng3mSWkDyGiBaUdYXi4TIPtULEijQfOGks9Zz9ooswljQgQASIABLDif/75It27F44H7v3znwu/j3cEjsADmgqEzwPYRx99JCeffLK3n3lBdb4DDhAt0yeyzTYi99/v3guZC6K/gwgWK1W9cOFCOfzww0XWrXN6M3AfkQNXXRX9gdDDxCMAIVzqsyR+mjnAEhAg0VICeLw1HASMaIm1NomlD731lsiHHxYNnAnDLlu2rOg24nQjcu5trC9jNa8mw8M0LCVRPm6wfCUCRKBOBFq3dhodrVrVeWnmApAst9wi+m0+c4g70UAAwrdbbrml5wwWG04zrRJzDxEshxwiysqLKsiKPPGESCFzb+2UeXvfffdpMJWmvql5ujMY169/jRUWRxphwQbvUxoRKDMCb7zxhucB9VnKPBHsPrIIkGiJ7NTQMUPAiJZY6rPYIBB5YdEXf/+7HS14W6+e+5PFCkJa7KuvvvKGWr9+/ZqHbOlDJFpqxodHiUCaERg8WOS55/L7wm0kS/UoiTTjF5Gxv/LKK5koj8WaKjpq1KiqnoGMwIKGVkDxSIjHHhMVcal6TQx+e+eddzJpUYji7N+/vwi+zN5wg/P+3HNFVXFjMBK6mHQE3tKFQ4uyZmnnpM82x1csAiRaikWO94WGgBEtsY5oAVoXXOAw+/e/RVA5oAjr2rWrd1fHjh2LuDuet1juL0SA33777U0HQaJlU0x4hAgQgUoEQLYgyuGyy2pOJULUw0knIRdFNBel8j7uRQIBrJojnaZhw4aCKicQvrUqfBkHr7xSBBpoIMs0IkR22SVzKk4776IUtRr0yY4++mgngGsRsV26iPz+93EaDn1NMAKvv/66NzqQgZv8PSZ43BwaESgEARIthaDFa8uCQGKIltGjnSguSBaEphdhtmrQqFEjsQ+5IpqJ1S09dVUSYeIwrKBsYiRaNoGEB4gAEaiGANKIxoxxhAv+jyDKxX5WrhQZNy6WERDVRpm4X2fMmCGoKtS4cWNZqfM0cOBA1ZavEJe30YJgwdyCZPntb0XDXexMrLb33HOP2GIKFpaaocoiyEGkG2NsKgIscay8GKtZoLP5IJAthGvPpfncx2uIQNoQINGSthmP4XgTQ7QA+3POcTPwxz8WNRPNmjWTRYsWeffOnTu3qDbieJOljbVp02ZT941o+eQTVh7aFB0eIQJEwBDAl1X8II1z770rf+y4XcdtJBCYNWuWzJs3T/C596UuUGy77bablpDVlCIvZQgeH3usyK9+FQnfC3UC+mvNmzf3bsPCwoEHHijy/vuVoreItEIFJRoRiAgCr2qaHoVwIzIZdCOyCJBoiezU0DFDIJFEC8oRP/SQDbGg7ddff+1db9olBd0c04v32Wcfz3MIBL7wwgtVR9GvX+Xvmt9OIwJEgAgQgXgjAH2S2bNne2WN165dK100baZf9v96DA/pYIce6tJr9thDpISqfuVG6/HHH/cIJXyuDx8+vGrKECJ4rr++3C6yfyKQQQApfB9WFHagEG4GFu4QgU0QINGyCSQ8EDUEEkW0oGLCqac6iE3crkDA27dv791h2wJvj+Xlbdu2zXyo24d7lYFoOLlnFMStAgt/IQJEgAjEDYHPPvtMpk6dKq013Qtim+20gtAgE5O3wVQv4/zIIy5ayc7HaDtx4kTp1auX5zHSpHqgJDnKN0+f7sY0dqxoGaIYjYiuJh0BlHWGIaXPE2xO+oA5PiJQJAIkWooEjreFh0CiiBbAdtFFDrwXX3QPUgVCiRx1GMTHEFqdFjMB4M6dOwtWOKvYzju7XyvE2aqc4y9EgAgQASIQCwRANCBqEeQKojeRNrpr9So7Vsb5gw9E6z27Ms4VZZ9jMcgsJzFeqya4ZMkSOeH44yFGJnL55e6qI48UOfjgrDu4SwTKi0C2Psuee+5ZXmfYOxGIOAIkWiI+QXRPZN26dR4MptPx/+xdB5gUxda9TxCQjESJC4KIShBEVCSDCgoqmEDJZjE+ReU9FTGL4YlgFlBAQRAFDEQFEQwECZIEFcREEEUQEcT/v6dqe3Y2zOzM7Mxuh3O/bydWd1ednp3pOnXvOZ7H5LjjrDYABpJAOnAtXe3CxRkCQoFBibP1YhOkG0QCP4CIZXi0amWfLVgQ/iofEwEiQASIgEcQgLPQ7NmzpUqVKqbHhQoVktatW2fufVYbZ2SyeNDG2RkUslkcxxaziKIZPHLxxbZ0CNmrI0c6TXlPBFyDgJPRcuqpp7qmT+wIEXAjAiRa3HhW2KdMCPguowWju+kmO8Zx40S2bcs03lie7N692zRz7mPZxg9tsOKH2L59e+bhtGljn8OeFaK4DCJABIgAEfAMAnv37lXZsrcFGYsIaJV0yEn8Fa5Cjo0zNFmgzeLRwIJB3bp1Te+/++47aQhh98GDrc04BJpxfZBeKuzRIbLbPkVg0aJFRgiX+iw+PcEcVtIQINGSNCi5o1Qh4EuipVs3UR9HC1kCK1bOCphznyrs3bbfY445xnTp6KOPDlk+mxewolm1qu0us1rcdtrYHyJABIhAVASmTJkiNWvWNG2wgHDmmWdmb//66xklNSit6dUrexuPvILsnd9++830Fo5DfXr3FsFvl3M9cMUVImec4ZHRsJtBQmD16tVGOwljbuVkEwcJAI6VCMSBAImWOMBi04JBwJdEC6B0tFqeeSZuYGFziaisbgTbEsiIifuALtkAaeRO2VS28qG2bW0voX3DIAJEgAgQAU8gMHr0aElLSzN93aUit+eee272fr/zjgj0SxA9emQQLvYVz92+8cYbKi+j+jIaZgHh118zxqcLCfL4454bEzscDAQ+S9fCq1evXqjsLRgj5yiJQPwIkGiJHzNukc8I+JZo6d9fVOlPBO4JL70UF6qNGzcOadfAnSFI8c8//5jhQhwX6eahcMqHSLSEIOEDIkAEiICbERgzZkzIcQeZHd27d8/eXS1TEGSBQp8FhPrkydnbeOiVhQsXhkqGNm/eLM2aNhXp18+WvaJkaNIkkZIlPTQidjUoCEAI95NPPjHDbdGiRVCGzXESgYQRINGSMHTcML8Q8C3RUrq0CNKDEQmI4sICE+HcmycBuIEo7p49e4wo7rvvvpsxYkc0ce1akV9+yXidj4gAESACRMB1CIBkqZ0uZLt161bp2bNn9j5C8L1LF0uyNGkigswWkBEeDTjmOVmo0Brr17ev1ZyBqC/iv/8VadbMPuYtEXAhAhDC/Zf+D1II14Unh11yHQIkWlx3StihrAg4REvRokWzvuX959dfb8cAm+Y5c+Iaz+GHH27aO/dxbezhxiV1pc8pH3JsMc1wUE5VvrwdGXVaPHyG2XUiQAT8jsDYsWNDJMuWLVukNzRKsgbEzTt2FFE9E6lf3/5GliiRtZWnnk/SbJUKFSqYPsNBUDSLR667zo6hUSORe+/11HjY2WAhAF2hdbhe1aA+S7DOPUebGAIkWhLDjVvlIwJwH0D4klBALbZTj/7kk3Gh6tS0Q0AQq2RBCkcosWLFispPhRFU7dpZGFg+FKSPA8dKBIiAhxAAyeL8fn3//ffSF1kdWQPaY+3bW1c+OBHNmyfKUGRt5anny5YtC5VJffPNN9Li5JOtoC9cBI84wpYMaaYAgwi4FYG5c+earpUtW1ZOgEsWgwgQgagIkGiJCg/fdAMCf//9t+lG4cKF3dCd5PfhxhvtPt9/X3SpIOb9N0Vdd3osWbLEeRiIe1iAbtq0yYwVF+qhcMqHmNESgoQPiAARIAJuQAALAuEkCzRZLrvssuxdQwYLMlnU8tiQKyBZ0m2fszf2zitfffWV6ezOnTvl4osuEnnqKes0BHLl0UdF0kXuvTMi9jRICECf5cMPPzRD7tSpU5CGzrESgYQRINGSMHTcML8QOHjwoDmULzNaMDJkYRx3nIVzxAh7H8NtCU2h/g4XohrOfQyb+abJiSeeaMaCGv8vUcePcIiWFStEhVzsa7wlAkSACBCBAkUAdsawcHYyWaBPkqMmy59/inTuLPqlLoIyIWQsomzI4wE9Ggi4I+AWWAILBLfcYkeF361Bg+xj3hIBFyMAt0fos7Rzsodd3Fd2jQi4AQESLW44C+xDVAR8T7Rg9LfeajF47jnrQhQVkYw3HWycrJ+Md/z/qJkKBqK2HwFxNhPqxqR+g/Yxy4csDrwlAkSACBQgAiBZpk2bJkaTRPsBkuUiZHRkDbgKnXeeyOLFVvAWwrcQwPV4LNbxOKK/X6vuTKvTTxcFwAr8wuL5tdc8PkJ2PwgI4P92w4YNZqjtUdbHIAJEIFcESLTkChEbFDQCDong29IhAAyrZ1xwIV54wd7HcOusDtapUydwOi2A58h0zOrWrRsSyDX2n3iT5UNAgUEEiAARKDAEIJ4JkqVGjRqmD7+oI1xEkuXSS0Vmz7YkCyyc27YtsH4n68BwyEOJFMKM/cIL7cLK6tV2nKpXI1Wrmvd5QwTcjICjh1epUiU55phj3NxV9o0IuAYBEi2uORXsSCQEnKwN35YOOQN3nAf+9z/nlVzvO3ToECJYFgSQWOjatavs2rXL4DRz5kyLl1M+xIyWXD8/bEAEiAARSBUC0CJ59913QyTLbhV97dGjR/bDIZPljjtEXn/dkg+jR4s2zN7Og6/AZah8uhseSodKLVok8sQTdiQDBojobxiDCLgdAeqzuP0MsX9uRYBEi1vPDPsVQiBwRAvcFl56KTT+3B44q2U//vhjbk19+f6+ffvMuEo5JUMO0fLZZyL79/tyzBwUESACRMDNCIBkma3ZKRAuR0AI91zHYS9rx6FNBjFY1X6Q++8X6dcvawtPPn9fBe6RbYnY/O23cpo6BAqydhDHHy/y9NP2MW+JgAcQgOMQ9FlYNuSBk8UuugYBEi2uORXsSCQEAlE6hMGrQJ5cfbWF4e67YyYJYHGMqBrQ9GNktexXQgV2g2+99ZYILDOLFbM4Llxo73lLBIgAESAC+YLANl0sAMni/CaBZDn77LNzPjayWG6+2b531VUiQ4bk3M5jr/78889y6NAh02ssgvQDedS9u8ivv1orZ/xWwdKZQQQ8gMC3ShQ6pgsUwvXACWMXXYMAiRbXnAp2JBICf8KFQMP3pUMYJAgWkASo6X7mGbySa7Rq1cq0KV68uMqSLMi1vd8alClTRn744QczLCe7JeQ+xPIhv51ujocIEAEXI7B582bzO+SQLCDBI5Is6kJkMjxQOtSzZ8y/eS4efqhr7733npQsWVIOHDggjRs1sqVRS5bYrJ1Ro0Tq1Qu15QMi4HYE5s+fb7pYU7OyHG1At/eZ/SMCbkCARIsbzgL7EBMCgSBaYP94ww0WjwcfRL51rthAEBarDYhNmzbl2t6PDVqnlwshTX0RauCd8qEAEk9+PL8cExEgAu5HYM2aNbJixQqBWCYCGR1nnXVWzh2fPj3DeadbN5EJEywJkXNrT70KXRYI1CMggHv81q22NAovQAwX4vcMIuARBKDPAltnRMeOHT3Sa3aTCLgDARIt7jgP7EUMCPjadSh8/HfeKVKiBK7QRIYPD38n4mNksyAcF56IDX36Rj1dHYRtJmLdunUibdrYkaJ0iDotFgveEgEiQARShMDnn38uyGZBCSeyUIsUKSIQa88xQLLAxhmZLCBZ3n7bNyTLxo0bpVy5cmbYwKMnMk4dXRZksUDol0EEPIYAHIegz8KyIY+dOHa3wBEg0VLgp4AdiIaAUzaENoHIaMFA9ULVODDg8WOPWcIFj6PEaaedZt7FBd7y5cujtPTvW47oIO43V6+eMVCdADCIABEgAkQgNQjMmzdPYONcQhcIfv/9d6PN4vwmZTtiOMmCbBcfkSwY62cqwg6Sae/evdIRRFNWXRYsojCIgIcQWL9+vWzfvt30uFOnTh7qObtKBAoeARItBX8O2IMoCDhCuGgSmIwWDBbigLCEROnQAw/glahRo0YN2Yr0ZI3Vq1dHbevXN9toFouj1WLSXDt3tkN1bJ/9OnCOiwgQASJQQAjMmDFDChUqZMgFOA0dr246jRs3zrk3+C52MllAsqiOiXEayrm151595ZVXpHo6yQ9Mqj/7rIijy/K//1mnIc+Nih0OOgKOPkv9+vVDZYFBx4TjJwKxIkCiJVak2K5AEHCsnXHwwGS0YLBY9YIwLuLJJ0VZFPs4yi3qaBGBIqSy4FEs3W3oKNW6+atLF/suXC0YRIAIEAEikFQEJk6cKKVKlTL7hLPO6aefLkcffXTOxwDJgu9k/E61b+87kmXp0qVSq1YtM/avVSutc9GiIg89ZLFAedSVV+aMC18lAi5GIFyfhWVDLj5R7JprESDR4tpTw44BgcASLRg8RHE1U8XEvffa+yi3zioiBGGDKorbo0cPIz54hNpmTtMVRRNaJy9r10ZBjm8RASJABIhAPAiMGTNGqlSpYjaB7SuchZzn2fYDIc1wkuWdd3yVyQK3O0eQHuK3F0KM/eKLLQy1a4u8+mo2SPgCEfAKAnPnzjX6LO1BkDKIABGICwESLXHBxcb5jUBgS4ccoIcNs49eflnkm2+cV3O8B9GyY8cO8x7qxIMaEGxDlFAbwoOnnGJhmDrV3vOWCBABIkAE8oTAy/p7VBsEggYIhj59+kiZMmVy3idIlnPOsZksmvEiIFmUCPdTvPbaa1KxYkUzpKOUfCo9YICIllGZsij89pQu7afhciwBQmDlypVGfwlDpuNQgE48h5o0BEi0JA1K7igVCAQ6owWA9usncuyxFto77rD3UW737Nlj3g3HLUpzX77VXcUHf/75ZyPM+EVamh0jiRZfnmsOiggQgfxDAJkbY8eODZUHwemtfzSrYodkURcirSsSQfmQz0iWadOmiSPE/q0uhpwGsd9FiyzJMmKESJMm+XeCeCQikGQEHH2WRo0aGUexJO+euyMCvkeARIvvT7G3BxhOGARKoyX8tDliuJMni+jqQrSAzTEiTQmGbdu2RWvq6/cc3YCQTssXX4h6j/p6zBwcESACRCBVCOzatUumKmGN3xYEMlkGDhxoHud4s3ChzWQByYLMQpAsPnPcgRtLUWixaECMvj9snR991MJx7rkigwbZx7wlAh5EgPosHjxp7LLrECDR4rpTwg6FIxD40iGAAXtIx8Uhl6yWVq1aiZPVshAXugEN6AXAgeiQatz8oiVEJt56K6BocNhEgAgQgcQR+P7772X27NkhRx1kDEbNZMFvD1zfHJJFt/UbyYLsni+UwIcA+586zo6VK4tcdpkFuWFDkQkTEgecWxIBlyAAB0eUY1MI1yUnhN3wHAIkWjx3yoLVYWa0pJ/vxx6zD7Aq+NFHUT8ETibL7t27o7bz+5uOMOOejh3tUFk+5PdTzvERASKQZASg0bBELYpD36dannrJJZdEPsqnn1qS5Y8/bCYLSJZ0Z6LIG3nvHeiywN0OUVh/a4+6/HIRJV+0vsLq0BQv7r1BscdEIAwB/N//gf9jjQ4dOoS9w4dEgAjEigCJlliRYrsCQSCcaCnhs7TjuAAFWQAnA8TgwfY+wm3VqlXNO7DZdH4kIzT19cu4MNis5UI7oA2A+PhjUUsi+5i3RIAIEAEiEBWBWbNmyU8//STltCQGGRwo3+3atWvkbfAd26mT6A+PSLNmomkwviRZwnVZvlGdmk6jRqF2yOqyTJki4mRRRkaK7xAB1yPw4Ycfmj6edNJJRvPO9R1mB4mACxEg0eLCk8IuZSDwzz//ZDwJ+iOn9huOQjNmRESjtUPIaAtHyCxiY5+/0aBBA/lD3TH2p9uQCi6CGUSACBABIhAVgfHjxxv9EZTG7FQHnTp16kjLli0jbwNSBb89e/faTJZ583xJsmzatCmky4Ly1AGq02JIfC2vkIcfxtJ/ZIz4DhHwCALUZ/HIiWI3XY8AiRbXn6Jgd9Cx6g02Cumjb9FC5Pzz7ZPbb48IScmSJQUXgwisRgY5Wihm36gTxPa2bS0M1GkJ8seBYycCRCAGBGDfXL16ddNyy5Yt0la/P4913O9y2h5lmWedZS2cQTSAZIlk95zT9h567TNd6HB0WTr8/ruIU9YL8dtcsk09NEx2lQgYXSZcg7dv355oEAEikCACJFoSBI6bEYECQcBxIFq3LqrYHlYfEbCddDRbCqS/LjhoE7XX3KkiwSY0FV5wccwgAkSACBCBTAj89ttv2eyb+/btKxUqVMjULtOTV14RueACS7KAbJgzR8Sn+iQgoKpVq2aGX1LLUqvcequFAiQUxW8zfSz4xNsIvPvuu6EBwGSBQQSIQGIIkGhJDDdulU8IMKMlC9BaCiN64WvinnuyvJnxFCsQO3bsMC/MwYVvgKNp06ayvEgROVC+vEVh+vQAo8GhEwEiQASyI4AsSDgLpaXbN3/33XfR7Zuxi5EjRe2HLMly6aUiyBhECY0P47333hPoniG+X7VKWj30EMVvfXieOST8O/+fvPPOOwaKzuoeVtynxCnPNRHIDwRItOQHyjwGEUgmAsOG2b2pCF8obTmH/cNyEgEBw6BHmzZtQqK42597LuhwcPxEgAgQgRACixYtkvWqNVKpUiU5cOCAEb7t06dP6P1sD3QiJnfcIXLDDZZkGTBAZNw435IsIKGcRR/oslw2eXJm8dt0AiYbTnyBCHgUgem6IIXP/DnnnOPREbDbRMAdCJBoccd5YC+IQOwIwNHgzjtte2S1wO0gh2jXrp15tXLlyqrVp24QAY569erJqvSL4Uo6qZB0EirAkHDoRIAIEAFNQnlL4O4Hba/dalNcXjP/unTpEhkZkCxXXSXyyCOWZLnpJpGXXvItyQIgoMtyxBFH6M/Gn9Llgw8yxG9Rykvx28ifFb7jSQRWrFgR0vc7F+WADCJABBJGgERLwtBxw/xAwFlFyo9jeeoY//2vSI0aNnX56qtz7HoNfR9CsAisVgY9jh00SP5OT4Fddv/9QYeD4ycCRCDgCIwePdpYNwMGCKejzLIZbJkjBUiWXr1EXnzREisgGp54wtckS7guy1Fqd1tOMTMB8V9nwSMSXnydCHgQAUefpWHDhlK1alUPjoBdJgLuQYBEi3vOBXtCBGJHAISBUwKjteOmNj6HrZHNgoAo7p49e3JoEZyXaqvN87eNG5sBl//oo+AMnCMlAkSACIQhsFctmEGyOKLp3377rXTt2lW5eyXvIwVIlm7dRCZOtMTKqFEiQ4b4mmR58803Q7osf+jvbJPhwy06EL+dNCkSUnydCHgWAeizzJgxw/T/7LPP9uw42HEi4BYESLS45UywHzkiwIyWHGGxLyK9+6KL7OPrrhNlUrI1xg/l7+kuOxDzC3pUQsq7RvXly2XKlClBh4PjJwJEIGAIbNy40QhdOiQLsh77q6AtSocihhIz0rq16IaWWIEeyzXXRGzuhzeWLVtmyqgwlt+WLJGzn3/eDuvII0XwW1qqlB+GyTEQgUwI/PLLL/L5559TnyUTKnxCBBJHgERL4thxSyJQ8Aj873/2gk/TvuXuu3Psj+M+BJHDoEcZJaYOqQNR4X37pMrKlUGHg+MnAkQgQAjMmzdPIOxapUoVM+pff/1VBkDINlpoG1ExcRX6siQLnIXgMOTj+PnnnwWuS4g/Vfy269NPi65Y2PFjtV+zIxlEwI8IONksZcqUkdNOO82PQ+SYiEC+IkCiJV/h5sGIQJIROOooEdTJI0C6rF5tH4fdtmjRwjxDWjhEzgIdKmh46IwzDAR1FItxWJllEAEiQAR8jsDYsWOlUKFCRtR1165dUrZsWTn//POjjxpC65hsaQageryKzJkjEgBxTNhclytXzoj9tlLR30LAAbbVcBvi5DP6Z4bvehaBcFtnug159jSy4y5DgESLy04Iu5MZAZYOZcYjx2fXXy9y0kn2rYEDszU54YQTZMuWLeZ1pEMHPYpomjyikgobgnyCPgGDCBABIuBHBECqgGRJS0szw9u8ebO0atVKmjRpEn24X34pApIeQurqRCTz5wfCYQfitzXh7KdaFUerhXVJLF6AZLn3XpEePaJjxneJgMcReP/991k25PFzyO67CwESLe46H+wNEUgMAb04NKG15DJyZLZ9OPX3Tsp4tgZBeqF7d5EKFaTwH39IZU2l/1AJFwYRIAJEwG8IIIMR328OyQI9ln79+knFihWjD3XuXJGWLWFFJLqxyKefijRvHn0bH7wbLn5bWjNEa6hWhYmePUXuussHI+QQiEBkBObq/z0szBFnwVWLQQSIQJ4RINGSZwi5AyLgAgQaNRK56Sbbkf/8R0RrzMOjc+fO5ge0RIkSMnXq1PC3gvn48svNuI/SenuIQlIoOJgfA46aCPgVgbdUS+W3334zgq6YPEGjK1c9FoAxYYIIyiuhSQJy5bPPYFvnV5hC4woXvz1cS4SaTp9u30Op0PjxoXZ8QAT8iEB42VAb1WSCRguDCBCBvCNAoiXvGHIPKUSApUNxgIvUZogc4gL5xhszbVhc6+t/UFE/hONClKlB0J6kuw+VVUHc4t9/b0ioPzTDhUEEiAAR8DoCKH8xGiM6kG3btpmMljPStakijg32zffcI9K7tymbESXnZcECrbGsFHETv7wRLn5bWLNCWz7zjB0aRG8hfvuvf/llqBwHEYiIwGQlGHHNTVvniBDxDSIQNwIkWuKGjBsQAZciULq0yKhRtnNvvCGitbbh0QhZLxppaWmybt268LeC91gxkA4dzLjLa4ZPedUgmDRpUvBw4IiJABHwDQLfK2n86quvytFHH23GhFKhLl26SIMGDaKPESQLCJZhwyzJAuvmd98VVc6Nvp1P3nXEb4tpqdQp991nRwUb55kzRXDPIAI+R2Dt2rVaKailghoUwvX5yebw8hUBEi35CjcPFi8CzGiJEzHoj2AlEnH11epNaett8fTkk0/WiiJbUrR48WK8FOy44goz/urQI9BACdGaNWvMY94QASJABLyEwKJFi9QcaLkVctWOw54YpUKlSpWKPgxkQCLbBSVDyNx4+GFL2ONxAGL06NEGs8KKw/G33CKF9+yxOCCT5ZhjAoAAh0gEwKsqsapRtWpVOfbYYwkJESACSUKAREuSgORuUo/A/v37U38QPxzhuefsSqReaJsVyrAxoQ4XUSkA6eBhw8754cUXixYiS1G9sD4Mtp0aS5cuzbktXyUCRIAIuBQBZLEcPHhQSmtW4x79PsMCRZ8+fXLvLVawIXoLshnECrL6br89MKUy06ZNMwT7YX/9JfW13LYUFiKAAzRZaOOc++eHLXyBQLg+Sw86a/ninHIQ7kGARIt7zgV7QgSSgwCsKYcOtfvC6uSGDaH9OnX6WOWkKK7Cki6K2zTd9rpWrVoCEUkGESACRMDtCKBU6JVXXgllsfz444+CElGIWeYajn0z7suWFfngA5ELL8x1M780QFanEfzUxYd6t90mFdX22gTchXr18sswOQ4ikCsC0O1buHChIWhZNpQrXGxABOJCgERLXHCxcX4jwNKhBBEfPFikYUO78cCBoZ1Ai2TTpk3mOVZAAx9XXmkgKKnOGtthja1RuHBh2b17t3nMGyJABIiAGxGYM2eOwL4Z5DACeiy9lCBwnkft8/z5NpNl61aRGjVEPvlEpG3bqJv46U38Bu7atcvo0dTTRYmjVq+2w4ONs7NI4acBcyxEIAoCTtkQTBM6deoUpSXfIgJEIF4ESLTEixjb5ysChQoVCh3v0KFDocd8EAMC6jxhQmv35aWXQhu0Tb+grly5Mm2NUYPfurXB5jxNG//ll1+MpsGUKVNCePEBESACRMBNCMBV6PDDD5eSJUvK3r17BWW1MVk3YxDQYmnf3rrTnXCCtW8OkCYDLK9h5Qzs6qp4fLWPPrKn9pxzMnRq3HSy2RcikEIEwsuGnIznFB6OuyYCgUOAREvgTrm3BoyLSSeYgeEgEeN98+Yi6TbGggyXnTvNhnXr1g1ltZhVvRh359tm6aK4RVTn4Ih0lw24dmC1mEEEiAARcAsCG7QMdIISJY6r0JYtW6RJkyZy1lln5d5F6HMNGZJh39yxowhI+KOOyn1bH7V4++23BYsMNSdOlOpvvmlHBp2a6dMDo03jo9PJoSQBAWS0IHucZUNJAJO7IAJZECDRkgUQPnUXAiRa8ng+HnpIpEIFkV9/FenfP7Sz5iBhNKpXry7zkUYe5LjsMiOKCyKqi7o0IQUf8SW0CxhEgAgQARcggCw7fDdVq1bN9AYkS9++fc13eK7d06wX40aH3wMQLtdeKzJ7tqh6bq6b+qkBMoHS0tKksurR1Hn+eTs0ZPW89x5JFj+daI4lZgQWLFgg0GhBdOvWLebt2JAIEIHYECDREhtObFVACIQTLQcOHCigXnj4sOXKiYwZYwfwzjvWtlOfNW7cOEQofPvttx4eYJK6rhMWEy++KO3atTMPQUJN1FVPBhEgAkSgoBDAJAgEQQUlzJFx96uS5kWKFDEkS0x9gsgriPVZsyyZoJl7MnJk4IiFcePGmUyg8qpH0+C++yx0mrloHJcCRjjF9LlhI98jgLKh90AyamDxDd8xDCJABJKLAImW5OLJvSUZARItSQAUtefXXWd3dP31SNUwj1FChKhdu7Z8/vnn5nFgbxx8dDJS+7DD5DtYY2vAlWLbtm2BhYUDJwJEoOAQwPfybM08cUqFkNHSqlUrdR4+LbZOwUmoaVOR9ettZiNKhXr3DhzJMnPmTNX8rSFl1qyRhv/5j8VOy4eM0xLuGUQgoAi8mV4+17lz54AiwGETgdQiQKIltfhy73lEACt3Tvz999/OQ97Hi8Dw4SJIkUba+AUXiPzxh2rAthbYgyJWrVoV7x791R6iuKeeasekWS19+vSRHTt2mBXkGTNm+GusHA0RIAKuR2D8+PGyb98+s8qMbM6ffvrJCN7GvOr8xBMi0GFB2Si++5cvz/iOc/3ok9dBkFXQnyihmT0NoVWG30BksMydK+qLnbwDcU9EwGMIrFa3LZC3+P84//zzPdZ7dpcIeAMBEi3eOE+B7SUzWpJ06iHyCiedYsVEVFBRbrrJ7Ni5aEd2y7p165J0MI/uJl0UV9Jr9ytWrGgGAmwWYSWYQQSIABFIMQIo5Rw7dmxIe+VndUODeGtPWA/HEiASLrlE5NZbLanQvbt1FoKNc8Bis5IryEgsq25yjfQ3r7ASV8qeW00WkE8MIhBQBFA2NHXqVDP6mko4opycQQSIQPIRINGSfEy5xyQiUKJEidDe6DoUgiKxB/Xri2CVEwG7Z00ZhVsFVkoRgScTIBaMzxvcmaZNE9hgb9q0yWCzdetWc88bIkAEiECqEHjjjTe0yme9EWzFMfD9A4HKmCdBP/4ocvLJIpMm2S4OG2YJ9uLFU9Vl1+53z5498umnn0p5zYRtcvPNUnT3blsypa5DApchBhEIOAIQ2EZcfPHFAUeCwycCqUOAREvqsOWek4wAiZYkAHrNNSJnn213NGCAiK6eFkOWiwYyNwJPKGjJkIkXXjB3Xbt2lT/ViahKlSqqKTzGvsdbIkAEiEASEfjhhx9MFkulSpVMuSIEcFEudPnll0vxWEmSpUtFTjxRBPclS4q8/77IXXcFTo/FOS2YRNZQ7JpoJkvR7dstDmqNLWec4TThPREILAIbN26UNapZhLKhHj16BBYHDpwIE8uOlwAAQABJREFUpBoBEi2pRpj7TxoCdB1KEpRwnVDiQD39jF4LanN3IotDYxacKYIcIKIQUOLXTB+k7EMnAVFbRYMXL15sHvOGCBABIpAMBJC+/8UXX2TKYjlV9aLOiIcQQAYLMllAKKh9sSxZInLmmcnonif38bJmbB5TvrzJZCkOYXOdTMqTT4rWX3lyPOw0EUg2Ak42CxaRTsZ3B4MIEIGUIECiJSWwcqfJRACWlghmtCQJ1SOPFPUttjuDQOIdd8ihQ4fMczgzQBMgsNGwochJJ9nh48JcA6s9X3/9tXmMMiukpDOIABEgAnlBAN+zo0ePliP1+7ikZqDgewWkLrJYHH2oXPcPPZZbbrEEAh6rI5ERvT322Fw39WsD2DjX18kjyoVKqNCniXvuEbnxRr8OmeMiAnEhAH0Wx23ooosuimtbNiYCRCA+BEi0xIcXWxcAAo4gLomWJILfpo1NK8cuH3lELtbVP6SrFy1aVDPONeU8yHHDDXb0I0daxw59du6556p5x69SXnGa5OgfBBkjjp0IEIGEEXhPM+aWaNZJnTp1zD7g/NG8eXPp0qVL7PtE9kq7djZTAyTLoEEiCxaIlCsX+z581hKr9LV1/I2VfAqRLLqQICBaGESACBgEvtMsr+W6yMayIX4giEDqESDRknqMeYQ8IuBYPLN0KI9AZt383ntFWrSwr/bqJfvTrZ6RSrobwoFBjd69bfq9arMIyBYNuDOVS5/AQMsm8GRUUD8bHDcRyAMCv6j7zcsvv2x0V0qVKiV79+6VXbt2GdtmfO/GHPPnizRpYokVlMWgHHTEiMDqsQC3mTNnSmXVZAHJUkr1J0zAXe/BB+1j3hIBImAQmDx5srlHNl0rZMExiAARSBkCJFpSBi13nCwEmNGSLCSz7AcX6OpyIXrBLzt2SHf98YXwK0q1pk+fnqVxwJ4OHmwHjPIhEC4acCFySohQavV9OjFlG/KWCBABIhAZgdmzZ8vChQvl6KOPNo1g43yiitd2h/1yPHH//SLt2xsNKalVS+STT0RADuP7PKABxzz1i5PGammdiWSBy16AcQnox4HDjoIAy4aigMO3iEAKECDRkgJQucvkIkCiJbl4ZtpbzZqiQgHmpcK6Slox3VmnTJkymZoF7glEcStWtKVDzz8fGv7AgQONhg00FebOnRt6nQ+IABEgAjkhgOxAZLEgM7Ns2bJGh2WHEtv91U6+WrVqOW2S82uaDSOdOoncfbcISoU6dxZZsSIjKzHnrXz/Kkog/lA8Gyk5XnrdOjtefH+TZPH9uecA40cA2lCwPWfZUPzYcQsikAgCJFoSQY3b5CsCDtHC0qEUwX7BBaK562bnJ2lWS7GVK6V06dLy+uuvp+iAHtmtro6aGD48U4fr169vnqelpclrr72W6T0+IQJEgAg4CMyYMUPmzZsXymLZvHmzNGjQQC688EKnSWz3n31mS4Uccld1teTdd0WZm9i292krWNT+qPo2LZR8KrN6tR0lSJZRo5jJ4tNzzmHlDQFHYw6l0B06dMjbzrg1ESACuSJAoiVXiNigoBFwNFoohpvCM/HUU6L+xeYADYcNk0LqflGiRIlgO+zggh1lVT/+KLokHQIf6f5O2VDVqlVlzZo1off4gAgQASKAsqCxY8fq10cp4yqEkkw4lvXr18/YxMeF0OOPi6jds37piFSvLlp/JILSxoCXxADPNcuWSUvVYAmRLFgwIMkS18eLjYODAMqGJqY7Tl5yySXBGThHSgQKEAESLQUIPg8dGwJORguJltjwSqiVlsKIOjYgSqg4Yz29eEVWC1wcAhsgWSCmiIAuQlhcdtllgtVpxErNAGIQASJABIDA+PHjZf369YKMNwRIl2PVbrlnz57mecw3v/0GuzOR226zpUIdO9pSoZYtY96FXxtCVPjDDz+UNo8+KuW++MIOEyTLSy8FnoDy6znnuPKOABaIPtPsOJQNkWjJO57cAxGIBQESLbGgxDYFioBDtLB0KMWnoWlTEayealRRccGj1IK0tma5bN26NcUHdvHuQbSoOLCyKlY4OKyrHXXis08zf5DVMjpd5ybsbT4kAkQgQAgsXbrUlFtW16wTCIrDDn7Pnj1GiwXfo3GF6o4YVyGIkkOPBQ5xKqar/vJx7caPjfGdO+vtt6Wz/laFSJZLLyXJ4seTzTElFQGQwIhKlSrRbSipyHJnRCAyAiRaImPDd1yCAEuH8vFEqDWmEVzUQ9ZXbZISuho7a9asfOyAyw6l9ody1VW2U/fdl6lzmFA5WVZ16tSRBQsWZHqfT4gAEfA/Ar9p5gnEbmHVfNRRR5kBb9q0yegfdO3aNX4AnnlG5KSTRLZswYxINHXDCuAGvFTIAXKqCrafo0K35UBGIUCyjBvHTBaLBm+JQI4IhJcNXYr/GQYRIAL5ggCJlnyBmQfJCwLFihUzm+/fvz8vu+G2sSIwYYJIhQqmdaM775QG+niZ1sIHNhxR3C+/FHn//UwwnKup/ZhUIXZpyRUmXQwiQASCgcC0adNkvrq1OZbNP/zwg8Cx7fLLLzell3GhoESNquSKDBpks1jatLGlQm3bxrUbPzceN2KEnKckS+m1a+0wUS5EksXPp5xjSxIC36ho9KpVq1g2lCQ8uRsiECsCJFpiRYrtCgyB4sWLm2P/8ccfBdaHQB0YtsZvvWWGXHTbNmk0ZEiwBV9hwaoTJxMPPJDto3CBujZBMwAq/oHWtMmGDF8gAv5EAOQqxG5BqsCyGWK3P6poNlaKIZYdd3z+uS0VgiYWSoX0O9dksqRnyMS9Px9u8NqTT0p3JVlK6oTRBMTKqcniwzPNISUbAWSzvPLKK2a3yMRt3rx5sg/B/REBIhABARItEYDhy+5BAO43CBIt+XhOTj9d5NVXzQFLrVsnZ6kGCaxKAxv/+Y8dumrXyMcfZ4IBE60qVaqY1+rWrStTp07N9D6fEAEi4B8EXtXvxa+//jokdgvSpWHDhtKrV6/EBgn9lVNOEd2p1WCZM8eKb7NUKITnJBW97Y5SVpRTIe66i+5CFgneEoGYEJiATGWNPn36xNSejYgAEUgOAiRakoMj95JCBEi0pBDcaLvu3dvaiGqbSqo/UnvSpGit/f1eWprIxRfbMaojU9ZoqU4gSM1FQAgTTiMMIkAE/IPAzJkzjTVqzZo1pWjRoiaLDRpNKBPCKnHcAYHtFi1Ehg61WSwdOoisXi0CdyGSLCE4Jz/yiJynREsxtXM2uGhmixEHJkYhjPiACERDAKXfuD6h21A0lPgeEUgNAiRaUoMr95pEBEi0JBHMeHf18MOyH1oBGifoisj8f/873j34p72T1QKdFui1ZIkBqhcAjQYQLQsXLszyLp8SASLgRQTWaUYfyoSgFeZkrmHS0rlzZ9UN75TYkOBS1qiRCEqGoEEG8gCZLCwVyoTnVBUgP1d/g4pqaaYhWVAqBCc4kiyZcOITIhAJAZQNTUpfJINo/wknnBCpKV8nAkQgBQiQaEkBqNxlchEg0ZJcPOPam17QFtOSod/UwhjRauRI+U3FHwMZWh4gXbrYoWdxIHLwaNy4scCGHKvetHx2UOE9EfAeAhC3xv/wNtWpSkNGm8ZmzUKpoOLgIFUd7TDzRqw3avks3bpZzSe1ftaaI1GlcZIHWfHTyeGMe+6RbprJUgQC4yBWMFmE+C2DCBCBuBCAPguyWfr37x/XdmxMBIhA3hEg0ZJ3DLmHFCNAoiXFAOe2+1Kl5PC5c+WACj8WUhKhyPnni+zYkdtW/nxfXZhMvPGGyFdfZRsjVoscLSGsHr3zzjvZ2vAFIkAE3I3AxIkTZZHqMeF/GLF9+3bZt2+f9OvXL/EV4XnzRI4/XlTsypYKwc1s5UqR445zNxj53TslWd5XkqWLkiyF4cQEkgXi7HBkYhABIhAXAnP12m1H+vVawjpScR2RjYkAEQhHgERLOBp87EoESLQU/Gkp0aCBfDR4sOlIcV1h3A8dgSAGRIJbt7Yj14lATnG+ElGO5XPhwoW1yih7mVFO2/E1IkAEChaBBapF9dprr5kSoVJKMINc+f777+Wiiy7SZLb0bLZ4u6jEgdx4o2idkQh0RqDngqxAfH+ARGBkIKBYzVPHpTMVm0L798sh1cL5C2T1uedmtOEjIkAEYkIg3G2oVatWUrt27Zi2YyMiQASShwCJluRhyT2lCAESLSkCNs7ddtQL4EWYMGgUW7UqQxw2zv14vvkdd9ghvPyyqKdrjsOBQOZ3331ndB3Wrl0rKENgEAEi4E4E4CKEMiFMTKqml0mCLG3WrJlcdtlliXca35PQRBgxwmax9Oxp9Z2ge0WSJTOuiv3Hqr/SQTVZDvvrLzlYvLgcUD2sookSXJn3zmdEIHAIILv2zTffNGVDdBsK3OnngF2CAIkWl5wIdiMyAk4tvFOSEbkl30k1An9rtsYWZ+KB8pkIWiWp7keB7l9FMM3kCZ1Qy9FIAaHM3bt3S6VKlWTatGmRmvF1IkAECgiBPaqTMmbMGNm6dWuoTGiLWgiXLl3auAlVrlw58Z499phIkyYiSrSKll3qjEcEFqt4zMiMgJIsKy65RE4HIaVxoEQJOaglD0e0a5e5HZ8RASIQMwKTJ0+W/ZoZBiHvS/T/i0EEiED+I0CiJf8x5xHjRIAZLXEClsLmbXQldp5e/O487TR7FK2lF/0xD1zcfbcd8nPPiVoN5Tj8o9RBpGLFiuY9pOxiQscgAkTAHQhMmTJFoF/gpNPv3LnTEKN9+/aVpk2bJt5JLTWStm1FUGqpBIIpNUT5YPfuzGLJCVXF6Jv27aUJiHuNP/Q784CWVhU/9dScWvM1IkAEYkAA2XmvvvqqaXneeeeJcx0dw6ZsQgSIQBIRINGSRDC5q9Qg4PxAMKMlNfjGu9fTlGRZq0TD3rp17UTi4otFVqyIdzfebg9hRpQE6GqROLbPOYwIWMG1BIEJ3cyZM3NoxZeIABHILwRmzZqliSUTjHtQuXLl5M8//zRlfhdccIFKgeRRC+TFF62TkGq9mIAOC/RYoMvCyI6AYv+jklp1gJHGr2lpcvDjj6XkSSeZ57whAkQgMQR+1LLm+fp/Bbchlg0lhiG3IgLJQIBESzJQ5D5SioBDtPz+++8pPQ53HhsCxx57rGzUVdtVDz0k+3WiYlZtzz7bCj3Gtgt/tHrqKTsOtU6U5csjjuliJaIccVw0ojhuRKj4BhFIGQKLFy82K7xFVWC1WrVq5jj4v2yoFst5noio7bNAd+Wqq0RgR6zi4YZ8vu02ZrFEOqO//CI71YWpajpJ/7Oeh0M6MSx7zDGRtuDrRIAIxIiAk0GLrNqzzjorxq3YjAgQgWQjQKIl2Yhyf0lHwCFakr5j7jBhBLDy+5uKFX75yCN2HxCFBdmiK5SBCU13l3POscO94Yaow4Y4LtxLUCsNcVyShlHh4ptEIGkIrNCJPCYdB9SavmbNmma/33zzjZQtW9bosFTPa7bJ449b2+aPPrKkMzLc1qwRadQoaWPw3Y6U4Ppdba0rfPutGdq3mvl3+AcfSIVatXw3VA6ICOQ3Aigbgrg3Is8kcn53nscjAj5DgESLz06oH4cTTrT8oqtgjIJHoEKFCgIhyb316snaoUNth774QgSuGkEKCF4iFi0SgQ1plIC+jSOOC30IBhEgAqlDYOPGjWay8ZtmmKBsDwGys0iRIjJgwADVqVWh2rwERG6h5YKsFbWBNsK3K1dagXA6CkVGdskS+evEE6X09u2mzUrVjyin353l9TeFQQSIQN4RWLhwoXyrJCbKhgYOHJj3HXIPRIAIJIwAiZaEoeOG+YVAONFCnZb8Qj3346AkBg4d25VAWAudFgTcdSCQG5SoX1/kmmvsaG+9Neqoa9SoERLHrVOnTkioLupGfJMIEIG4EACZ8rJar/+gItX4P0PgMdw3YNUM3aQ8BQRu8R0HjSaQy5qlJtBiQfkgslhIskSGV+2aD51+uhTdu9e0+ejKK6XuuHFSFiWoDCJABPKMALJZXnrpJbOf5s2bC0q9GUSACBQcAv/Sf0q9amAQAfcigBVJiBYiUHbRAPXvDFcg8PXXXxv9Eege1NKV3dpLl9p+wUECgrFBCIjdHn202mX8IfLMMxnES4Sxv/766wJHIsShQ4ekQ4cOEVryZSJABGJFYMeOHTJ9+nQBoYmsFcR2zZo4/PDD5Xy1pU9K4PtNXYmMZTN22KqVaF2S/f9PygF8vJNnnxW57jpTXnVIfy/mDhokZw4fTmLKx6ecQ8t/BJA1i7JIZLM8//zzcsUVV+R/J3hEIkAEQggwoyUEBR+4FQH8aDjBjBYHCXfcH60Eg1POtUVXdfc5QobIcFHr1EBE5coiQ4bYod51l6gAS9Rh99TyKkccF6vsGzZsiNqebxIBIhAZAegdjR07VpYqCYLvI5Asu3btMm5fF110UXJIFpQG3XyzyMknW5KldGkRWLvDXQgkKyMyAljLu+OOEMlyUH/PZ9x+O0mWyIjxHSKQMALjNEMMUVw19C699NKE98MNiQARSA4CJFqSgyP3kk8IQBeE4S4EevXqZexRkTI/B3oFqttinIi6dROBQGQQ4pZbRK1MRFknkYcfznXEjjguyuK+0PKDvemp9LluyAZEgAgYBECmvPrqq8p1LJA0tQU+4ogjjMg0Soe6d+8uKG1MSnz4oRW7/d//7PfaGWeIrFtnHYb0O48RBQElqP7u0kUEoulKuOzTbKOpSrqcB10vYhcFOL5FBOJHAAUKL7zwgtkQ12UgWxhEgAgULAIkWgoWfx49RgQgvor49ddfY9yCzfITgZOx0qtRpm5dmQjNEohPwoEIF9mffpqfXSmYY0GnQe2uTTz5JEQhcu0HxHFBHFapUkUmTpyYa3s2IAJEQAQlQnDU+FS/V+AiVKpUKaO/AvHHtm3bGh2WpOAEm2YISaK0D/bNapMqWvYnM2eKVK2alEP4eidbt8qhk06SwsBL43e1cn5TifiLNZuFJIuvzzwHV0AILFGh6dWrV+u/17+Mo1oBdYOHJQJEIAwBEi1hYPChexFwNFpItLjzHEFwDSvJiCrqKLH66adFxRKsbglWgJctc2fHk9mr3r2tC4mWA8mdd+a6Z2hJlClTxrSrqwSVk/Kb64ZsQAQCiAAEbUGwoEQIIrdYrUUpKQiWZs2aSf/+/aU0SnqSEa+8IioGJnpAm8WiIrqyfr3IJZeQJIgF308+kX/U1akQMn80trdrJ1P//W/pff31sWzNNkSACMSJQLgI7vFKajqLX3Huhs2JABFIMgIkWpIMKHeXGgSOPPJIs2MSLanBNxl7haMHJkOIL6FTMn++XQVGuVfHjiKrVpn3fH0zYoQdHuqk4UKSS7Ru3TqEGYiXefPm5bIF3yYCwUJgs2aTwEVozZo1hmBxSoS+++47OfXUUw3BUhHZJskIWDarK47uVOTnn0WqVxeZNUu0Rkkk/TcoGYfx9T7w3deypRympV2IrzXDca5mBvUDpgwiQARSgsA+LdObMGGCyWa56qqrUnIM7pQIEIH4ESDREj9m3KIAEGBGSwGAnsAhG8HeVAOuOmOhzwKyBRMUpOG3b2+1DUwLn97oBEPOPdcO7oYbYhokBOsccdwDBw7IypUrY9qOjYiAnxHYuHGjIVhAtDgit3CgQ+ZcO82Q6NOnj3616HdLMgLE8I03WsvmRYtsFsvgwTaLBRl51BPJHWWI3qJsFK5M+vhvzTha+fjjslzPVS+KcuaOH1sQgTwgADdDkC0IfDcyiAARcAcCJFrccR7Yi1wQcIgWCCAy3ItAw4YNrTCudjEtLU1Wq32xfPCBirdoiQyEYtu2FdEJlK8Dwo8ITNjUbjaWcASFsVqPUoitqm/AIAJBRACZK8hgQXYcCBYEvvd/+uknOUNJD2TOQZclaYEMDC19FGSjgSxwCGGIWqtYNSMGBHbuNFksxolJMYTo7TIV5fxOhdEvvPDCGHbAJkSACCSKAMqGnnjiCbN5by1hTloJZaId4nZEgAiEECDREoKCD9yMgEO0sHTIzWfJ9g2rKU4J0SqUCzVubK2eS5bUYv3tlmzxM5FQv77IoEEWDKyKxxDQmzj77LO1WuFngZ35IiVpHNvsGDZnEyLgeQRWrFhhNFggdusQLHi8bds24yIEW/Skumg4ZULIwFASx5QJvfGG/a4C8cIsltg+U19+abWpVJcFsat5c/lYHZr2a9lV165dY9sHWxEBIpAwAosXL1YjtHWmbOgaZJUxiAARcA0CJFpccyrYkWgIkGiJho773nNKiKqp5TEsWEXdJ2T2bBG48/z4oyVbMLnxa8C+FMKcGzaIjBoV0yjLly+v0gYttcrqN+NE9N5778W0HRsRAS8jMGfOHBkzZoz53EPkFgHCEUQjsiGSZtPsgAQr9ZtvzlwmpJbDRuwW2RckWBykcr9/5x2RFi1EU/BM2+/UUna+YllZM5HgqsYgAkQgtQggm2XkyJHmIE1UgPqUU05J7QG5dyJABOJCgERLXHCxcUEhQKKloJBP7LgoIYK2AgIWrLAcVOXKjFKab76xZIuuWPsylDSRIUPs0O65R71NVQMihoAgbm21xv5TrbHxGC4rDCLgNwTgFjRp0iRja3744YebzzzGiEy43bt3q7nPJdKjR4/kD1vFIgUZZ5pxESoTQinjgw+yTCgetFFihe+1bt1EhSEMObVm2DD5WLPy4HbSGFmMDCJABFKOADL+Jk6caLJZboTOFIMIEAFXIUCixVWng52JhIBDtFCjJRJC7nu9X79+RlcBPTMlRHjQqZMIVkERX31lyRa/6u7cfruIZvQYbZqHHrJjjuEWk5SSKLPSwAo/9CoYRMAPCEDIFtkrcNeqXLmyydzCuL5R4vXgwYMCYehzHTHpZA4YZUJt24rAgh0ZdUr+ypQptkxIrdWZxRIH2BA2V0JFlFgBWfWXOj4tVT2WJUoMo/yxOpyaGESACKQcAWSzPPvss+Y4EAbvizJIBhEgAq5CgESLq04HOxMJAYdooUZLJITc+foxxxxjOoYSovHjx9tO4iJ96lT7GBOg9u1Fl7HdOYC89mr4cLsHCGumW1/HssvT1WJ2D2yxNaBXMQ6CnQwi4FEEli1bZghDuGshYwtijXDYwnNYMw8YMEA5WCVhkx0oE/r3v22Z0IIFNosFmWbr14umzJBgiRfvzz4T0fIEef99s+Xvxx0nS198UeCTBmK9DETPGUSACOQbAk7ZEC2d8w1yHogIxIXAv5QR1RxQBhFwNwLz5883lp7oJT+y7j5XWXuH8hdHe6FKlSpq8KFCkwhNdxUVuDQBDZcPPxRN5bDP/XTbrJnI8uUi550n8tZbMY8Mn3OkBMMqGwGS8fzzz495ezYkAgWNAHSGtqsANhzInIAG0e9aSnfmmWearBbn9aTfP/ecyL33QvDF7hqE7vPPg7kkwZII2Ci3uuUWS1bp9t8rUbXpuutMNtKAgQMT2SO3IQJEIA8IYPEKLkP/Ul0puLIhS5BBBIiAuxAg0eKu88HeREBg5cqVupCmK2kauFDnylkEoFz68hvq5lGpUiWjwYDygFBoyrlcdZV9Cg2XuXNFrUVCb/viwdKlIurEYeLNN0UtVGIeFsgWlFo4RBWet2vXLubt2ZAI5DcCezWLZMaMGVKoUCHzP+8cH/orxVQMOyXaK85BcA9L9TvvFLXhsKRAgwYijz5qy10odBuOVGyPoS+Fkis9pygV+lst6Nf/97+yU7+vf1Z9COjpMIgAEchfBHAt0LRpU4Fb2wUXXCCTJ0/O3w7waESACMSEAImWmGBio4JGYKu6GkBUFfHtt99mWiEt6L7x+LkjsFwzOnbu3ClFihQx5QKXX355xkZPPy1yww32OZwqZs607kQZLbz/CCvBTz4pmp5itWniyNzBBRV0WuqqlgREckFYNUOWDIMIuAgBCF5/pqUlVatWzWTD/PXXX5vyt7Zt26a2tzrhkOuvF/VGtwSL/p8I3L+uvpoZLIkiv2qVaBodRHTMHvZq2deX998vv1eoIH///bd06dIl0T1zOyJABPKAAL5r4TCEbBZkfLdu3ToPe+OmRIAIpAoBEi2pQpb7TSoCWCUtVaqU2Sfq/cHkM7yFgJPVgl7DWSST6CW0TAYPtgOCVgOsoP0UcOaA24mKgZqJX7qAXaxDBNkCm+xatWqZsov6ui/8MYhAQSPwpmZpwUXIIcLRHxCCP6roLC7+69Wrl9oufvedCISn1cXIOAlpxoWxb0ZWSxyEZmo76cG9o8wKNth6LhE/du0qX+nzPfpbjBIFuAsxiAARyH8EcD3QU8uu4dx2nOokrVmzJv87wSMSASIQEwIkWmKCiY3cgACYe8RcLS/p0KGDG7rEPsSJwEsvvWQyM/bv32+ykkJ6LdjP3XeL3Hef3SP0FFACUKJEnEdwcXNk6nTubDu4eLG1u46juyiZe19FKKHZ8ssvvwgEc1mTHQeAbJo0BNarmOzHH39sPoslwv5HoROAQKZDyss7VbNINLvCZIrpxMNEnz7WqlmzaugkZCGJ+xYCwijnfP11WypUtKhsUNJqh5JmKBU6SfW0kF3HIAJEoGAQQFY3yolxTYzSYroNFcx54FGJQCwIkGiJBSW2cQUCKJnYsWOHqUVFTSrDewg4+g0gCzAp66qrpI6VsVmNRgnRyJF2YMhaQmZL+fLeG2ikHl92mciECaKKwFZDIlK7CK/DHnfJkiUCFy48RlaQk+kVYRO+TASShsBbKuYMIVtkVjkB96DvNKsEpCnIv3yJxx+3hIpjDd+ypajPqXUXSifk86UffjsIXOBQKvTVV2Zkv6tb3Dq1pv9TrZsxuYO+DhyjGESACBQMAshmGTRokDzzzDMCN0dcBzCIABFwLwKHubdr7BkRyIwALZ4z4+HFZyBVTjzxREFGC8gWuOqEAhOkESNE7rrLvgSnHgjkbt4cauL5B3DuKFvW2ssOHRr3cKpXry6wzEapBh6jbINBBFKJwMaNG41G0HTNMMN3sEOy/KxuPhC4RYYDNJfyhWR57TXRpVyR224TAckCoVtkvi1cKNKwIbNY8vJBAFEF0e50kuV7zWBZoRmIDsnSv39/kix5wZfbEoEkIIDFRpAsyGb5N6zrGUSACLgaARItrj497Fw4Ag7RsstZxQx/k489gwBWvv/66y/TX6Sgo844FCBbYMkKfQCETvJU8U1EhTZ9ESoiKSBbEBjnhg32cRy3xx9/vFTQ/SCTIC0tzUyC49icTYlATAhMmzZNxo4da8iUo9US2clk2LRpk9kebjNwEDvyyCNj2l+eGkHgFhluyAjTzAqpWFF0tiEqTiCaFkeCJS/gqki5KWlUq2ZRLalDKli+QYmsTUoE/6MuUbCVB8nCIAJEoGARQDbLyPSMX2SyXg2hbwYRIAKuRoBEi6tPDzsXjoBDtODCj+FtBFDy4kzYoDMCV6JQgGy58kqRKVPsS6oLoMvl1k0k1MjDD/r2FWnb1g5gwICEBtKiRQuzooWNMQlGnTaDCOQVgU8++SSUvQKNFRB5iO3btwuc30DyIXsl5Q5C5qh6A2v0s84SadVK5IsvrBvZkCEi6mQk11xDgsXBKdF76EadcIJ1etNJ3C4tRViqWSw/qcbObi0RO0KFhc9HKRGDCBCBAkcAIuMO0XK9Oqzh/5NBBIiAuxEg0eLu88PehSHgEC1InWR4HwFM2FB6gPhG7UMh8JopVA/AlATAbUov+s1ka+rUTE08+0TtmvUqSQSiuKNGJTSMjh07Gs0ibFxbbVfHjx+f0H64UbARgPYGHK1QxodMs/DsFVgzHzp0SC666CLp3bu3JpJoJkl+BEiVc84RtbYRmTXLuglB6BYZbhDApZtQ3s4CnISuvRaqxSIgsjW+PPNMWTVunCkVgu4DnP1A6DKIABFwBwIvvPCCyTBD2dCNN97ojk6xF0SACERFgERLVHj4ppsQgBguwnG2cFPf2JfEEMCFPPRGUAqDUoVsgUwWdTcRnHs4i0AE+cUXszXz3AvQmUDpEAI2tAkI2uFiC6LQmCgjoNlCssVAwZtcEICg7eTJk01p0JYtW4w1c5UqVcxWyFyBNXMD1T8ZOHBg/jq8oUQQGRTNmom8+679n+/eXVmAL0U7K6r+yCyWXM5trm+vWiXSpIkVD9bv1L/1u3fBsGGy8447DLbINOyumNdQAVwGESAC7kAAZUPDhw83nUHJUL6R3u4YPntBBDyLAIkWz5664HUc4qkIEi3+OffQaCmimgAI2BXmSBQ0aiTy6aeinqJ24gXrUYek8DIUEPRE2v6ePSJXXJHQSEC29OvXL1SGRbIlIRgDs9FMLRV5WbOpPtX/J1yop6WXBiGbDFllKOND5kqvXr3y1zocbjcXXijSuLHI22/b/3MtL5SVK20JoZYsaa1cYM5Tygb6yCOWZEkXvP35tNNkvmrd/B9KszTgHoVMw+LFi6esC9wxESAC8SMwevRoQ4DjN3/w4MHx74BbEAEiUCAI0N65QGDnQRNBYJymNffR9HFMBuB4wfAPApj8oWQBUbhw4ZwdTCDaeMYZVqsBDaHj4ojm4rkXAxoUcPpAaIaBydixz+K6xWoXMARxhUDq/2UQDmUEHoHPP/9ctaRXm6wx6K44gXp/lO6B4Gzfvr3zcv7eQwx66FBRRWxLruDoZ58tohkWak9GciVZZwMZcypebEoVkRmo5ZgfaTbcP0qqgcCCCxwmcGdq+RCDCBABdyGA33e4vSHbEL/ruBZmEAEi4A0ESLR44zyxl4rA3LlzpVOnTgYL/PAw/IXAK6+8Yi4mfvvtN3V1PjXnFfW9e0Wg3TJ7th08HEdg7+rlwOoUUoKRsYWVfdg/JxAkWxIAzaebgGj78MMPDWnpZAI6Q0WpWVn9jGFSXWCZC3AuApkCXSHnuxyT/PvuE/WLJsHinKxk3EPXCqLbu3ebvf2lGYLvahbckSCyNLapRgtEjk9Adh2DCBAB1yHwvC4ooVwIZChK+0COM4gAEfAGAiRavHGe2EtFYK1OQnFBiMBKbNWqVc1j3vgDAZzTZcuWGRvZzZs3m5KYHEeGiZmWNqh6p30bOi7vvWdWaXNs7/YX1VLVlBBBayWPWTokW9x+slPXP/zPLFIb5L///tsQluFHwv8WPhsdOnRQPs+WYIa/n2+PtTTFZLBAb8UhWFTU2ZAusHHXiQQjSQigJBHOTK+9FsL6G3U8W6NENaxhERA7htCx8zxJR+ZuiAARSBIC+N7GtS6yuFEmTIfBJAHL3RCBfEKAREs+Ac3D5B0B2DofeeSRZkdLteSiGQQTGb5CYP78+aHxYOW9f//+oeeZHmCSBvHGRx+1L0PHBValBTmJzNTBOJ9o9oHWb9iN8Lht2zh3kNE8K9mCSfall16a0YCPfIPABi29QWkQVjqhzxMe+L7E38nq3FPg2Qr6GTS6SmodHCJY8BlHVguIUhIs4acu74+R8adaK1prYPelK+DvaMlByXbtQvuG1lnPnj1Dz/mACBAB9yEwSl0JBw0aZL7jIVxOkWr3nSP2iAhEQ4BESzR0+J7rEMCEAjFdy0W6omyE4TsEYDVbs2ZNM66DBw+GysWyDRRky8iRIjfcYN/CNvPmWdHcbI098IKuNqvPLlSBsdScpw5nJVvgIgOBU4b3EVipArErVqwwZUHV4MITFrt27RL8HXPMMdK6deuwdwroIUqEHnhARMsCQwQLiJUHHyTBkopToufefB+GZbHs1//7yfpZqFG/vjkihI/T0tK4UJEK/LlPIpBEBMKzWSBS/aIfHBeTiA93RQS8gACJFi+cJfYxhABqU5HpgJrVK1FmwfAlAmO1tACTgX1aVgPSJeqK/Ouv21IiIKFWpcYWVlfxPRcQ+z32WBGdCMl//2v1KvIwiKxkCzNb8gBmAW+KrJUv1eIYmiqODbPTpR07dgjsmmHHfJq6yLgiIPIMvZUZMzIIlrPOErn9dpE2bZjBkoqThFLKG28U2b7d7l2z+9Zr1t9azXRyMkHhLHXeeeeFnqeiG9wnESACyUHgqaeekptuuonZLMmBk3shAgWCAImWAoGdB00UgdN1NRQ6BEOHDpV77rkn0d1wO5cjsFNJh3manQKHKazQo/wha2lEpiF88IFIt24if/whOhsVeest61CUqZEHnkyYIGorYCeiq1ZZ7ZY8dDsr2cLMljyAmc+b4nsOpUGlS5c2jkHhh0e9PlyDGmnJnKtKKN95x5bzffxxBsECtxsQh8cdR4Il/CQm67Fmq2mNpcicORmYq3DmZHUzqxgmmgnrZrj2MYgAEXA/AntV+B9OQ7j+gRDus88+6/5Os4dEgAhkQ4BESzZI+IKbEbjwwgtlypQpctVVV8lzzz3n5q6yb3lEAOr669atM0KNyMbASmyJEiUi73X5cpHOne2K7r/+ZUUgMcnzWmDlf9YskYYNRUC2JCFeUm0Mx/qZmS1JADQFu4Db1sKFC40LTAXNzIIzUHjgvB06dEhdj0/Uj4Z+NtwUKHmDc9aaNXayX6yYqHKjzWDRyQI1WFJ0sl54wWKsnx0TSqzs09cmqjBynaOPNi8h2wm23m2QScQgAkTAEwgMU/0qLCaiXB7OYBUrVvREv9lJIkAEMiNAoiUzHnzmcgRu1NToESNGaPJCN5k2bZrLe8vu5RUBlExA0LNo0aKCtPcBsCmNFnDugaisTjTM5G7IEJH774+2hfveU5FKtdcSweTplltEHnssz31kZkueIUzJDqC1snr1akOgoFQuayALARfasDt3iLKsbQrsOdyytIRT/vc/K7oKzSSd0Bunm3//W6R8eRIsqTo5+l1osliUmAtp39x2myxTB6Fv9DvQmZRBPBNOU1GzAVPVR+6XCBCBhBCAjhKyWf7QDN27775bdcTvTWg/3IgIEIGCR4BES8GfA/YgDgQefvhhufPOO6W5pkVjEs7wPwIz1U2oGFbINZDlAlG4qAGtk+7dRdMDbDOdaMikSXbiF3VDF72JEgyIPSMzByUBGEMSgpktSQAxD7tAOvhHH30kKOEqV66cchFKRoQFyoHwHux2W7ZsKVnFbsOaFtxDaAiBXHnmGVEW1E70q1QRFRMQufZakZIlSbCk8uyAeEXZLIguBLKbVGz4VSXsHBFxvBwTMY2GDCJABFyDABZFoMuCBcVKlSoZTUJoczGIABHwJgIkWrx53gLbazjS9FV3FqzQbXWsKwOLRnAG/pq6aFStWtUM+Pvvv1cZE9UxiRZYXR88OCMbpEYNK8zZuHG0rdzzHvqv5XFqMyC6PC2ydq0V+s1jD5nZkkcAE9gc5W/LtawNDlo5Za1AbwUrl7Vr19ZkLM3GcmtodoSxU1eh6tAkv25dkVtvFVUmJ7mS6vOGhQXgjHJCfD+AhNWV7q/VonnxJ5+EbF93795tiDpXf5ZSjRX3TwQ8igDMHmD6gExGlMfT9MGjJ5LdJgLpCJBo4UfBUwjM0dX9M844w/QZk0ZGcBAIz8bYs2dP7vbe+HxMnSrSu7eocqidmMBmFs+9EOhzkyYiX30l6nEtMnt20nodjiU1W5IGq9nRT1r69emnn6p51C9GZwV6K+Fx4MABAVl4xBFHGJHno9O1NMLbuOoxhKafflq0VjOjTEV1YoyDkJaqmAm/qzrss84gQw9uTWPGZOB/0kkiKpw9VZ2okO3nrHgji+Xss882IuI+Q4HDIQK+RwDXtBCsHj9+vNSrV09/+vW3n0EEiICnESDR4unTF7zOw+LUEYKEQBhSKxnBQWD06NFmtQcjLlKkSGx2tvqZkXPOEcGKPFaBkSniFQV/rF4jCwf9VqtHuf76pJzsWDJbFixYYMrzUM6CidwxxxxjtJGS0gEf7QSuEJ9oRgEIFog1H6W2ulkDLloQu0UmXqtWraKLOmfduCCeg+QDKTlqVIbALfrRtq2IWgYr202CJT/OC76n4NiknzETRx4p8sAD8tvFF8ubb74pRyOjSOOvv/4y7iQ9NbuFQQSIgDcRgGYXxM6RzTJ9+nS9bNHrFgYRIAKeRoBEi6dPX/A6j0mNo2uAH6XGXikFCd6pSsmIUWLxllo3Y8IKvQtkAzRo0CD3Y0FLApMQuPkgsCIMC2jdj6sDWTlPPikCcVGQLUmwfA4fb3hmy/bt2+UizVB4RrU3NquYcE4OT8jGgDAxXL9gvR3EwGdw8eLFpnQRZF9OQqPIuAKewBDE8PEQN/ZCgIxUbQCTPQExZnz+oI+E/x1osEAPBJ9DRmoRgIMayoRwj3OAgBD4I4/IIrX8xiLDkSBdNKDpg8lZTN+DZgveEAEi4DYEsPhxkl6XoMy0Xbt28gEyCRlEgAh4HgESLZ4/hcEbANh+BERSzzzzzOABEPARY5IBG1yUZCBToK2usmctz8gRIkxYVME/5EKEkg6UFmmGgasD/Ubp0Lx5IvXriyjBaCa/Seg0Lu6QJQTCCmUHyBiDFWxuAcvY/v37ywknnJBbU1+8j88b8AFeaWlp2caErB9ktIB4OfbYY80Fc7ZGbn4BZWkoD3r33YyJfc2aVtwW4tOY1JNgSf0ZRJmQir3Lyy9nnIdGjURg43zyycp/jZHaqt/gBPQc8H/IIAJEwNsIPKkLKreoyyCubzcomYrSIQYRIALeR4BEi/fPYeBGUFtFI7HijgkiLzIDd/rNgCEwikkGSlpggYu65pgCpAUcfbBCr5kJZvI4fLjNGIlpBwXUSLMjjOUzHF+uvto6viSxK+8oJiATHK2HWHaNjKJbVQg1FZkt7+qEH6KevXr1iqUrSW2DrLklS5aYTAFc9FZRRx3H9Sr8QLDORUC4EOVAngt8/qH7Afeg9eszJvYQ5B00SOS880iu5OdJhVU2yoRAtiDKlhUZNsyci43qtvbZZ5+FsqdQhoaMltatW9u2vCUCRMCzCECzC6W5+/fvl/vuu0/+85//eHYs7DgRIAKZESDRkhkPPvMAAshggH7Eveq4cDcyFBiBRACfAWQYIL7++msZOHBg7DhgYomJpK4cGbIFdtDQpNBSD9cGbJ4dbQyQRV26JK2rQ4cONStp8e4QZMtwEFVJjFf0PNSqVcuQqf369UvinnPeFUi7NWvWGA2VSBor2BIXw9DCgIXuqaeeqi7GJXPeodtf1cwco/eDz7tmJpnSFHzuIRJ94402a4rZK/l3FnMqEwJxjP8rdRwbr6K3yNhzyD58152n311OCW3+dZRHIgJEINkI4BoGmdkwegDZgmwWBhEgAv5BgESLf85lYEYyQGvVkUKNLAZMyhjBRQB6LeXKlTMAoLQDn42YQ0kCk9kC0gKhJR8m28WtLjAglaCTAQ0NlHIoOaDpFrbvebhFuRCENRMNEJ9t2rRJdPPQdnDpmTFjhqSlpZnXUBZ2wQUXhN5P1oOPP/7YkDggTSrqRLZ06dI57hq2yyCSkLFz2mmneX9i+957tjwIOkXpBKVATPW660RTA0WBYAZLjp+EFL0I3SiUCaEsyDkfxx1nn+vnbZ2SwcuWLQtlsWC1G9o/F154YYo6xN0SASKQ3wi89tprcumll5qFDoiqt2jRIr+7wOMRASKQQgRItKQQXO46NQg8oK4L/9UU65YtWwomTYxgI/Dqq6+aLAOggMnxJZdcEjsgmOA8+KBN2cdW0CdRa0XjUhT7XvKvJfoLzQY4KYHcmD8/z8d+RAU2MYlLNLDtQw89lOjmZjuUCiGyCvBCSDYvK/f4PGCyCl2fwoULhz4n5mBhNxgD2v7zzz+GWGnatGmO7kFhm3jj4Q8/iNZYiowdK1prlzGh79zZlgfhntkr+X8uIXCtv2PqAW6PDZJLs8oMkaqvjNPvIBB80PxBoEzt9NNPN1pK5gXeEAEi4HkEsJgATS8sMlyvjoIjsIjCIAJEwFcIkGjx1ekMxmAmTpyoiQg9jXYCBCgZRCDcPQeT5rPOOis+UFRY2WS3wGkFE88hQzJEc+PbU+pbI7W4SRN4ulqSCHa7CQbSliHAVxZ6EAkG9CIg5JdI4AJz2rRpIcvunPaBjJlYAmTKKnVlwncC3JEwpkgiyTt27DAaMCB2IAR8sgqN+iqmTLGCqo7LFgg6kIgoxYJFOARVSbDk/ymfNElUgEFUWTmD9IIO0WOPmey0LzVLbeXKlVKtWjXTt3379pkslovVzplBBIiAfxDAby9KY7FQBOe6tWvXSqlSpfwzQI6ECBABgwCJFn4QPIcAhCqdiREuRI844gjPjYEdTj4CY3XVPk3LTlASgnIi5zMS85FUYNlksqAkB9GhgwgmRuXL2+duucWkGcKZ11xjJ8uasaH+rgn1LhlEC/B+EFlBcUakLJbw3fygGRlIq84ayD4BqYL7gwcPGlIlUuZLeLYKhG2RrYJ734VeqMuLL4qopocRVMXnBAGhXpTUqXW3flmSYLGo5O+tCtkagmvp0gyCBRbzcHpCqYCSXo42kdMxCL537NgxVDrkvM57IkAEvI8ANOawiADB9VlKiHeCsyCDCBAB3yFAosV3p9T/A4IriDOpwmQL5QUMIoDMClh+YxINLYPa6k4Vt/2wEndGFBS2z4gaNUSFQ0QaN7bP3XKLSfQ554hAdwPZCfp/kIiQbzKIlngFcTepgwpK/kCK5RZoe46OE6v8yFgBqQISDY4rkQIuVMhogU11XdUgOTFBEirS/l31un7O5fXXbXnQ559nTOJBJPXtK6oQLUaHRS/mGQWAgArXqjWXaNpWxrmBBhRK7aA/pOdlhdq1YzW7atWqpoP4fwI5mAp9ogJAgIckAkQgCwJYIDz++OONVhg0l954440sLfiUCBABvyBAosUvZzJg48BkCxNriKHCgYFBBIAAnGEWL14slSpVUkOV301JStxkC0iMJ56wEyTsFJPURx/NeI7X3BDQdzjhBAjTiCpDW9ekOPsFouW2227LU8pyrKVDKBOCjTQchWINECaOTkVO2+B8Y1KKlGuUAJ2ELIEgxEcfWXIFJUIgB53slW7dLLnStatFgQRLwXwaYNEMR7znnss4N8iMg30znJ3Sz4uThed0EoLenVU356ijjnJe4j0RIAI+QgC/ubfffrtx60N5K1zvfJlh6aNzxqEQgbwgUDgvG3NbIlBQCGBSBZFLWF0yiICDAGqd4RDz6aefGn0OTFwQcZEtmAT9+98izZuLwPYZhMbgwSJvv23LMuIgCpx+peQeEzdkM7Rrp+qZ40TOPdf2N46DIW05LS3NiPHFsVmmprFcJMJZARkm8ZAsOEg4yYIyoj///NMI5tbRLJ7AuTNs327JFXVck40bMybwaglqSoP69RNlGEOT+EwniU/yBwEl/YzeCqyZYZ2NKFbMlg1BmwU6ORr47dqo5xD/ewhk4B06dCg+1zSzJW+IABHwEgJffPGFIVnw2ztcvydi+f300vjYVyJABDIjwIyWzHjwmUcQgDgg0i2vvfZaGTVqlEd6zW7mFwLQN1iqeggQQ004swWdhdhy794i8+bZrsMd5KmnrKhofg0m2nGQyQCLWHUOMva8WoagNVPRtsj2HkpyRo4caVx5sr2Zywtw6UHqcyQiC7bRWMGLJEqby+7N28iEwSp/8eLFY2nurzYoDYL1Ngi1OXPs2HDOVcRXgbe2zNBg0Yt2RgEjAHene+4RgdMTzhEC+kLQL0IJop4jZH9N1bJEEIVOoDyuq2YgwWWIQQSIgH8RwG8hSt3XqA7cKaecIrBzZhABIuBvBJjR4u/z69vRIaMFwYwW357iPA3MWSl2yBZktsDeF1aKcQVS+DHBffZZ0Robu0oNYVEtWTO2uQUtlIsJNvQeZs8W0ZUygYNJnBdvcOABNonEYYcdlmM2TDIIFqc/xTQjIHAkCzSCNAvIaPAgS8KZuEM4FborsDAvWZIEi/MhKch76CsMGyYqtJJxnlq2tEK3cAdLJ8FAsOD/xSFZdu/eLUWLFpXLL7+8IHvPYxMBIpAPCIBkuffeew3JgmwWuA0xiAAR8D8CiV1d+x8XjtDlCJBocfkJckH3HLJl+fLlRjx1/fr1pldxky2YKGnmlFqAiFx2mYi6Xsn06aJqdiLqdKRe0gU7WvRv8mQr2At3E5Q9Pf54zH1y3H9i3iBLQwgQt2nTRrAyv2jRIpO94ohVZ2ma0FMQQYEIEHrIXAGJp5PwELmigr6GQAOJhjIhnG9GwSMAfRwQLF9+mXGujjvOZpedfXboPGH1GoRveNkc/lcgdpsXW/WCB4A9IAJEIFYE8NsIogUky5NPPin16tWLdVO2IwJEwMMIkGjx8MkLctcdogUXrAwiEAmBtLQ0+fvvv40VMJxqEiZbcABMckFk3HefLRHQkhvp0kV0SdqK5yLDoKACGV6vvGKdTPQiTlVhRXr2zLU3WGWDRXJeJnwQo0VAmDZ8MglNFbgEAX9kzJRUfBIpIYJ2hW8DnyeQK8iKgKixk7mCTCotjzSZKyefbIdPgsUdHwMQYTphMk5fzvnCpOmuuywRm36e4B40WQnQ2lrK5/xf4H8ERC+zWNxxKtkLIpAfCOxUcWyU2CLOPPNM1cO+MT8Oy2MQASLgAgSo0eKCk8AuxI8ALFydi1eUheBilkEEIiEAQu5LXXkGoQCdBEx24s5sCd+5ZsmYSTBESRFK6MiECaJKvOZpgdxg0jdkiMjDD9vVdF1Fl6ZNo3YFRMstt9ySJ6Llr7/+UhkK1aGIIXC8BQsWCC48UTpRqFAhhS4t6pZo6yur26++suLFEyei9jGDXNHPphFfRuZK+/YWk/RJe1SA+Gb+IIAsNhAsKNFzCBYQnCBY4PoVdq5mqCU8SEbHhhykCwRve8ZAfubPYHgUIkAE8gMB/OZ16NBBPvzwQyN8Cyt3uGYyiAARCAYCzGgJxnn23Shr1qwZGhN0Wki0hODggxwQqKvlF8isQEYLyBbcI8sCrycUIDBWrrRCtBDH3bxZ5PTTRe64w4pfJrTTPG6EiR4ID5Q2QbwXLkTqbmKcaPK462ibY0IZayBtum3bttmaw4UF5wTZMXBhKAGx1/RIJAvG2dY19z/+aIk4ZK9AsNiZqB9xhMg559jsI8emPmzC7pr+B7kjakluCBb8LznnDcQ+rJr7989EsGzYsMEIXKalpYUQA8lLsdsQHHxABAKFwONaxguSBb99yHAjyRKo08/BEgFhRgs/BJ5FABkJuLB97rnn5KqrrvLsONjx/EMAk3mHbNm1a5c0atQocbIF3cbE66OPrLsI3EYQuk9BtkKDBvZ5ft/++qu1pka2xKmniixeHLEHWG27TUV+S5UqFbFNbm8gQwg158kMEC+rV6+Www8/XKpVq2Z2nRNBk8xjJn1fwB+OQbAFV7txE85EXdPHTWkX7MMpapt06JOyw/ffFxk61BKXznmDtTtsmlEumIUQGzt2rIQTLD+pYxkWBFpCGJdBBIhA4BD4/PPPjbsQBn6flhz/B98dDCJABAKFADNaAnW6/TVY6LSAaKHzkL/OaypH45QLfaXlG0jrX7VqlTlcwpktmGypEKxaCYgMGiQyfrzVboBQ7vDhVpg2lQPKad9IS0aZAxxqMMG//nrrgJJDW6yywW4SdtiJBjJQkh3NmjUT/CE8pcOErAdoeEybZj8TGIAzSQfphbIgaK+o7XjWiTqaMlyAAPRy8L8bnsECe2ZMkq68Mtt5m6MixiiDc0gWZGWh3O0yCGcziAARCCQCv//+u/To0UO//v9Pk11PJ8kSyE8BB00ERA4jCETAqwg4grjQaGEQgVgRANkCi1VcCDlkS54n82XKiPo1isCJBFobmFzDDhrlRFu2xNq15LWD+wnKVNCPkSOtO1KEvfft21egIZFIQJ+lX79+iWwa8zYgwRImwmI+Sh4azp8vqm5odXqaNxd54IEMJxqUSY0YIaKaUmrJZMm4ihWzTdbzcHRumiwEYOEOUVtYZ0PfCP871auLjBpl/4eRNQliNT2g+TRmzBiTdeWUt+F75HglWdNQrbQAAEAASURBVEmyOCjxnggEDwGQK31Utwni1/huQMkQgwgQgWAiQKIlmOfdF6NukF6asW7dOl+Mh4PIPwROOOEEQ7ZAoDJpZAsmYbqCJSp2ZyyfMVHD5Lpx46hER8pGDYvZu++2ux8wIKN8JYcDAo9EomjRolK5cuVENvX2Nip2KsC0UiUrXAsyBYRasWJWG0cn4PLLL1YrBxlFyIgIm6R7e/A+6j1stO+/X1QYSOS665A+ZQkWOIy9+KIlyGDtHnbu4NL18ssvm6yV2tBq0di+fbv8888/xk2oBs41gwgQgcAi8Pzzz2tS4zT92viXGsq9YXTHAgsGB04EAo4ANVoC/gHw8vAXq/aEU/+OFQQGEYgXgRUqTLp161ajUQLNlqYqcpuWlhbvbrK3x+dRL7bk1ltF/vjDTtS6dhUZPVqkfPns7VP1CvqB4777rigjYsuaQA5kCfz/DFHHomIgCmIMkFTDtcQCF5O+D81+Eoiioixo1izRFCA7IcfAUaoFUuv88+HdKVK8eKaJue+x8eIAIU6M8iAlTDKdS1hpDx5s3Z+yfK7/0P/jKZqxVkn/f46AiLEGMsGgUcQMFi9+CNhnIpB8BNZoGTHKcfGbeoeK4z/00EPJPwj3SASIgGcQINHimVPFjmZFABe+JSEkqbFEnVZOOumkrE34nAjkikA42QJtBXyOkkK24MgQRIWlK5yAECA7xo61GS/mhXy4UUJEMIFUIeBo4ri4MBylZRK/IBMjl0DJ0ANaIuNrkkXFeAWCqPhTS2oTIK4QEOiFqxPIFbXuNJFlYm5f5K2rEFBNL+PMNW5cBlGGDoIgu/12UUusHEkypP7DpSzcMQTaYOfqZ8ApG3LVONkZIkAE8h0BXJOeeOKJsnHjRv3JPVkl0j71929kviPMAxIB7yFAosV754w9DkMAOi3QaHnppZdk4MCBYe/wIRGIHQGQLT+oaxBshZHZUr9+faO1EPseorTE5By2y7CDRWBCDh2IJ56wJQv21dTe6oWfpuvY7BpY0mIlP4cA2YIVuQkTJhg7bIfIRFOQKwcOHDCaLNCh8B3JgiwVFTY1xMrMmaIF9hYhh1zRz4QhVkCwQGgYQXLF4uD2WziDPfqoyHvvZSZYQIJC5BaaRjmcywVKsME9KFzwGQRLGxXAdrVukNvPB/tHBHyGAH47B2g5KdzHSpcubX5Hq0PjiUEEiECgESDREujT7/3Bd1d71Lc0nf961UEYAZ0EBhFIEIGlKoC5bds2Q7ZgZQqr16eddlqCe8ths+XLRWsMRBxNIb0YM/axN9+cQ+MUvITSF5QRISD8efXV9nEOt7hodAK15li5dyLlBIuWYshTT4ncc49zyNTdR8taQXkIHKU6d7YZSBBKReQwIbdv8NZ1CCB7DGK24Q5COK8gGzWt34jd5nA+IXSL74O0tLTQkCBseYxqt2ClmkEEiAARCEcAWiwXq6Mcfh9xTRr+mxnejo+JABEIFgIkWoJ1vn032qFDh8q9994rrVu31uz+Bb4bHweUvwisXLlSvv32WzUOUucgDWRwnHHGGcnrBAgMuNIgw+XPP+2kHavpL7wgyuok7ziR9gThz7vussdVjSM55ZRILQvm9V9/taU4mzeLphYlvw+5Za2ow5EhVkCugGTBpDyHiXjyO8Y9Jg0B1VySZ56xWVtaCmjcg7BzaOlA8BYOUdBJyuG8IqttpmYzOY522GzHjh1SpEgRTpwABoMIEIFsCOC6AYsy+/bt06+Y69Tob2S2NnyBCBCBYCJAoiWY5903o8bKAbJaUPKRqEWtb8DgQJKCwGad5KO22ikXwETrwgsvTMq+QzuB3S/caKZPty9h0te7t8hjj4nA/jdVAaLnggtEpk61ejHIsqlaNVVHi2+/X3xhXZuU6DKTYPStSZP49pFT69yyVqDLAWIFgrbpLjI5TcJz2jVfcxEC8+ZZK3PNwAqRK+geHLUGDbL/XxGIM2SyvauC0VX1f8ERhKbQrYvOLbtCBFyKAEoLmzVrZkoMmzdvLp999pn+fOjvOYMIEAEioAiQaOHHwNMIQJ/FWX3EBLlWrVqeHg877w4EoNPyjpba1KxZ03QIWS79UW6QzADpAQeba64RQQYHApk0991nJ4b2leTfalmUKv5acVy9QNQaieQfI949osTjlltEkNGCwIXqk0/a7AP7Suy3sOj98EP7hyw3vRA24ZRDwbrXKQeCCCqCF8YWB6/d4rP8yis2gwW26s45xjiUgDcESwSBWzSB8DNK48IJFrxOoVugwCACRCAaAshgQSYLMlpg675MSxQrpnKhJFpn+B4RIAKuRIBEiytPCzsVDwIQ7ISmBi6Yu3XrFs+mbEsEoiIwWu2Y69SpY9ps0gn85ZdfHrV9Qm9icqjlb+YPO8Ckv1EjW06UKj0IiOPq6pvAtrhXL5Hx4xPqep43wthBsECTJXySjB2fd561U87tIMiACSdWsorYwm65XbuMkiBmreSGqPvfx+f36adFXn3Vfoadz06FCiJXXGFLhJCpFYFAgyUzsiErqwtYcXw+0gP/4x3URaq28xlx3uA9ESACRCAMAeiY4XoTCzK4BkUmy3EoA2YQASJABMIQINESBgYfehOBli1bymLVmxg2bJjKT6j+BIMIJBEBOFo5DiPIbIHgXfjkLCmHwkQRWS3IbkGWCwKTRDhpPfyw1ZSwrybvFg47jv4MiI4bbkjevmPZEwiSHj1EUDKUU2Cyqxlr2QJECspE5s+3f1u22CbOZBvPQFB17Gj/kNGAiDDptm/y1hMIzJhhy4Pw2Q0/38jMQnlQ3752GBHO9e9KLL799tty5JFHmsmRM2YQLHASqucIHjtv8J4IEAEikAUBkCx333233K+aZygTmqW/2Z06dcrSik+JABEgAnrpqV8YeoXPIALeReDaa69VE5Vndc7WQ6ZMmeLdgbDnrkVg3LhxJjUYHYT7yJlacpKSFGF8HetEUG66SQQ6LggIdz70kF2pt68k7xaWt7ffbkkIEBcqKp0vkbVUKKeDYrIMokWFSOWDDzKIFYd8Cf/pQjmQQ6wge6VMGbvHCBPunA7H11yKAIg0JTtF/wfN/0T4eYc9MwiWU0+NSqRBbwUZLGX0cwHrVSdAsJx++uly7LHHOi/xnggQASIQFYE333xTpc4uMCTLE088oT/X+nvNIAJEgAjkgACJlhxA4UveQuD5559Xp9qrTdbBRqSUM4hAChDARA2Wz4jt27cbATxHHyjph4MjEbRaQLAgQBg0bWrLiXCfrMCkFZPVSZMsoYPsEq01N9k1EBWFxgnslqEd07ixqPVK3gRqocEyYIBonV/mjIRI4znqKJGff7bvhk+wUSKiJR7SpYu9dwR9SaxEQtJbr+Pzr3apAkIOn8Hwc4/PxFVXWXvySpWiEiwoKcX/balSpQzJ4oAADRbYNDds2NB5ifdEgAgQgVwRWLJkibRo0UK/kv7P6LahvJhBBIgAEYiEAImWSMjwdc8gAIeYU7GiqYGVSzgQMYhAKhCYpyUrBw8eNM4kKEOoVq2aIVxScSwzudQJoVx5pdUgwUFAJKC8CBbR6RbUeT42BEVhLb1qld2vrvKbCS52HD7BxXMcH6U4uooXtyMQREtvvjlD8Bb7izXwP41sG5Ar+APpgyCxYnHwy+2iRSJjxohMniyyZ0/mzx/0tyBIDbIvl/MODZYZWmYEgsWxagdEIFjgENIkGW5WfsGc4yACRCAmBLaqdTy+P+BECBHcjz/+WL+K9DeRQQSIABGIgACJlgjA8GXvIIBVS4iRIRbphTp+ABlEIFUIwFnghx9+MCUI+/fvlyPUMhb6DikLkB2YeEI0Vo9rAiv5KPtxNCnyenBkmmi9ubz8ssju3bnvDZk9WMmDYG1uAe0ZTJCzZibkth3eR/bCxIkirVrZ1ryojQU1b7VBxhIyV0DEbdiQmVxp0MB+dvr0EcklewWD/ln3BZvmo/RzE66jBHe6xkrOYZLEIAJEgAjEiwAW8ZDJslbdzWqrfthSdeuD1hODCBABIhANARIt0dDhe55BACKGqLd/5plndMFfV/wZRCCFCGBlHIRLJUz+NPbo6nvXrl1TeETdNTJP7rlH5PHH7XFAOkD09YUXrEtRXo4OogXuSigTijVAtkA7JVJ2APYFkV04KmXNjIn1GBijWm0nLXsn1uOyXeoRgJ4WCJb33rPHcj4j0FBRwWlDzp1ySq7ZK9gY/4/zVWMoaykfM1gstLwlAkQgcQRQJgRdtjkqwg2dp88//1yOgS4YgwgQASKQCwKH5fI+3yYCnkAA9fYI/AAyiECqEcCErp2KrkIYF4EShfGptkhG+czw4SJffmlLfTAxVUtJQ3RAjA9WzYkGdFPiIVlwHJAzyLLJKZCdAOJm6NDESRZnv8iEYfgDgblzragzNHYuukg0/cR+PvBZbtvW2jX/9JOI6m7lJnALQFavXq2JVaMFKf3hJAtId5T1DVTXLpYJ+eOjw1EQgYJAACTLzVryCpIFZUJwLSPJUhBngsckAt5EgBkt3jxv7HUWBJ577jmTyYKLbVxkM4hAfiCwb98+rWyZqJyCkgoa+OxdfvnlqT80JqavvSZy661WLBaZH5i8DhliHYvi6cGKFSInnhjPFhltcdypUzNKiECwIIMF5ULoYzICJNKTTyZjT9xHQSCgOgZGbBkZLNu2Zf5c1Kxpy99A9NWqFVP2CoaA7BVYrSOF3wmU8aGkDyvP1atXd17mPREgAkQgYQTGqGbUAP1+AsnyspbW9kcZLIMIEAEiECMCJFpiBIrN3I3Al7rK7zhI4GK7quNC4u5us3c+QeAltZ+tW7euGQ3KFbCSni8BPZW77xYZMcIeDsQHXIOQSRLLBSHIEBAj+Es0oBODEhD8gWDJKUDmIGMGfytX5tQi8msggZYvj/w+33EfAqpfYMgVaAvBpjycdINduVqjyiWXiIob2b7jcxtDvKdlRjt37pSaIGjSA2V7u7S8DKV71ExwUOH9/7d3H2BSVvfbx38xFnoHRQTBEhApoohiQUE0KImCKKiA7W8vaJSgkRjjFeOLChisGEUlqCgCglGxEAugAopgQUGxgEpRmoCAJcn73GfzLLPD7O7s7uzuOTPfc13LzE55nnM+Z9mduecUBBAoq4B+3/zmN7+Jfn391wYNGhTNhB1V1kPyfAQQyDEBgpYc6/Bsbm6taG6/XnSPHz8+eg0fvYinIFCBAmOj0Rx76lP5qCyL3lx269atYj5Z15tYLSKq0SzRVrau6I1ry5Z5C9z26ZN3W6p/9dxoCpRbqDbV/encpjfL0QgDVxLfUBf3XIUvCmZ0qfBF11OFMGrLf/5T3NG4v7IFPvkkb+qPtmXW9cSfhWhqnVs4WVuJ9+iRV9M0wxU9eNKkSfbjjz+6RW7jZq5Zs8Z++OGHaBOik9hpLkbhEgEEMiLwWjRlVdODFbJosftXXnmFHYYyIstBEMgtAYKW3OrvrG7tidH2n9rS85JLLrG77747q9tK4/wUmDp1qtv6eZdddomWTNkQzeZpUHG7YOmN7fz5ZkOGmEXbULuiN7PaaeX//T+z7t23R9Nzyhq06KiJb6q3P0vRtyQ/V8GLght9aX0WrT2jRXe1hgfFLwGNVhk3Lm/0itYOSuzLKlXMevY0U7hywgkW/cdIe2qQGrlixQq3LoJ2lEscqaLbd955Z+tTVIDolxK1QQCBgAS0o9DR0d8b7WjZsWPH6M/Py24dtoCaQFURQMATAYIWTzqCapRd4LZoodAh0ZvMNm3auEUSy35EjoBAyQXejUZlfBJ9oq+QRUVbzlboCCu92dW6GFdckRe8qBIKXI44wmzkSIteOeqWvKLHljVoibbNdaNS4mNm6jJ+067gRfUvbHejTJ2P46QnoGlBTz9tUaq9bQRS3Fc6wvHH54Ur2vo7Cklc36V3ZPeoWdHP7uJohFbi4ra6Q6PE6kfTjnoqvKEggAAC5SCgv98KWdZH01xbt25tr7/+erTpXZ1yOBOHRACBXBAgaMmFXs6RNs6ePTvaqKKza63m8etFOQWByhDQtIanozejLf63WGeFLZKb2Fi9+dVUouuvN/vww7x7FFhEUy1s2LC8qUV6TLSjgtuGOfG5Jbmu40U7MVCyWEBbMCtceeYZs+XLC45cUbM1fUwjV7T2Sr16JQ5XtKj0s9EORJoKlLyQrf7v6A3PYYcdlsXANA0BBCpb4OOPP3a/Z/T3Wwvcv/nmm9aoUaPKrhbnRwCBgAUIWgLuPKq+vUDVqlVNu09oCoemElEQqEwBbT0b70ikRZoPP/xwa968ecVWSWGKdgPSArlLl+adW4HLwIFmf/lL3kKzvXuXrk46TtRGO/vs0j2fZ/kpoK27FazoK9rW1DZtKhiuaBqQpqLpd6yCtoYNSxyuqOFaOFprITSMnq8t0uOixW03Rec89thjC6zLEt/PJQIIIJBJAY2Y0wd1y6MgWZspKGRJXHQ7k+fiWAggkDsCBC2509c50VItQKpFywZH295qKhEFgcoWeCYaBbDTTjtZvG5L3bp17cgjj6z4ailwufNOs7/+1eybb/LOr6Dk0kst+k9jtnBhyevUvHne9CSGVpfczrdnRNslR6vO5k0Jmjkzr3b6mYmLpsJp2o6CleOOM6tWrVThig73UhTefPXVV/kjvuJTfBEtiKyRiNpBiIIAAghUhMA30d9DhSyfffaZ+/3zxhtv2K9+9auKODXnQACBLBcgaMnyDs615v0p2ur2L9Gn9J06dbI5c+bkWvNpr6cCyeu2aHRL//79K6e20QJ/bq2WESPMtD20SjQSzLZsybtekn81NUlrcVDCE9AolenTzV58MW/USjS6xJXEcEVblitY0ciVOBxUOFeKsjQaTaXRKxp1qBEscdEIRIUuhxxyiLVt2za+mUsEEECg3AW0FotGmn4YTa/VWiyvRouwt9e6YxQEEEAgAwIELRlA5BD+COiT0uP0aWtUtkRvHKtoiDsFAQ8Ektdt0bQJLZJbvXr1iq+d3kxHLzDt5pst2qKr5CGL3mwrqNH6LpRwBBQ+x8GKFkxWSQxW9P2hh+aFKxpVEq2N4kopwxU9VzvBac2seL2ivANqUNU39tNPP7nFbVlsMlbhEgEEKkpAuwpp4VvtMqS/wwpZtMsQBQEEEMiUAEFLpiQ5jhcC+nRUn5iqKHTpnmpLWy9qSiVyVWDMmDH5O6poPrg+yU/eYaXCbPQmO9ou163fcv/96Z22dm2zhx9mJEt6WpX7KC1cq4VsFa5oi+xo7RNXEsMVhdHHHJMXrpRhvZXEhr7//vs2d+5ct5Bk4torP/74o9s9SOsWaZonBQEEEKgMAX0Q16NHD5sxY0a0Mdov3JTzo7SoNwUBBBDIoABBSwYxOZQfAgcffLD7hELTiG688UY/KkUtEEgQSFy3RZ+qKRys1DeeeuOtNTquu87siSe21XTHHc1+/tlM4Ur0yZ/7Ousss2idGYqHApr+pUAlHrWyaFFeJRODFd3Srp1FK83mBSx6c6FwugyjVnTI76JpaM8//7wpTGnatKluyi+aKrfDDjvYr3/962hTomhXIgoCCCBQSQL/jX4fauTz9GjqpEIW/T0+4YQTKqk2nBYBBLJZgKAlm3s3R9t21VVX2e233+5GCmjLZwoCPgokr9vy5ZdfRhsBRTsBVWbRG/JoNIJde63ZtGnbarLffmbXXGOmkIXij8CGDRZ9JGumxWs1FSjaKcOV5GClSZO8YEUj/BSwxGuklDFc0bk03F5bMCtc0YLPcVGAuCIaLXXAAQcwHD9G4RIBBCpVQCHLySefbFOmTHEhy/jx461fv36VWidOjgAC2StA0JK9fZuzLdOnqscff7xrvz5J1VZ9FAR8FEhet0W7Hpx66qkFtrqtlHrrjbpCyii0dJeqhN6Ua6SCbrvggrxREJVSuRw+qXaLioINF64oWHnvvTyM5GBFWyVrBJKCFX0pKFPJQLCiw2jx2pejkTNaA6tRo0a6Kb9o56Da0Qio3qXdMjz/SFxBAAEEMiegkOWs6MOCcePGuZDlvvvus/PPPz9zJ+BICCCAQJIAQUsSCN9mh0CtWrVs48aNNnr0aLvwwguzo1G0ImsFHnzwQdO6FSorV660Dh06WMuWLSu/vXoDr6kot96aNx1FNdKb9WgLXrv8crNBgyzaqqHy65npGixYYPbuu5U/gicaKeJGq8QjVvS9SnKwotui7UnzpwOVcYcgHS65aEHbf/3rX26R8ebNmxe4e2209oumDnXp0qXy1hsqUCO+QQABBLYJKGS5PPqbdXe0+LumCw0fPjz6zCD60ICCAAIIlKMAQUs54nLoyhM4/fTT7fHHH3cjW57TYpAUBDwXSFy3ZfPmzbbzzjv7s5iz3thH21/aX/9qFg21dkWBS40aeaNbrr7arHFjz4XTrN7DD5ude25eyPLQQ2k+KUMP0wiVxKlAWqhYJTlY0U5V0SLKdsQRFu1NmheyqC9U1C8ZKhuiqUlaVFyXLVq02O6omjK0xx57uEUlt7uTGxBAAAEPBBSyXHzxxaYRLCpDhw61m266yYOaUQUEEMh2AYKWbO/hHG2fQhaFLSpaK6BatWo5KkGzQxJIXrfl82iB2nPOOcefJugNfzRtxI1wiUbhWBQIuaI39wontLbLPvv4U9+S1GTdurw2TJ2aF2xo6s0rr5TkCCV7bLS9d7Rqd97XvHlm77xjUaKRd4zkYGXXXbeFKgpWogW/80sGgxUdc9OmTW6RSI1SiUdZ5Z8ruqKpQVq8+Zhop6IGDRok3sV1BBBAwCsBhSxa++zRRx919bouWvBdIYtGtVAQQACB8hYgaClvYY5fKQIaxl7nf1MaJkyY4Na9qJSKcFIESiigN7iTJ0+O8oq8wELrDGlB0f3337+ERyrHhysIUDBxxx1md91ltmZN3sn04rVPn7zdi6LpT8EUrXsSLZDo2hRXWjsrxdshx7eV9jIKJ0xhShysKFSRn0pyqKLbNG1Mo1XiEStxeFWObw40okrT1jRCRWuvJJZly5bZjtEOVF27do0GLmXJyKXEBnIdAQSyTkAhixa6ffLJJ12wMnLkSLviiisIWbKup2kQAv4KELT42zfUrIwCPXr0sBdeeMH69+9vjzzySBmPxtMRqDgBvUB86qmn3MgBjR7YunWrm77Rt2/fiqtEOmdSSKAthceMMYtexEbDHfKepUAgGvFgf/iDRftWp3OkynlM8iiWxFqoDQpaSroGjUb8JAYquh6tb+JKqlBFwYVGqOirY0ezQw/N205bTyjHYGX9+vVuQdt1kUGTaFei5HBFC97q5/DIaL2X5s2bu+rzDwIIIBCCgH53aUHuqdEIRY1e0dosmj5EQQABBCpSgKClIrU5V4UKaCFc/WHVDhh6U0FBIDQBrYHxZrRlr7bOVdGuRCeeeKKfUzYUImj9Fi2cq4VkVRQUKDxQ4JLuLjT6vzp2rNlrr+UFN1qYVtN49Gb/zDPzruvYZS06x+9+t21kSfLxVHctBKxzF1Y++shM9YsXz9WldgZSSRWqaJSMPOJQRZfaellF5yvnovBkZrSw7g8//BBxNt/ubBrRovsOjcIeLxZj3q6G3IAAAggULaCQpWfPnjZt2jQXsjzwwAPRzNZzi34S9yKAAALlIEDQUg6oHNIPgeXLl7tPalWb6dOnuzUF/KgZtUAgfQG9aHw4WqA1XoxUIxDqRm/Yjy4qAEj/8Jl/pAKGF1/MC1wUVKgoRNB0mCFDLFp0Ju+2VP9qIVrtBKGwJVVQoeOo3Ro9E02nKlXRNCGdQ6FIqnPEB9W5br/dorHmeWvRKDxKDFXefz9vNI8en+o4WhdK06cSQ5V9942PXiHBik42L5qy9MEHH9gvf/lLNy1oWwXyrn377bduhzZNTzvwwAOT7+Z7BBBAIBgB/b089thj3Q5pGsmirZw1qpmCAAIIVIYAQUtlqHPOChPQJ7Nz5sxx2/rdofUkKAgEKKAXj7NmzYoGS3wT7awcba0cFe8Wyk12Vfgwf77ZsGEWTZLPu1fhhUZwaJei88830+45KnqsPnHUKBNdL65oZIhCnJKELZrWdOON6Z9DdVAwssMOZh9/vK1GyfXTeiatW5vtt1/epdbS0fVKCFXiSr4ahUkaDaV1qlItWKuRLf/+97+tTZs2dtBBB8VP4xIBBBAIVkC79R1//PHRxm0z3EiWJ554gvX5gu1NKo5AdggQtGRHP9KKQgSGRW/y/hBNW9h9991Ni4pSEAhZYE206OyUKVNs7733ds348ssvrVOnTn5P81AwEU15sptvNtNORSoKXOrVM7v0UrPBg80mTSp6pEveswr+q+drgdnmzQvenvxdaQKW5GPoe4VCcZiiYCX+2muvbY9WuyqhaKegV6IdklatWmW7RjsU1axZc7taaNqZdl87IlpgVwveUhBAAIFsEdDvwOOOO85NtdVIFq1xdtJJJ2VL82gHAggEKkDQEmjHUe30BBYtWhS9N4o+XY7KO9FOHx1C2gklvSbyqBwT0OiWiRMnWo0aNdxiuVuixWi1hfkpp5zit4QCF61fMmqURSsT5m1lrGAi2hXCnn8+b7pQSVtw9tlmDz2U+lmZCFgU5mgh7VatCgY6lRSoJDb07WiR3Y+iNWI0MqV5irBpQ7RVtEZAKXjRNLNU4Uvi8biOAAIIhCigXSa7d+8erUH+thvJ8uyzz7qRLSG2hTojgEB2CRC0ZFd/0poUAntFnzhrmsVV0boMI0aMSPEIbkIgPIHFixfb3LlzCyyU26tXr2igSBQO+FwUuERDvO2ee/LWctHIkNJO61PgodEyiUGD1lFRmJPuNKSirHT8//ynqEdU2H0avTR79mzTm4rCRq1oRIs+2d03mrbUpUuXCqsbJ0IAAQQqQ0Brlmnb+XejNbQ0kuWll15iPb7K6AjOiQACKQUIWlKycGM2Cdx00012/fXXW61atdyblGxqG23JbQGNbnkoGtGhMFFFU4saNWrktuQNQkYhhtYIUThSmqIgRAvWnnWWRft45gUsxS1yW5Lz6PjF7TxUkuOV4LEbN260119/3bSeikYv7bbbbts9W6OZtOi3pgRpMdt49N52D+QGBBBAIMsEVq9e7UbrLVy40P0O1C5DBMxZ1sk0B4HABQhaAu9Aql+8gLYsbdy4sXvg2OhT7jO1RSwFgSwRUNjyWrQVcrwbkZrl/UK5sb1Gt2ix2bKUK6/MC1t0DB1POxbFwY12GNL32jFIU4mWLtWj0i8KWrSujKYoVUDRwt0aqfSfKIBq3rx5yjMuW7bMTRfaZ599wgnUUraEGxFAAIHSCWjNvW7dukXrlH/sgugXo53uOnfuXLqD8SwEEECgnAQIWsoJlsP6JdC3b99o45Mn3R/iN954w6/KURsEMiCgbXr/+c9/5o9uKWqh3HuiaTuffvqpVYl2zNl5553d2TUlRYtGDxw40E1NyUCVij9EJoKWaP2RaCXY1OfS8RNLHMIoiNFXFFAVG778+c9mN9yQeJSMXdfuGF9EAdDPP//szKvHuzAlnEGf2q6P6q3pQocffrj/U8MS6s5VBBBAINMCWntPC9/qb1zt2rVt+vTp1rFjx0yfhuMhgAACZRYgaCkzIQcIQUA7cujTD5UPPvjA9tcWrBQEskxAo1smTJjgXnwqRNm6datbKLdPnz6upRr5ooUCU72hjyl++OGHaAfmJtGGQNGOQOVdMhG0KARRGFLSEocwCl808iXazSll8FJUkFOCc65du9ZtNa+pPjvuuKPtueeeKZ+tPtOntZoO1K5dO35XpVTiRgQQyEUBfVDWs2dPFz7XrVvX7bbWvn37XKSgzQggEIAAQUsAnUQVMyOgBSKXLFliF110kd17772ZOShHQcAzAYUtH374YTRgY4ELTFQ9be27OVqAVmu4pFu0k9Gtt96a7sNL9ziFHdoJTFN7SlMyObUnDl40xUihixbTVb1Uv2jHspIWjRh67733nLlCE40WSlW0Fot2B9pll13cIraHHHJIqodxGwIIIJDTAlOjdbh69+4dzRD9r1sEXtOFWmlHOAoCCCDgqQBBi6cdQ7UyL/C3v/3Nfve737lPijXNQm9+KAhkq4BejD4YrS+y9957uzVbPvnkE/dmviTtbdCgQfmPbNFittGOYKUqClqikSJWp06pnl7kkxS8KHTRIrtaB6aIotEq8+bNsxUrVthPP/3kpvfo09ZUJZ4KpO2WW0c7LrVt2zbVw7gNAQQQQOB/AvpwTKMs9XetQxR+a2RmvPYeSAgggICvAgQtvvYM9cq4wIYNG9yUCh1Yf7Q1soWCQDYL6EWpRlU89thjpQoWf/zxRxs0aFD5rtkSbc9pLVpYtCVYybtCuw09/HDJn1eGZ2ikzzvRCJel0cK6muaj3cy001NhRVOFNJqofv36bh2Bpk2bFvZQbkcAAQQQSBDQ37CroiB+1KhRLmTp3r17NOBwSpHTXxOezlUEEECgUgUIWiqVn5NXtMC5557rtsPVGi1aq4WCQLYLaF2WV7UGSSmL1nq55pprSvnsNJ/21FNmJ5+c5oP/97BoO2O39XIhI0dKdrDCHz137lw3IkhTfIqaAhQfQbsCaXFbbcd86KGHsnhtDMMlAgggUAIBhSyaKqQpQyr9+/e3cePG2S80kpGCAAIIBCBA0BJAJ1HFzAm89dZb1qlTJ3fAN998070RytzRORICfgnoheqNN95Yphem2vHmdk3vKc8S1dONTImC0LRK8+ZmkyfnrZ+S1hPSe5DCV22vrDbvtNNO1qxZsyKfGI9W0eLCzaM6sb1okVzciQACCKQloN/BWvQ23iXyz9GC53/605/K9LcsrRPzIAQQQCCDAjtm8FgcCgHvBQ4++GC3i8fChQtt2LBhbgiq95WmggiUQUDbNtcpwxomVatWLcPZ03vqq9Gom6+jbab3HznSWt1yi1VZtarwJ2q6kIKfMoxk0aLY+tJaTdplSaN2NLVHbdWlvpKL1l/RtCGNatGOQQdEI2qK2r0p+fl8jwACCCBQvIC2bdb2zdrGWaNXNIpFo1koCCCAQGgCjGgJrceob5kFnnzySevbt687zpw5c/JHuJT5wBwAAc8E4vntZQla4iZpjSMd54ILLsjYmi0KO2bMmGF77bVXfBqLJuJbg1mzrMHrr9t/P/9824KHvXqZnXSSRUNHLHr1ve3xRVwrKlAp4mm2cuVK27RpkwteNKpFiy/WqFGjqKdwHwIIIIBAGQXmz5/vRrIo2Nb6V5MmTTKty0JBAAEEQhQgaAmx16hzmQX0afS70datRx11VJnWryhzRTgAAuUooKDl97//vWmHm0wVjQBp0qRJmXYj0jbTzzzzjGlXo0JHhUR114KzZ2kEi0oh4cqqaPSLAhW9MFcYpDbHI1R0WVTRbkEa8aPn6EW9FqrV+k2EKkWpcR8CCCCQeYHp06dbryhQ18hB7Sik7ZvbtGmT+RNxRAQQQKCCBAhaKgia0/gl8NJLL7mhqarVtGnTrEePHn5VkNogkCGBW6KpONodJ9NFL4ZvvfXWEh9WOyDVrl278IAl4Yg6h+bpa3SJhpF//fXXLhjRbkg7R1ONNMWn0KAm4TgKU9ZFuxtpkVqFTgqK9AI+EyN9Ek7DVQQQQACBUgg8+uijNnDgQBd6t2rVyoUs7NBWCkieggACXgkQtHjVHVSmIgU0mkXTFjS6RcNVKQhko4AWeNXw6/IoGpFy6aWXFnvoeASLQhE9pyRFiyKmG4gomFm9erX99NNPLoDRp6IaodKwYcOSnJLHIoAAAghUkIAWbNeXRhbqdZm2b073d34FVZHTIIAAAqUSIGgpFRtPygYBrc+i7VdVHn/8cevXr182NIs2ILCdwODBgzM6fSg+gUaWDBo0qNA1W+KApcgpQvHB0rzUdB9NEdLoFI1q0QiVXXfd1Vq0aLFtPZc0j8XDEEAAAQQqR0DBynnnnWcPPvigq8Cpp55qTzzxBDsLVU53cFYEECgHAYKWckDlkOEInHLKKe7T/r333tut8xBOzakpAukLaHHXESNGlMvaI1oH5ZprrilQmXnz5rlRYhpRks7UngJPTvrms88+sz322MN233135usn2fAtAgggEKKARh726dPHjSpW/YcMGeJ2gtQuQxQEEEAgWwQIWrKlJ2lHqQQ++ugja926tXvu6NGj7cILLyzVcXgSAr4LvBZtoawFaDO90Kum9twebbes0SsvvPCCG/6tNVAyVbQuC1t7ZkqT4yCAAAKVK7BgwQI78cQTTds4K1gZO3asDRgwgJEsldstnB0BBMpBYIdyOCaHRCAYgf3228/+7//+z9X3z3/+s1vtPpjKU1EESiCgue9XX321bdy4sQTPKv6h8SeQ77//vht1orn1X3zxhX366afuUuumlKVovRUKAggggED4AloM/cADD3Qhi0Ypagq3FsGN/46E30JagAACCGwTYETLNguu5ajAsmXLbM8993StP+ecc/LnC+coB83OcgHNi9cCuc8995x9++23bp2TXXbZpUytvuGGG4p8vka7KIhRAKOixWnTnVKkwCYOQ92T+QcBBBBAICgB/d3RWmEa/ajrWh9v6tSp1qhRo6DaQWURQACBkggQtJREi8dmrYD++F911VWufRMnTnRzh7O2sTQMgf8J6AWvfu7LssNDPHWopKhax0VbNmvr6d12263Q4EXhzNlnn13Sw/N4BBBAAAEPBNatW2daD+/ll192tdEIFk0XYhSLB51DFRBAoFwFCFrKlZeDhyRw7LHH2vTp061WrVruE/+mTZuGVH3qikCpBG655RYXdpTqydGTNBVp+PDhpX26e54CH60ho9ErtWvX3m4L6KOPPrpMx+fJCCCAAAIVL6DRk7/97W/daEYFK3fffbdddNFFhCwV3xWcEQEEKkGAoKUS0DmlnwKaRqGFcbUavoa1vvnmm35WlFohkEEBvRCeNGlSqY/Yvn1769WrV6mfn/xEhS7vvPOOacHEeKQLQUuyEt8jgAACfgtMnjzZrb+yefNmN0VoypQp1rlzZ78rTe0QQACBDAqwGG4GMTlU2AJaN0ILtanMnj3btDguBYFsF2jTpk2pF8j97rvvMhqyyFqfeh500EFuXZYTTjjBBZ9LlizJ9m6gfQgggEBWCCgs13osmi6kkEW/z+fPn0/IkhW9SyMQQKAkAoxoKYkWj80JgSuvvNJGjRrl2qrA5ZBDDsmJdtPI3BVYuXKljRgxokRbP//www/261//2rSbEQUBBBBAAIHk9Vj69etn48ePZ6oQPxoIIJCTAgQtOdntNLooAX0a065dO7dOS7NmzdwUhrp16xb1FO5DIHgBrZGiXSC0RkpxhZClOCHuRwABBHJLIHk9Fm0yMGjQIEKW3PoxoLUIIJAgQNCSgMFVBGKBxYsX2wEHHOAWCT3yyCNtxowZ8V1cIpC1AhrZooVta9asWWgbtfitdgHSlCMKAggggAACieuxNGjQwK371aVLF2AQQACBnBYgaMnp7qfxRQnce++9dskll7iHnHTSSaaF3CgIZLuARnStWrXKtM25FobWOiwa5VK1alXr2bOn7b///nxCme0/BLQPAQQQSENAfy+GDBnipp7quj6gevrpp41dG9PA4yEIIJD1AgQtWd/FNLAsAhdffLGNHj3aHWLgwIH2j3/8oyyH47kIBCWgF85x0SK1FAQQQAABBCSwfPlyO+2002zmzJkO5OSTT3YBPX8r+PlAAAEE8gTYdYifBASKELjnnnvs9NNPd48YN26cW0m/iIdzFwJZJaAXzPFXVjWMxiCAAAIIlFrg2WeftbZt27qQRaMd77rrLkKWUmvyRAQQyFYBRrRka8/SrowJ6FP9E0880Z555hl3zNtuu43AJWO6HAgBBBBAAAEEQhDQ6yEtcHv33Xebrrdq1cqefPJJ1uwKofOoIwIIVLgAQUuFk3PCEAX0gqJbt2726quvuk/4NYVowIABITaFOiOAAAIIIIAAAiUSWLRokZ166qluR0Y98dxzz3UjWTSihYIAAgggsL0AU4e2N+EWBLYT0PQJjWg5+OCD3ac4Z555plvwbbsHcgMCCCCAAAIIIJBFAmPGjLGOHTu6kEW70j3xxBP2wAMPuEXSs6iZNAUBBBDIqAAjWjLKycGyXWDdunWm7Z4XLlzoRrboxYY+4aEggAACCCCAAALZJLBx40Y777zz3PQgjew96KCD3PUWLVpkUzNpCwIIIFAuAoxoKRdWDpqtAnXr1rV//etfttdee7mRLf369bObb745W5tLuxBAAAEEEEAgBwXefvtta9++vU2YMMG93hk8eLC99dZbRsiSgz8MNBkBBEolwIiWUrHxpFwXWLFihZ1wwgm2YMECN7JFc5U1jJaCAAIIIIAAAgiELDBs2DC77rrrXMDSsGFDe+SRR+zYY491r3dCbhd1RwABBCpSgKClIrU5V1YJfP/9927a0LRp01y79CJkypQpVq1ataxqJ41BAAEEEEAAgewXWLlypZ1xxhlu4X9NFeratas99thjtttuu2V/42khAgggkGEBpg5lGJTD5Y5A9erV7dlnn7WLL77YNfqll16yI444wvRChYIAAggggAACCIQi8OKLL1q7du3slVdecVXWtGhNlSZkCaUHqScCCPgmwIgW33qE+gQnoE99hg8fbkOGDHF1b9q0qSl0admyZXBtocIIIIAAAgggkDsCeg2j9Vduv/12N1WoWbNmNmnSJLfLUO4o0FIEEEAg8wIELZk35Yg5KqAF47Q4rkqdOnXcNKKjjjoqRzVoNgIIIIAAAgj4LPDuu+/agAED3LbNqmevXr3soYcecq9hfK43dUMAAQRCEGDqUAi9RB2DEOjbt6/NmjXL6tWrZ+vXr3dzm2+99dYg6k4lEUAAAQQQQCA3BDSK5U9/+pN16NDBhSxVq1a10aNH2+TJkwlZcuNHgFYigEAFCDCipQKQOUVuCSxZssR69Ohhn376qVuhX4vJacX+xo0b5xYErUUAAQQQQAABrwSSR7EcfvjhNm7cOLZt9qqXqAwCCGSDACNasqEXaYNXAvvss4+9/fbbphEu+tTo5ZdftjZt2riFc72qKJVBAAEEEEAAgZwQ0OuRoUOH5o9i0YL+d9xxh82cOZOQJSd+AmgkAghUtAAjWipanPPljIBe1IwdO9Yuv/xy27Rpkxvdoh2KRowYYVWqVMkZBxqKAAIIIIAAApUnMG/ePDv77LPz12JhFEvl9QVnRgCB3BEgaMmdvqallSSgqUSnnXaa6YWOSqtWrWzixIm2//77V1KNOC0CCCCAAAIIZLuAPvC57rrr7JZbbnEjbGvUqGHDhg2zSy65xH34k+3tp30IIIBAZQowdagy9Tl3TghoKtFbb73lhuyqwYsWLbK2bdu6Ibs5AUAjEUAAAQQQQKBCBTSFuXXr1i5YUeBy9NFH28KFC+3SSy8lZKnQnuBkCCCQqwKMaMnVnqfdFS6gFzralah///725Zdfuhc6xx13nFsot0GDBhVeH06IAAIIIIAAAtkloNca11xzjQ0fPtyNYqlZs6ZpB8QLL7yQgCW7uprWIICA5wIELZ53ENXLPgFt/awXPBMmTHCNU8hy0003uduyr7W0CAEEEEAAAQQqQmDOnDluLRaNnFXRKBatFdesWbOKOD3nQAABBBBIEGDqUAIGVxGoCIE6derY448/bpMmTXIvflavXm1aJLdDhw6mF0kUBBBAAAEEEEAgXYEtW7bY4MGDrXPnzm56cq1atey+++5zux4SsqSryOMQQACBzAowoiWznhwNgRIJfP/99240ixanU/nFL35hZ555phvm26hRoxIdiwcjgAACCCCAQG4J6AOagQMH2ieffOIa3r17d3v44YetSZMmuQVBaxFAAAHPBBjR4lmHUJ3cEqhevbrdfPPN9tFHH1mXLl3cfGoN8913333dNtC5pUFrEUAAAQQQQCAdgXXr1rkpxxrFopCldu3adv/999uLL75IyJIOII9BAAEEylmAES3lDMzhEUhXQAvYjR8/3g3/XbFihRvdosDl73//ux111FHpHobHIYAAAggggEAWC+h1wdChQ01Tj1UYxZLFnU3TEEAgWAFGtATbdVQ82wQ0beiMM86wxYsX2xVXXOFGt3z88cfWtWtX69Onjy1dujTbmkx7EEAAAQQQQCBNgXfeecc6duxoF110kQtZND1IH9AwiiVNQB6GAAIIVKAAQUsFYnMqBNIR0FaMt99+uy1YsMA6derkApfJkydbixYtXACj0S4UBBBAAAEEEMgNAY1cueCCC1zIMm/ePPe6YMiQIe6DmdNOO41tm3Pjx4BWIoBAYAJMHQqsw6hubgloOtFDDz1k11xzTf4Q4apVq7p52X/4wx+MBXNz6+eB1iKAAAII5JbA6NGj7Y9//KOtWbPGNVxTiTV1SFOLNRKWggACCCDgpwBBi5/9Qq0QKCDw3Xff2d/+9jf3tX79endftWrV3PBhhTAELgW4+AYBBBBAAIGgBebOnWuXXHKJabqQPnRp2rSpjRw50k0lJmAJumupPAII5IgAQUuOdDTNzA6BOHDR1CJdV9HORXoxpmHEDRo0yI6G0goEEEAAAQRyUEDThK699lp78MEHXcAiAo1gvf76600jWikIIIAAAmEIELSE0U/UEoECAtrWMR7hsmHDBnefApfLLrvM7VpE4FKAi28QQAABBBDwXuDee+9104TWrl3r6nrMMcfYfffdZ3vttRfThLzvPSqIAAIIFBQgaCnowXcIBCOgocSaRqTRLaNGjbI4cKlRo4ZdfvnlLnCpV69eMO2hoggggAACCOSigKYJabHb9957z41iad68uZsm1KtXLwKWXPyBoM0IIJAVAgQtWdGNNCKXBeLAZcSIEXbHHXfYxo0bHYdGuAwcONCuvPJKa9myZS4T0XYEEEAAAQS8E9A0Ia2zpkXv9be8SpUq9vvf/95NFWKakHfdRYUQQACBEgkQtJSIiwcj4K+AXqRpuLEWy1PgsmnTJldZLZrXrVs3N8rlpJNO8rcB1AwBBBBAAIEcENi8ebP7W60PSOIF7nv27Gl33XWX7bnnnoxiyYGfAZqIAALZL0DQkv19TAtzTECBi6YR3X///XbPPffY559/7gQUuDSPhiNffPHFdv7551udOnVyTIbmIoAAAgggULkCd999t9100022atUqN4pFwcqYMWPcByLsJlS5fcPZEUAAgUwKELRkUpNjIeCZgEKXqVOn2p133mkvv/yyq51eyGlI8oABA+yKK66w1q1be1ZrqoMAAggggEB2CTz66KN2ww032GeffeYCFi1af91117npvQQs2dXXtAYBBBCQAEELPwcI5ICAApfFixe7hXMfeeQR07BlFb24O/roo920ot69e+eABE1EAAEEEECg4gSee+45Gzp0qL377rsuYNGC9VdddZVbsL5mzZoVVxHOhAACCCBQoQIELRXKzckQqFwBBS6aD/7AAw+4aUVffPGFq5ACl8aNG1v//v3dSJd27dpVbkU5OwIIIIAAAgELvP322zZo0CCbPXu2C1jUFO0IeP3115tGszCKJeDOpeoIIIBAGgIELWkg8RAEslFAocuUKVPctKJXXnklv4l68demTRsXuGh60e67755/H1cQQAABBBBAoHABjR7VTkJPP/10fsCiHQD/8pe/WLNmzQhYCqfjHgQQQCCrBAhasqo7aQwCJRdQ4KIFc7W95Lhx42zp0qXuIPGnbdqxSIHLKaecYhryTEEAAQQQQACBggJfffWV/fGPf7R//OMf+QHLb37zG7vtttusZcuWBCwFufgOAQQQyHoBgpas72IaiEB6AgpcVF577TX3QnHixIm2ceNGd5tCFy2gq+2hFbqccMIJ7nb+QQABBBBAIJcF1q5d60arjBo1Kj9gOfTQQ+2OO+6wjh07ErDk8g8HbUcAgZwWIGjJ6e6n8QikFlDosnXrVps8ebIb5fLCCy/kP1ChS8OGDe300093oYteSFIQQAABBBDIJQEtKq/RKiNHjrQNGza4prdt29Zuvvlm69mzJwFLLv0w0FYEEEAghQBBSwoUbkIAgW0CCl2WL1/uApexY8faokWL8u9U6LLvvvtav379rFevXnbggQfm38cVBBBAAAEEsk1AC8prtMqdd95pq1evds1r2rSpC1i0oHw87Tbb2k17EEAAAQRKJkDQUjIvHo1ATgsodFmwYIGbWvTYY4/ZN998k++hF5ctWrSwk08+2X117tw5/z6uIIAAAgggELLAihUrbPjw4Xb//ffnT6tt1KiRW5flsssuI2AJuXOpOwIIIFAOAgQt5YDKIRHIdoF4PZd//vOf9uSTT9rUqVPzX3iq7Qpddt11V7eArtZ16d69e7aT0D4EEEAAgSwUWLJkid1yyy02ZsyY/DVYmjRpYoMHD7YLLrjAqlWrloWtpkkIIIAAAmUVIGgpqyDPRyDHBeLQ5fnnn3druih0+fbbb/NVFLrUr1/fTjzxRDfSRXPXKQgggAACCPgsMH/+fDcdaNKkSfkBS6tWrdzWzWeddRYjWHzuPOqGAAIIeCBA0OJBJ1AFBLJFIA5dtHORFtJ96qmnTFtexkWhi7aIPuaYY+z44493Cwbqk0EKAggggAACPgi8/PLLNmzYMJs+fXp+wHLwwQfbtddea7179yZg8aGTqAMCCCAQgABBSwCdRBURCFEgDl3mzp3rQhcFLxqCHReFLir777+/2y5awcvRRx/tbuMfBBBAAAEEKlJAHwxoipD+ZsV/vzTtVQFLt27dCFgqsjM4FwIIIJAFAgQtWdCJNAEB3wXiF63vv/++C100FPuDDz4oUG0FLzVr1nTrucSjXRo3blzgMXyDAAIIIIBAJgUefvhhu/XWW92OevHfKi3qPnToUOvQoQMBSyaxORYCCCCQQwIELTnU2TQVAR8E4heyS5cutWnTppnWdtFQ7U2bNuVXLx7t0q5dOzfapUePHtalS5f8+7mCAAIIIIBAaQW2bNlif//7323kyJH25Zdf5o9gOeecc2zIkCHWsmVLApbS4vI8BBBAAAEnQNDCDwICCFSqQBy8KGx54YUXXPiSarSL1nY58sgj3fQiTTHSnHkKAggggAAC6Qp8/fXXLmC56667bN26dS5gqVKlil144YV29dVX2x577EHAki4mj0MAAQQQKFKAoKVIHu5EAIGKFIhDlxUrVrjARcHLSy+9ZOvXr8+vRjzapXbt2vnBS9euXd0Q7/wHcQUBBBBAAIH/CWg3vPvvv9+ee+65/NEr9erVs8suu8wGDRpkuh7/bQENAQQQQACBTAgQtGRCkWMggEC5CMTBy6xZs+zFF190L5LfeeedAueKXxzXqVPHTS9S6KIRL+3bty/wOL5BAAEEEMgdAU0Juu+++2zMmDG2atWq/IClRYsWdvnll9v5559v1atXJ2DJnR8JWooAAghUqABBS4VyczIEECitQBy6aLi3to+eMWOGu5w/f36BQ8bBS/369e2oo45yoYvCF+1uREEAAQQQyG6BiRMnutErGg0Z/91Qi8844ww777zz3N+E+O9EdkvQOgQQQACByhQgaKlMfc6NAAKlFohfQG/cuNGFLnHwoq05E0v8glpDww855BD3deihh1rnzp3dLkeJj+U6AggggEB4Ap999pkbvTJ27Fj75ptv8gMWBewauXLmmWeaRj3Gfw/CayE1RgABBBAITYCgJbQeo74IIJBSIA5eNm/ebDNnzswf8fLGG28UeHziC+399tvPFLp06tTJXTLdqAAV3yCAAAJeC4wfP94tbqtRjvHfgGrVqlnfvn3d6JXDDjuMcMXrHqRyCCCAQPYKELRkb9/SMgRyWiB+0b1161Z7++23bfbs2flfy5cvL2AThy+ar6/djBS+aPTLEUccYZqCREEAAQQQ8EMAZW76AAAYZ0lEQVRg8eLFNnr0aHvkkUdszZo1+QFLhw4d3OiV/v37u9GK8e91P2pNLRBAAAEEck2AoCXXepz2IpDDAnH4okUS33zzTZszZ467VAiTXOIX6druUy/gDzzwQHep602bNk1+ON8jgAACCJSTwJYtW2zChAn2wAMP2Ouvv54frtSsWdNOP/10N3qlY8eOjF4pJ38OiwACCCBQcgGClpKb8QwEEMgSgTh4UXMSR7zo+rJly7ZrZRy+NGjQYLvwZd99993u8dyAAAIIIFA6gU2bNtmzzz5rkydPtmnTppm+j39na8Sh1l457bTTTFOF4t/NpTsTz0IAAQQQQCDzAgQtmTfliAggELBA/EJ+5cqVpvVd4gBm3rx5pk9Vk0v8Al+frB5wwAFu5Et82bZt2+SH8z0CCCCAQCECa9eutaeeesp9Pffcc+5R8e9kLWY7YMAAu+iii6x169aEK4UYcjMCCCCAgB8CBC1+9AO1QAABTwXiF/mq3gcffGDaTvrdd9+1BQsWuC+9MUgucfii29u1a+e2ltbuF/HXPvvsk/wUvkcAAQRyUuCrr75yo1YUsGhRW5X4965GD/72t7+1k08+2Xr27OnuS/z96m7gHwQQQAABBDwUIGjxsFOoEgII+C0QvwlQLbXei0KXxADm888/364BiW8Oqlataq1atbI2bdq4T2bjAKZFixbbPY8bEEAAgWwT+OSTT2zixIlu5IoWK1eJf682adLEevfu7b66du3q7kv8/elu4B8EEEAAAQQ8FyBo8byDqB4CCIQjEL9R2LBhQ/6Il3jkiy5TlcQ3ENr1SEPi4+Alvt6sWbNUT+U2BBBAIBgBTb+MpwV99NFHrt7x70ytcRWHK1p/RSXxd6O7gX8QQAABBBAISICgJaDOoqoIIBCeQPxGQjXXm4sPP/zQfcXX33vvvZSNSnyToQBGb0TiL009iq83atQo5fO5EQEEEKhsgRkzZrhwZcqUKbZ06dL8USuqV/v27fPDlXg9q8Tfe5Vdd86PAAIIIIBAWQQIWsqix3MRQACBUgokBjBLliwpEMAsXLjQFi1aZJs3b0559MQ3I7Vq1coPXRS+JIYw9evXT/l8bkQAAQTKQ0BbL8+cOdNmzZrlFhNfv359gXClc+fObr2VPn36WPPmzRm1Uh6dwDERQAABBLwQIGjxohuoBAIIIJAnkBjAaP0XrWXw8ccfu0td19fixYsL5UoMYerWrZsfwsQBzK9+9Str2bKlaZckCgIIIFBagY0bN1pisPLWW2/Z1q1b3eESf4917949f+TKbrvtRrhSWnCehwACCCAQlABBS1DdRWURQCBXBRLfuMjg008/LRDCaFSMAplUC/HGZskhjD5Rjr+0Dkx8XZe1a9eOn8YlAgggYN98843bFSgesRKvO5X4u6lKlSrWqVMnO/LII93XYYcdZjVq1CBc4ecHAQQQQCDnBAhacq7LaTACCGSbQOIbHbVN67/Eo1/iS4UwX3/9daFNTwxh9CAFLXHwsueee5q+Er+vV69eocfiDgQQCF9AvzM0BSgOVhTuqiT+vtHvicMPP9yFKkcccYS7Hrc8+XdKfDuXCCCAAAII5IIAQUsu9DJtRACBnBVIfFMkBL150qKU8deyZcvyr+u2wkrym6Zq1apZ48aNC3ztuuuuBb7X/Q0bNizskNyOAAIeCLz//vtuOqKmJGptKP2O0HXtnqaS+DtE/6c1WkWhir4OOOAA95jk3w/uRv5BAAEEEEAghwUIWnK482k6AgjktkDiG6hYIjl4Sf4+XoMhfnziZWFvtvbYY4/8AEZrNOjNWnwZhzV6DAUBBMpHQKPZFJ7EXwpTFKp88cUXBU6Y/DtBazvF04AUrOh7lcL+rxc4GN8ggAACCCCQwwIELTnc+TQdAQQQKE4g+Y3XqlWr3AgYvXFbsWKFW7fhq6++Mt2u7+Ov4o6b6o1agwYNCgQyu+++uyWPkmnSpIlVrVq1uMNzPwI5JbB8+XL3fy/xUtMGtXaTRqwkBqTJ/6cFpWmB++23n7Vu3dpdxtfjtZpS/X/NKWAaiwACCCCAQAkFCFpKCMbDEUAAAQS2CaR606Z7V65cmR+66Lq+9CYw+fbEN4DbjrrtWqo3eApatKOS1olJdZnqNj2WdWW2uXItDAGtixL//9GlFqRVyBn/f1KwqZAzuRT2/1IBShyitGrVKj9U0SK2cUn1fy6+j0sEEEAAAQQQSE+AoCU9Jx6FAAIIIFBGgVRv/tavX58fyMSjYeLRMYlvJr/77ru0zl7cm8Q6deqkDGjq16/vFgBOFd7oNq1JQ0GgLAL6+dbP+7p16wp86bY4RNFl/PX9999vd7pU/4eSH9S0aVPTyK+9997bjVCJAxVdJpbi/q8kPpbrCCCAAAIIIFAyAYKWknnxaAQQQACBchYo7M2k3qiuXbvWvUlds2aNux5fxrfrUl/x7Zs2bUq7tsW98dQ0Cm1Vm/hVvXr1/O/j67qMrxf1WI28oYQjsHr1aheUKBhR8KfARNfjL92WeD3+mdTjihu5VdjPfKyjnyNNo0ucTqd1jvR9vM6RLjX9LrEU9zOd+FiuI4AAAggggEDmBAhaMmfJkRBAAAEEKkGguDepGiGTHMDEb4Lj23UZhzO6Hu+4UprmlPTNrUbMJAczyd/XrFnTrU0TBzfx/Rpp88tf/tJ23HFH91XYdd2f6r7EKSOlaWumn7Nlyxb76aef7Oeffy5wmXhb4vX4cbot+auw+3S7zrN58+aUXxpJknifgpLiSnE/g6mer+AknuamgCReIFo7dem6vvQYjUxJVUr6c5bqGNyGAAIIIIAAAuUjQNBSPq4cFQEEEEDAc4Hi3hx/++23BcKXOJTRG+/EUCa+XZca0VBepSLeWCcHN4UFNMnBzk477ZTf7B9//HG7oCQOPXSZeF3hSHGjPfIPnKErxfV7uqfRCCdNRUv1pQBF9+sy8UuP1fdFTUWriH5Ot408DgEEEEAAAQRKJ0DQUjo3noUAAgggkKMCxb1Rj0dDaNRE8pfui29LvB6PsFDokHy/bkt1zLKMusm2rtPIHIU9+lIIFF9PvIxv32WXXWznnXd2o4gUeCR+aaFlfa8RQ4m3ayRRrVq1CoQqRRkSlhSlw30IIIAAAghkvwBBS/b3MS1EAAEEEPBcoLjwprjqK5yJR4v8+9//Tnld96e6L/G24o6R/Nj4e12qKGDQFKU48IjDjcTLxOvx4xR8JD4vDkiSHxs/XpcKQjJdCEgyLcrxEEAAAQQQyE0Bgpbc7HdajQACCCCAQMYE4qCIoCJjpBwIAQQQQAABBAIW2DHgulN1BBBAAAEEEPBAgIDFg06gCggggAACCCDgjcAO3tSEiiCAAAIIIIAAAggggAACCCCAAAKBCxC0BN6BVB8BBBBAAAEEEEAAAQQQQAABBPwRIGjxpy+oCQIIIIAAAggggAACCCCAAAIIBC5A0BJ4B1J9BBBAAAEEEEAAAQQQQAABBBDwR4CgxZ++oCYIIIAAAggggAACCCCAAAIIIBC4AEFL4B1I9RFAAAEEEEAAAQQQQAABBBBAwB8BghZ/+oKaIIAAAggggAACCCCAAAIIIIBA4AIELYF3INVHAAEEEEAAAQQQQAABBBBAAAF/BAha/OkLaoIAAggggAACCCCAAAIIIIAAAoELELQE3oFUHwEEEEAAAQQQQAABBBBAAAEE/BEgaPGnL6gJAggggAACCCCAAAIIIIAAAggELkDQEngHUn0EEEAAAQQQQAABBBBAAAEEEPBHgKDFn76gJggggAACCCCAAAIIIIAAAgggELgAQUvgHUj1EUAAAQQQQAABBBBAAAEEEEDAHwGCFn/6gpoggAACCCCAAAIIIIAAAggggEDgAgQtgXcg1UcAAQQQQAABBBBAAAEEEEAAAX8ECFr86QtqggACCCCAAAIIIIAAAggggAACgQsQtATegVQfAQQQQAABBBBAAAEEEEAAAQT8ESBo8acvqAkCCCCAAAIIIIAAAggggAACCAQuQNASeAdSfQQQQAABBBBAAAEEEEAAAQQQ8EeAoMWfvqAmCCCAAAIIIIAAAggggAACCCAQuABBS+AdSPURQAABBBBAAAEEEEAAAQQQQMAfAYIWf/qCmiCAAAIIIIAAAggggAACCCCAQOACBC2BdyDVRwABBBBAAAEEEEAAAQQQQAABfwQIWvzpC2qCAAIIIIAAAggggAACCCCAAAKBCxC0BN6BVB8BBBBAAAEEEEAAAQQQQAABBPwRIGjxpy+oCQIIIIAAAggggAACCCCAAAIIBC5A0BJ4B1J9BBBAAAEEEEAAAQQQQAABBBDwR4CgxZ++oCYIIIAAAggggAACCCCAAAIIIBC4AEFL4B1I9RFAAAEEEEAAAQQQQAABBBBAwB8BghZ/+oKaIIAAAggggAACCCCAAAIIIIBA4AIELYF3INVHAAEEEEAAAQQQQAABBBBAAAF/BAha/OkLaoIAAggggAACCCCAAAIIIIAAAoELELQE3oFUHwEEEEAAAQQQQAABBBBAAAEE/BEgaPGnL6gJAggggAACCCCAAAIIIIAAAggELkDQEngHUn0EEEAAAQQQQAABBBBAAAEEEPBHgKDFn76gJggggAACCCCAAAIIIIAAAgggELgAQUvgHUj1EUAAAQQQQAABBBBAAAEEEEDAHwGCFn/6gpoggAACCCCAAAIIIIAAAggggEDgAgQtgXcg1UcAAQQQQAABBBBAAAEEEEAAAX8ECFr86QtqggACCCCAAAIIIIAAAggggAACgQsQtATegVQfAQQQQAABBBBAAAEEEEAAAQT8ESBo8acvqAkCCCCAAAIIIIAAAggggAACCAQuQNASeAdSfQQQQAABBBBAAAEEEEAAAQQQ8EeAoMWfvqAmCCCAAAIIIIAAAggggAACCCAQuABBS+AdSPURQAABBBBAAAEEEEAAAQQQQMAfAYIWf/qCmiCAAAIIIIAAAggggAACCCCAQOACBC2BdyDVRwABBBBAAAEEEEAAAQQQQAABfwQIWvzpC2qCAAIIIIAAAggggAACCCCAAAKBCxC0BN6BVB8BBBBAAAEEEEAAAQQQQAABBPwRIGjxpy+oCQIIIIAAAggggAACCCCAAAIIBC5A0BJ4B1J9BBBAAAEEEEAAAQQQQAABBBDwR4CgxZ++oCYIIIAAAggggAACCCCAAAIIIBC4AEFL4B1I9RFAAAEEEEAAAQQQQAABBBBAwB8BghZ/+oKaIIAAAggggAACCCCAAAIIIIBA4AIELYF3INVHAAEEEEAAAQQQQAABBBBAAAF/BAha/OkLaoIAAggggAACCCCAAAIIIIAAAoELELQE3oFUHwEEEEAAAQQQQAABBBBAAAEE/BEgaPGnL6gJAggggAACCCCAAAIIIIAAAggELkDQEngHUn0EEEAAAQQQQAABBBBAAAEEEPBHgKDFn76gJggggAACCCCAAAIIIIAAAgggELgAQUvgHUj1EUAAAQQQQAABBBBAAAEEEEDAHwGCFn/6gpoggAACCCCAAAIIIIAAAggggEDgAgQtgXcg1UcAAQQQQAABBBBAAAEEEEAAAX8ECFr86QtqggACCCCAAAIIIIAAAggggAACgQsQtATegVQfAQQQQAABBBBAAAEEEEAAAQT8ESBo8acvqAkCCCCAAAIIIIAAAggggAACCAQuQNASeAdSfQQQQAABBBBAAAEEEEAAAQQQ8EeAoMWfvqAmCCCAAAIIIIAAAggggAACCCAQuABBS+AdSPURQAABBBBAAAEEEEAAAQQQQMAfAYIWf/qCmiCAAAIIIIAAAggggAACCCCAQOACBC2BdyDVRwABBBBAAAEEEEAAAQQQQAABfwQIWvzpC2qCAAIIIIAAAggggAACCCCAAAKBCxC0BN6BVB8BBBBAAAEEEEAAAQQQQAABBPwRIGjxpy+oCQIIIIAAAggggAACCCCAAAIIBC5A0BJ4B1J9BBBAAAEEEEAAAQQQQAABBBDwR4CgxZ++oCYIIIAAAggggAACCCCAAAIIIBC4AEFL4B1I9RFAAAEEEEAAAQQQQAABBBBAwB8BghZ/+oKaIIAAAggggAACCCCAAAIIIIBA4AIELYF3INVHAAEEEEAAAQQQQAABBBBAAAF/BAha/OkLaoIAAggggAACCCCAAAIIIIAAAoELELQE3oFUHwEEEEAAAQQQQAABBBBAAAEE/BEgaPGnL6gJAggggAACCCCAAAIIIIAAAggELkDQEngHUn0EEEAAAQQQQAABBBBAAAEEEPBHgKDFn76gJggggAACCCCAAAIIIIAAAgggELgAQUvgHUj1EUAAAQQQQAABBBBAAAEEEEDAHwGCFn/6gpoggAACCCCAAAIIIIAAAggggEDgAgQtgXcg1UcAAQQQQAABBBBAAAEEEEAAAX8ECFr86QtqggACCCCAAAIIIIAAAggggAACgQsQtATegVQfAQQQQAABBBBAAAEEEEAAAQT8ESBo8acvqAkCCCCAAAIIIIAAAggggAACCAQuQNASeAdSfQQQQAABBBBAAAEEEEAAAQQQ8EeAoMWfvqAmCCCAAAIIIIAAAggggAACCCAQuABBS+AdSPURQAABBBBAAAEEEEAAAQQQQMAfAYIWf/qCmiCAAAIIIIAAAggggAACCCCAQOACBC2BdyDVRwABBBBAAAEEEEAAAQQQQAABfwQIWvzpC2qCAAIIIIAAAggggAACCCCAAAKBCxC0BN6BVB8BBBBAAAEEEEAAAQQQQAABBPwRIGjxpy+oCQIIIIAAAggggAACCCCAAAIIBC5A0BJ4B1J9BBBAAAEEEEAAAQQQQAABBBDwR4CgxZ++oCYIIIAAAggggAACCCCAAAIIIBC4AEFL4B1I9RFAAAEEEEAAAQQQQAABBBBAwB8BghZ/+oKaIIAAAggggAACCCCAAAIIIIBA4AIELYF3INVHAAEEEEAAAQQQQAABBBBAAAF/BAha/OkLaoIAAggggAACCCCAAAIIIIAAAoELELQE3oFUHwEEEEAAAQQQQAABBBBAAAEE/BEgaPGnL6gJAggggAACCCCAAAIIIIAAAggELkDQEngHUn0EEEAAAQQQQAABBBBAAAEEEPBHgKDFn76gJggggAACCCCAAAIIIIAAAgggELgAQUvgHUj1EUAAAQQQQAABBBBAAAEEEEDAHwGCFn/6gpoggAACCCCAAAIIIIAAAggggEDgAgQtgXcg1UcAAQQQQAABBBBAAAEEEEAAAX8ECFr86QtqggACCCCAAAIIIIAAAggggAACgQsQtATegVQfAQQQQAABBBBAAAEEEEAAAQT8ESBo8acvqAkCCCCAAAIIIIAAAggggAACCAQuQNASeAdSfQQQQAABBBBAAAEEEEAAAQQQ8EeAoMWfvqAmCCCAAAIIIIAAAggggAACCCAQuABBS+AdSPURQAABBBBAAAEEEEAAAQQQQMAfAYIWf/qCmiCAAAIIIIAAAggggAACCCCAQOACBC2BdyDVRwABBBBAAAEEEEAAAQQQQAABfwQIWvzpC2qCAAIIIIAAAggggAACCCCAAAKBCxC0BN6BVB8BBBBAAAEEEEAAAQQQQAABBPwRIGjxpy+oCQIIIIAAAggggAACCCCAAAIIBC5A0BJ4B1J9BBBAAAEEEEAAAQQQQAABBBDwR4CgxZ++oCYIIIAAAggggAACCCCAAAIIIBC4AEFL4B1I9RFAAAEEEEAAAQQQQAABBBBAwB8BghZ/+oKaIIAAAggggAACCCCAAAIIIIBA4AIELYF3INVHAAEEEEAAAQQQQAABBBBAAAF/BAha/OkLaoIAAggggAACCCCAAAIIIIAAAoELELQE3oFUHwEEEEAAAQQQQAABBBBAAAEE/BEgaPGnL6gJAggggAACCCCAAAIIIIAAAggELkDQEngHUn0EEEAAAQQQQAABBBBAAAEEEPBHgKDFn76gJggggAACCCCAAAIIIIAAAgggELgAQUvgHUj1EUAAAQQQQAABBBBAAAEEEEDAHwGCFn/6gpoggAACCCCAAAIIIIAAAggggEDgAgQtgXcg1UcAAQQQQAABBBBAAAEEEEAAAX8ECFr86QtqggACCCCAAAIIIIAAAggggAACgQsQtATegVQfAQQQQAABBBBAAAEEEEAAAQT8ESBo8acvqAkCCCCAAAIIIIAAAggggAACCAQuQNASeAdSfQQQQAABBBBAAAEEEEAAAQQQ8EeAoMWfvqAmCCCAAAIIIIAAAggggAACCCAQuABBS+AdSPURQAABBBBAAAEEEEAAAQQQQMAfAYIWf/qCmiCAAAIIIIAAAggggAACCCCAQOAC/x9B2CCzkB5ShQAAAABJRU5ErkJggg==;" vertex="1" parent="1">
          <mxGeometry x="10" y="543.97" width="514" height="406.03" as="geometry" />
        </mxCell>
        <mxCell id="SAyNskZYrFO6HLzrF5o1-9" value="" style="endArrow=none;html=1;rounded=0;strokeColor=none;" edge="1" parent="1">
          <mxGeometry width="50" height="50" relative="1" as="geometry">
            <mxPoint x="250" y="800" as="sourcePoint" />
            <mxPoint x="300" y="750" as="targetPoint" />
          </mxGeometry>
        </mxCell>
      </root>
    </mxGraphModel>
  </diagram>
</mxfile>
